G04 #@! TF.GenerationSoftware,KiCad,Pcbnew,6.0.11-2627ca5db0~126~ubuntu20.04.1*
G04 #@! TF.CreationDate,2023-10-24T11:05:38+02:00*
G04 #@! TF.ProjectId,attiny85_I2C_RGB_LED_v21,61747469-6e79-4383-955f-4932435f5247,2.0*
G04 #@! TF.SameCoordinates,Original*
G04 #@! TF.FileFunction,Soldermask,Bot*
G04 #@! TF.FilePolarity,Negative*
%FSLAX46Y46*%
G04 Gerber Fmt 4.6, Leading zero omitted, Abs format (unit mm)*
G04 Created by KiCad (PCBNEW 6.0.11-2627ca5db0~126~ubuntu20.04.1) date 2023-10-24 11:05:38*
%MOMM*%
%LPD*%
G01*
G04 APERTURE LIST*
G04 Aperture macros list*
%AMRoundRect*
0 Rectangle with rounded corners*
0 $1 Rounding radius*
0 $2 $3 $4 $5 $6 $7 $8 $9 X,Y pos of 4 corners*
0 Add a 4 corners polygon primitive as box body*
4,1,4,$2,$3,$4,$5,$6,$7,$8,$9,$2,$3,0*
0 Add four circle primitives for the rounded corners*
1,1,$1+$1,$2,$3*
1,1,$1+$1,$4,$5*
1,1,$1+$1,$6,$7*
1,1,$1+$1,$8,$9*
0 Add four rect primitives between the rounded corners*
20,1,$1+$1,$2,$3,$4,$5,0*
20,1,$1+$1,$4,$5,$6,$7,0*
20,1,$1+$1,$6,$7,$8,$9,0*
20,1,$1+$1,$8,$9,$2,$3,0*%
G04 Aperture macros list end*
%ADD10C,1.702000*%
%ADD11O,1.702000X1.702000*%
%ADD12RoundRect,0.051000X-0.800000X0.800000X-0.800000X-0.800000X0.800000X-0.800000X0.800000X0.800000X0*%
%ADD13C,1.502000*%
%ADD14RoundRect,0.051000X0.900000X-0.535000X0.900000X0.535000X-0.900000X0.535000X-0.900000X-0.535000X0*%
%ADD15O,1.902000X1.172000*%
%ADD16RoundRect,0.051000X0.850000X0.850000X-0.850000X0.850000X-0.850000X-0.850000X0.850000X-0.850000X0*%
%ADD17O,1.802000X1.802000*%
G04 APERTURE END LIST*
D10*
X113284000Y-114046000D03*
D11*
X113284000Y-121666000D03*
D10*
X116332000Y-114046000D03*
D11*
X116332000Y-121666000D03*
D10*
X110236000Y-114046000D03*
D11*
X110236000Y-121666000D03*
D12*
X124196000Y-125994000D03*
D11*
X121656000Y-125994000D03*
X119116000Y-125994000D03*
X116576000Y-125994000D03*
X116576000Y-133614000D03*
X119116000Y-133614000D03*
X121656000Y-133614000D03*
X124196000Y-133614000D03*
D13*
X124206000Y-136398000D03*
X121706000Y-136398000D03*
D14*
X121666000Y-117856000D03*
D15*
X121666000Y-116586000D03*
X121666000Y-115316000D03*
X121666000Y-114046000D03*
D16*
X110744000Y-132500000D03*
D17*
X110744000Y-129960000D03*
X110744000Y-127420000D03*
X110744000Y-124880000D03*
D10*
X116586000Y-136652000D03*
D11*
X108966000Y-136652000D03*
D10*
X116586000Y-139700000D03*
D11*
X108966000Y-139700000D03*
G36*
X120903079Y-117010461D02*
G01*
X121009010Y-117091745D01*
X121149854Y-117150084D01*
X121301132Y-117170000D01*
X122030868Y-117170000D01*
X122182146Y-117150084D01*
X122322990Y-117091745D01*
X122426455Y-117012354D01*
X122428438Y-117012093D01*
X122429656Y-117013680D01*
X122429166Y-117015272D01*
X122419420Y-117026210D01*
X122419060Y-117026527D01*
X122394406Y-117043472D01*
X122350506Y-117097422D01*
X122342775Y-117166250D01*
X122373481Y-117228329D01*
X122433018Y-117264038D01*
X122464092Y-117268016D01*
X122465683Y-117269228D01*
X122465429Y-117271212D01*
X122463838Y-117272000D01*
X120868830Y-117272000D01*
X120867098Y-117271000D01*
X120867098Y-117269000D01*
X120868267Y-117268081D01*
X120935279Y-117248405D01*
X120980634Y-117196062D01*
X120990491Y-117127509D01*
X120961648Y-117064353D01*
X120939450Y-117044298D01*
X120908350Y-117022441D01*
X120907993Y-117022120D01*
X120900354Y-117013363D01*
X120899969Y-117011400D01*
X120901476Y-117010085D01*
X120903079Y-117010461D01*
G37*
G36*
X121149854Y-115880084D02*
G01*
X121301132Y-115900000D01*
X122030868Y-115900000D01*
X122182146Y-115880084D01*
X122308380Y-115827796D01*
X122310363Y-115828057D01*
X122311128Y-115829905D01*
X122310278Y-115831292D01*
X122291778Y-115844007D01*
X122291820Y-115844534D01*
X122291220Y-115845270D01*
X122247704Y-115878136D01*
X122223778Y-115943131D01*
X122238789Y-116010741D01*
X122288137Y-116059671D01*
X122301800Y-116065997D01*
X122308209Y-116068496D01*
X122308633Y-116068723D01*
X122313167Y-116071909D01*
X122314009Y-116073723D01*
X122312859Y-116075359D01*
X122311252Y-116075393D01*
X122182146Y-116021916D01*
X122030868Y-116002000D01*
X121301132Y-116002000D01*
X121149854Y-116021916D01*
X121023620Y-116074204D01*
X121021637Y-116073943D01*
X121020872Y-116072095D01*
X121021722Y-116070708D01*
X121040222Y-116057993D01*
X121040180Y-116057466D01*
X121040780Y-116056730D01*
X121084296Y-116023864D01*
X121108222Y-115958869D01*
X121093211Y-115891259D01*
X121043863Y-115842329D01*
X121030200Y-115836003D01*
X121023791Y-115833504D01*
X121023367Y-115833277D01*
X121018833Y-115830091D01*
X121017991Y-115828277D01*
X121019141Y-115826641D01*
X121020748Y-115826607D01*
X121149854Y-115880084D01*
G37*
G36*
X121149854Y-114610084D02*
G01*
X121301132Y-114630000D01*
X122030868Y-114630000D01*
X122182146Y-114610084D01*
X122308380Y-114557796D01*
X122310363Y-114558057D01*
X122311128Y-114559905D01*
X122310278Y-114561292D01*
X122291778Y-114574007D01*
X122291820Y-114574534D01*
X122291220Y-114575270D01*
X122247704Y-114608136D01*
X122223778Y-114673131D01*
X122238789Y-114740741D01*
X122288137Y-114789671D01*
X122301800Y-114795997D01*
X122308209Y-114798496D01*
X122308633Y-114798723D01*
X122313167Y-114801909D01*
X122314009Y-114803723D01*
X122312859Y-114805359D01*
X122311252Y-114805393D01*
X122182146Y-114751916D01*
X122030868Y-114732000D01*
X121301132Y-114732000D01*
X121149854Y-114751916D01*
X121023620Y-114804204D01*
X121021637Y-114803943D01*
X121020872Y-114802095D01*
X121021722Y-114800708D01*
X121040222Y-114787993D01*
X121040180Y-114787466D01*
X121040780Y-114786730D01*
X121084296Y-114753864D01*
X121108222Y-114688869D01*
X121093211Y-114621259D01*
X121043863Y-114572329D01*
X121030200Y-114566003D01*
X121023791Y-114563504D01*
X121023367Y-114563277D01*
X121018833Y-114560091D01*
X121017991Y-114558277D01*
X121019141Y-114556641D01*
X121020748Y-114556607D01*
X121149854Y-114610084D01*
G37*
M02*
