G04 #@! TF.GenerationSoftware,KiCad,Pcbnew,6.0.11-2627ca5db0~126~ubuntu20.04.1*
G04 #@! TF.CreationDate,2023-10-24T11:05:38+02:00*
G04 #@! TF.ProjectId,attiny85_I2C_RGB_LED_v21,61747469-6e79-4383-955f-4932435f5247,2.0*
G04 #@! TF.SameCoordinates,Original*
G04 #@! TF.FileFunction,Copper,L1,Top*
G04 #@! TF.FilePolarity,Positive*
%FSLAX46Y46*%
G04 Gerber Fmt 4.6, Leading zero omitted, Abs format (unit mm)*
G04 Created by KiCad (PCBNEW 6.0.11-2627ca5db0~126~ubuntu20.04.1) date 2023-10-24 11:05:38*
%MOMM*%
%LPD*%
G01*
G04 APERTURE LIST*
G04 Aperture macros list*
%AMFreePoly0*
4,1,22,0.500000,-0.750000,0.000000,-0.750000,0.000000,-0.745033,-0.079941,-0.743568,-0.215256,-0.701293,-0.333266,-0.622738,-0.424486,-0.514219,-0.481581,-0.384460,-0.499164,-0.250000,-0.500000,-0.250000,-0.500000,0.250000,-0.499164,0.250000,-0.499963,0.256109,-0.478152,0.396186,-0.417904,0.524511,-0.324060,0.630769,-0.204165,0.706417,-0.067858,0.745374,0.000000,0.744959,0.000000,0.750000,
0.500000,0.750000,0.500000,-0.750000,0.500000,-0.750000,$1*%
%AMFreePoly1*
4,1,20,0.000000,0.744959,0.073905,0.744508,0.209726,0.703889,0.328688,0.626782,0.421226,0.519385,0.479903,0.390333,0.500000,0.250000,0.500000,-0.250000,0.499851,-0.262216,0.476331,-0.402017,0.414519,-0.529596,0.319384,-0.634700,0.198574,-0.708877,0.061801,-0.746166,0.000000,-0.745033,0.000000,-0.750000,-0.500000,-0.750000,-0.500000,0.750000,0.000000,0.750000,0.000000,0.744959,
0.000000,0.744959,$1*%
G04 Aperture macros list end*
%ADD10C,0.150000*%
G04 #@! TA.AperFunction,NonConductor*
%ADD11C,0.150000*%
G04 #@! TD*
G04 #@! TA.AperFunction,ComponentPad*
%ADD12C,1.600000*%
G04 #@! TD*
G04 #@! TA.AperFunction,ComponentPad*
%ADD13O,1.600000X1.600000*%
G04 #@! TD*
G04 #@! TA.AperFunction,ComponentPad*
%ADD14R,1.600000X1.600000*%
G04 #@! TD*
G04 #@! TA.AperFunction,ComponentPad*
%ADD15C,1.400000*%
G04 #@! TD*
G04 #@! TA.AperFunction,ComponentPad*
%ADD16R,1.800000X1.070000*%
G04 #@! TD*
G04 #@! TA.AperFunction,ComponentPad*
%ADD17O,1.800000X1.070000*%
G04 #@! TD*
G04 #@! TA.AperFunction,ComponentPad*
%ADD18R,1.700000X1.700000*%
G04 #@! TD*
G04 #@! TA.AperFunction,ComponentPad*
%ADD19O,1.700000X1.700000*%
G04 #@! TD*
G04 #@! TA.AperFunction,SMDPad,CuDef*
%ADD20FreePoly0,180.000000*%
G04 #@! TD*
G04 #@! TA.AperFunction,SMDPad,CuDef*
%ADD21FreePoly1,180.000000*%
G04 #@! TD*
G04 #@! TA.AperFunction,Conductor*
%ADD22C,0.500000*%
G04 #@! TD*
G04 APERTURE END LIST*
D10*
D11*
X108795523Y-145141904D02*
X108795523Y-144341904D01*
X108986000Y-144341904D01*
X109100285Y-144380000D01*
X109176476Y-144456190D01*
X109214571Y-144532380D01*
X109252666Y-144684761D01*
X109252666Y-144799047D01*
X109214571Y-144951428D01*
X109176476Y-145027619D01*
X109100285Y-145103809D01*
X108986000Y-145141904D01*
X108795523Y-145141904D01*
X109900285Y-145103809D02*
X109824095Y-145141904D01*
X109671714Y-145141904D01*
X109595523Y-145103809D01*
X109557428Y-145027619D01*
X109557428Y-144722857D01*
X109595523Y-144646666D01*
X109671714Y-144608571D01*
X109824095Y-144608571D01*
X109900285Y-144646666D01*
X109938380Y-144722857D01*
X109938380Y-144799047D01*
X109557428Y-144875238D01*
X110243142Y-145103809D02*
X110319333Y-145141904D01*
X110471714Y-145141904D01*
X110547904Y-145103809D01*
X110586000Y-145027619D01*
X110586000Y-144989523D01*
X110547904Y-144913333D01*
X110471714Y-144875238D01*
X110357428Y-144875238D01*
X110281238Y-144837142D01*
X110243142Y-144760952D01*
X110243142Y-144722857D01*
X110281238Y-144646666D01*
X110357428Y-144608571D01*
X110471714Y-144608571D01*
X110547904Y-144646666D01*
X110928857Y-145141904D02*
X110928857Y-144608571D01*
X110928857Y-144341904D02*
X110890761Y-144380000D01*
X110928857Y-144418095D01*
X110966952Y-144380000D01*
X110928857Y-144341904D01*
X110928857Y-144418095D01*
X111652666Y-144608571D02*
X111652666Y-145256190D01*
X111614571Y-145332380D01*
X111576476Y-145370476D01*
X111500285Y-145408571D01*
X111386000Y-145408571D01*
X111309809Y-145370476D01*
X111652666Y-145103809D02*
X111576476Y-145141904D01*
X111424095Y-145141904D01*
X111347904Y-145103809D01*
X111309809Y-145065714D01*
X111271714Y-144989523D01*
X111271714Y-144760952D01*
X111309809Y-144684761D01*
X111347904Y-144646666D01*
X111424095Y-144608571D01*
X111576476Y-144608571D01*
X111652666Y-144646666D01*
X112033619Y-144608571D02*
X112033619Y-145141904D01*
X112033619Y-144684761D02*
X112071714Y-144646666D01*
X112147904Y-144608571D01*
X112262190Y-144608571D01*
X112338380Y-144646666D01*
X112376476Y-144722857D01*
X112376476Y-145141904D01*
X113062190Y-145103809D02*
X112986000Y-145141904D01*
X112833619Y-145141904D01*
X112757428Y-145103809D01*
X112719333Y-145027619D01*
X112719333Y-144722857D01*
X112757428Y-144646666D01*
X112833619Y-144608571D01*
X112986000Y-144608571D01*
X113062190Y-144646666D01*
X113100285Y-144722857D01*
X113100285Y-144799047D01*
X112719333Y-144875238D01*
X113786000Y-145141904D02*
X113786000Y-144341904D01*
X113786000Y-145103809D02*
X113709809Y-145141904D01*
X113557428Y-145141904D01*
X113481238Y-145103809D01*
X113443142Y-145065714D01*
X113405047Y-144989523D01*
X113405047Y-144760952D01*
X113443142Y-144684761D01*
X113481238Y-144646666D01*
X113557428Y-144608571D01*
X113709809Y-144608571D01*
X113786000Y-144646666D01*
X114776476Y-145141904D02*
X114776476Y-144341904D01*
X114776476Y-144646666D02*
X114852666Y-144608571D01*
X115005047Y-144608571D01*
X115081238Y-144646666D01*
X115119333Y-144684761D01*
X115157428Y-144760952D01*
X115157428Y-144989523D01*
X115119333Y-145065714D01*
X115081238Y-145103809D01*
X115005047Y-145141904D01*
X114852666Y-145141904D01*
X114776476Y-145103809D01*
X115424095Y-144608571D02*
X115614571Y-145141904D01*
X115805047Y-144608571D02*
X115614571Y-145141904D01*
X115538380Y-145332380D01*
X115500285Y-145370476D01*
X115424095Y-145408571D01*
X117176476Y-145141904D02*
X116909809Y-144760952D01*
X116719333Y-145141904D02*
X116719333Y-144341904D01*
X117024095Y-144341904D01*
X117100285Y-144380000D01*
X117138380Y-144418095D01*
X117176476Y-144494285D01*
X117176476Y-144608571D01*
X117138380Y-144684761D01*
X117100285Y-144722857D01*
X117024095Y-144760952D01*
X116719333Y-144760952D01*
X117633619Y-145141904D02*
X117557428Y-145103809D01*
X117519333Y-145065714D01*
X117481238Y-144989523D01*
X117481238Y-144760952D01*
X117519333Y-144684761D01*
X117557428Y-144646666D01*
X117633619Y-144608571D01*
X117747904Y-144608571D01*
X117824095Y-144646666D01*
X117862190Y-144684761D01*
X117900285Y-144760952D01*
X117900285Y-144989523D01*
X117862190Y-145065714D01*
X117824095Y-145103809D01*
X117747904Y-145141904D01*
X117633619Y-145141904D01*
X118243142Y-145141904D02*
X118243142Y-144341904D01*
X118243142Y-144646666D02*
X118319333Y-144608571D01*
X118471714Y-144608571D01*
X118547904Y-144646666D01*
X118586000Y-144684761D01*
X118624095Y-144760952D01*
X118624095Y-144989523D01*
X118586000Y-145065714D01*
X118547904Y-145103809D01*
X118471714Y-145141904D01*
X118319333Y-145141904D01*
X118243142Y-145103809D01*
X119271714Y-145103809D02*
X119195523Y-145141904D01*
X119043142Y-145141904D01*
X118966952Y-145103809D01*
X118928857Y-145027619D01*
X118928857Y-144722857D01*
X118966952Y-144646666D01*
X119043142Y-144608571D01*
X119195523Y-144608571D01*
X119271714Y-144646666D01*
X119309809Y-144722857D01*
X119309809Y-144799047D01*
X118928857Y-144875238D01*
X119652666Y-145141904D02*
X119652666Y-144608571D01*
X119652666Y-144760952D02*
X119690761Y-144684761D01*
X119728857Y-144646666D01*
X119805047Y-144608571D01*
X119881238Y-144608571D01*
X120033619Y-144608571D02*
X120338380Y-144608571D01*
X120147904Y-144341904D02*
X120147904Y-145027619D01*
X120186000Y-145103809D01*
X120262190Y-145141904D01*
X120338380Y-145141904D01*
X121176476Y-145103809D02*
X121290761Y-145141904D01*
X121481238Y-145141904D01*
X121557428Y-145103809D01*
X121595523Y-145065714D01*
X121633619Y-144989523D01*
X121633619Y-144913333D01*
X121595523Y-144837142D01*
X121557428Y-144799047D01*
X121481238Y-144760952D01*
X121328857Y-144722857D01*
X121252666Y-144684761D01*
X121214571Y-144646666D01*
X121176476Y-144570476D01*
X121176476Y-144494285D01*
X121214571Y-144418095D01*
X121252666Y-144380000D01*
X121328857Y-144341904D01*
X121519333Y-144341904D01*
X121633619Y-144380000D01*
X122281238Y-145103809D02*
X122205047Y-145141904D01*
X122052666Y-145141904D01*
X121976476Y-145103809D01*
X121938380Y-145027619D01*
X121938380Y-144722857D01*
X121976476Y-144646666D01*
X122052666Y-144608571D01*
X122205047Y-144608571D01*
X122281238Y-144646666D01*
X122319333Y-144722857D01*
X122319333Y-144799047D01*
X121938380Y-144875238D01*
X123005047Y-145141904D02*
X123005047Y-144341904D01*
X123005047Y-145103809D02*
X122928857Y-145141904D01*
X122776476Y-145141904D01*
X122700285Y-145103809D01*
X122662190Y-145065714D01*
X122624095Y-144989523D01*
X122624095Y-144760952D01*
X122662190Y-144684761D01*
X122700285Y-144646666D01*
X122776476Y-144608571D01*
X122928857Y-144608571D01*
X123005047Y-144646666D01*
X123728857Y-145141904D02*
X123728857Y-144722857D01*
X123690761Y-144646666D01*
X123614571Y-144608571D01*
X123462190Y-144608571D01*
X123385999Y-144646666D01*
X123728857Y-145103809D02*
X123652666Y-145141904D01*
X123462190Y-145141904D01*
X123385999Y-145103809D01*
X123347904Y-145027619D01*
X123347904Y-144951428D01*
X123385999Y-144875238D01*
X123462190Y-144837142D01*
X123652666Y-144837142D01*
X123728857Y-144799047D01*
X124109809Y-145141904D02*
X124109809Y-144341904D01*
X124185999Y-144837142D02*
X124414571Y-145141904D01*
X124414571Y-144608571D02*
X124109809Y-144913333D01*
D10*
D11*
X108509809Y-146437333D02*
X108890761Y-146437333D01*
X108433619Y-146665904D02*
X108700285Y-145865904D01*
X108966952Y-146665904D01*
X109119333Y-145865904D02*
X109576476Y-145865904D01*
X109347904Y-146665904D02*
X109347904Y-145865904D01*
X109728857Y-146132571D02*
X110033619Y-146132571D01*
X109843142Y-145865904D02*
X109843142Y-146551619D01*
X109881238Y-146627809D01*
X109957428Y-146665904D01*
X110033619Y-146665904D01*
X110300285Y-146665904D02*
X110300285Y-146132571D01*
X110300285Y-145865904D02*
X110262190Y-145904000D01*
X110300285Y-145942095D01*
X110338380Y-145904000D01*
X110300285Y-145865904D01*
X110300285Y-145942095D01*
X110681238Y-146132571D02*
X110681238Y-146665904D01*
X110681238Y-146208761D02*
X110719333Y-146170666D01*
X110795523Y-146132571D01*
X110909809Y-146132571D01*
X110986000Y-146170666D01*
X111024095Y-146246857D01*
X111024095Y-146665904D01*
X111328857Y-146132571D02*
X111519333Y-146665904D01*
X111709809Y-146132571D02*
X111519333Y-146665904D01*
X111443142Y-146856380D01*
X111405047Y-146894476D01*
X111328857Y-146932571D01*
X112128857Y-146208761D02*
X112052666Y-146170666D01*
X112014571Y-146132571D01*
X111976476Y-146056380D01*
X111976476Y-146018285D01*
X112014571Y-145942095D01*
X112052666Y-145904000D01*
X112128857Y-145865904D01*
X112281238Y-145865904D01*
X112357428Y-145904000D01*
X112395523Y-145942095D01*
X112433619Y-146018285D01*
X112433619Y-146056380D01*
X112395523Y-146132571D01*
X112357428Y-146170666D01*
X112281238Y-146208761D01*
X112128857Y-146208761D01*
X112052666Y-146246857D01*
X112014571Y-146284952D01*
X111976476Y-146361142D01*
X111976476Y-146513523D01*
X112014571Y-146589714D01*
X112052666Y-146627809D01*
X112128857Y-146665904D01*
X112281238Y-146665904D01*
X112357428Y-146627809D01*
X112395523Y-146589714D01*
X112433619Y-146513523D01*
X112433619Y-146361142D01*
X112395523Y-146284952D01*
X112357428Y-146246857D01*
X112281238Y-146208761D01*
X113157428Y-145865904D02*
X112776476Y-145865904D01*
X112738380Y-146246857D01*
X112776476Y-146208761D01*
X112852666Y-146170666D01*
X113043142Y-146170666D01*
X113119333Y-146208761D01*
X113157428Y-146246857D01*
X113195523Y-146323047D01*
X113195523Y-146513523D01*
X113157428Y-146589714D01*
X113119333Y-146627809D01*
X113043142Y-146665904D01*
X112852666Y-146665904D01*
X112776476Y-146627809D01*
X112738380Y-146589714D01*
X114147904Y-146665904D02*
X114147904Y-145865904D01*
X114490761Y-145942095D02*
X114528857Y-145904000D01*
X114605047Y-145865904D01*
X114795523Y-145865904D01*
X114871714Y-145904000D01*
X114909809Y-145942095D01*
X114947904Y-146018285D01*
X114947904Y-146094476D01*
X114909809Y-146208761D01*
X114452666Y-146665904D01*
X114947904Y-146665904D01*
X115747904Y-146589714D02*
X115709809Y-146627809D01*
X115595523Y-146665904D01*
X115519333Y-146665904D01*
X115405047Y-146627809D01*
X115328857Y-146551619D01*
X115290761Y-146475428D01*
X115252666Y-146323047D01*
X115252666Y-146208761D01*
X115290761Y-146056380D01*
X115328857Y-145980190D01*
X115405047Y-145904000D01*
X115519333Y-145865904D01*
X115595523Y-145865904D01*
X115709809Y-145904000D01*
X115747904Y-145942095D01*
X117157428Y-146665904D02*
X116890761Y-146284952D01*
X116700285Y-146665904D02*
X116700285Y-145865904D01*
X117005047Y-145865904D01*
X117081238Y-145904000D01*
X117119333Y-145942095D01*
X117157428Y-146018285D01*
X117157428Y-146132571D01*
X117119333Y-146208761D01*
X117081238Y-146246857D01*
X117005047Y-146284952D01*
X116700285Y-146284952D01*
X117919333Y-145904000D02*
X117843142Y-145865904D01*
X117728857Y-145865904D01*
X117614571Y-145904000D01*
X117538380Y-145980190D01*
X117500285Y-146056380D01*
X117462190Y-146208761D01*
X117462190Y-146323047D01*
X117500285Y-146475428D01*
X117538380Y-146551619D01*
X117614571Y-146627809D01*
X117728857Y-146665904D01*
X117805047Y-146665904D01*
X117919333Y-146627809D01*
X117957428Y-146589714D01*
X117957428Y-146323047D01*
X117805047Y-146323047D01*
X118566952Y-146246857D02*
X118681238Y-146284952D01*
X118719333Y-146323047D01*
X118757428Y-146399238D01*
X118757428Y-146513523D01*
X118719333Y-146589714D01*
X118681238Y-146627809D01*
X118605047Y-146665904D01*
X118300285Y-146665904D01*
X118300285Y-145865904D01*
X118566952Y-145865904D01*
X118643142Y-145904000D01*
X118681238Y-145942095D01*
X118719333Y-146018285D01*
X118719333Y-146094476D01*
X118681238Y-146170666D01*
X118643142Y-146208761D01*
X118566952Y-146246857D01*
X118300285Y-146246857D01*
X120090761Y-146665904D02*
X119709809Y-146665904D01*
X119709809Y-145865904D01*
X120357428Y-146246857D02*
X120624095Y-146246857D01*
X120738380Y-146665904D02*
X120357428Y-146665904D01*
X120357428Y-145865904D01*
X120738380Y-145865904D01*
X121081238Y-146665904D02*
X121081238Y-145865904D01*
X121271714Y-145865904D01*
X121386000Y-145904000D01*
X121462190Y-145980190D01*
X121500285Y-146056380D01*
X121538380Y-146208761D01*
X121538380Y-146323047D01*
X121500285Y-146475428D01*
X121462190Y-146551619D01*
X121386000Y-146627809D01*
X121271714Y-146665904D01*
X121081238Y-146665904D01*
X122414571Y-146132571D02*
X122605047Y-146665904D01*
X122795523Y-146132571D01*
X123062190Y-145942095D02*
X123100285Y-145904000D01*
X123176476Y-145865904D01*
X123366952Y-145865904D01*
X123443142Y-145904000D01*
X123481238Y-145942095D01*
X123519333Y-146018285D01*
X123519333Y-146094476D01*
X123481238Y-146208761D01*
X123024095Y-146665904D01*
X123519333Y-146665904D01*
X123862190Y-146589714D02*
X123900285Y-146627809D01*
X123862190Y-146665904D01*
X123824095Y-146627809D01*
X123862190Y-146589714D01*
X123862190Y-146665904D01*
X124662190Y-146665904D02*
X124205047Y-146665904D01*
X124433619Y-146665904D02*
X124433619Y-145865904D01*
X124357428Y-145980190D01*
X124281238Y-146056380D01*
X124205047Y-146094476D01*
D12*
X113284000Y-114046000D03*
D13*
X113284000Y-121666000D03*
D12*
X116332000Y-114046000D03*
D13*
X116332000Y-121666000D03*
D12*
X110236000Y-114046000D03*
D13*
X110236000Y-121666000D03*
D14*
X124196000Y-125994000D03*
D13*
X121656000Y-125994000D03*
X119116000Y-125994000D03*
X116576000Y-125994000D03*
X116576000Y-133614000D03*
X119116000Y-133614000D03*
X121656000Y-133614000D03*
X124196000Y-133614000D03*
D15*
X124206000Y-136398000D03*
X121706000Y-136398000D03*
D16*
X121666000Y-117856000D03*
D17*
X121666000Y-116586000D03*
X121666000Y-115316000D03*
X121666000Y-114046000D03*
D18*
X110744000Y-132500000D03*
D19*
X110744000Y-129960000D03*
X110744000Y-127420000D03*
X110744000Y-124880000D03*
D12*
X116586000Y-136652000D03*
D13*
X108966000Y-136652000D03*
D12*
X116586000Y-139700000D03*
D13*
X108966000Y-139700000D03*
D20*
X124094000Y-121666000D03*
D21*
X122794000Y-121666000D03*
D20*
X120756200Y-121666000D03*
D21*
X119456200Y-121666000D03*
D22*
X116332000Y-123210000D02*
X116332000Y-123190000D01*
X116332000Y-123190000D02*
X114808000Y-123190000D01*
X119116000Y-125994000D02*
X116332000Y-123210000D01*
X114808000Y-123190000D02*
X113284000Y-121666000D01*
X119009000Y-124343000D02*
X120005000Y-124343000D01*
X121656000Y-125994000D02*
X120005000Y-124343000D01*
X116332000Y-121666000D02*
X119009000Y-124343000D01*
X119116000Y-131130679D02*
X110236000Y-122250679D01*
X110236000Y-122250679D02*
X110236000Y-121666000D01*
X119116000Y-133614000D02*
X119116000Y-131130679D01*
X117602000Y-115316000D02*
X116332000Y-114046000D01*
X121666000Y-115316000D02*
X117602000Y-115316000D01*
X116576000Y-130712000D02*
X116576000Y-133614000D01*
X116586000Y-133624000D02*
X116576000Y-133614000D01*
X110744000Y-124880000D02*
X116576000Y-130712000D01*
X116586000Y-136652000D02*
X116586000Y-133624000D01*
X109220000Y-120142000D02*
X111760000Y-120142000D01*
X117932200Y-120142000D02*
X111760000Y-120142000D01*
X121706000Y-136398000D02*
X121706000Y-137387949D01*
X111164000Y-129960000D02*
X110744000Y-129960000D01*
X115444630Y-125994000D02*
X111760000Y-122309370D01*
X110744000Y-129960000D02*
X108786000Y-128002000D01*
X112244000Y-138406000D02*
X112244000Y-131040000D01*
X108786000Y-128002000D02*
X108786000Y-120576000D01*
X119456200Y-121666000D02*
X117932200Y-120142000D01*
X117615949Y-141478000D02*
X115316000Y-141478000D01*
X112244000Y-131040000D02*
X111164000Y-129960000D01*
X111760000Y-122309370D02*
X111760000Y-120142000D01*
X108786000Y-120576000D02*
X109220000Y-120142000D01*
X115316000Y-141478000D02*
X112244000Y-138406000D01*
X116576000Y-125994000D02*
X115444630Y-125994000D01*
X121706000Y-137387949D02*
X117615949Y-141478000D01*
X125984000Y-131826000D02*
X125984000Y-125086000D01*
X124196000Y-133614000D02*
X125984000Y-131826000D01*
X124094000Y-123196000D02*
X124094000Y-121666000D01*
X125984000Y-125086000D02*
X124094000Y-123196000D01*
X123444000Y-116586000D02*
X123952000Y-117094000D01*
X122794000Y-121666000D02*
X122794000Y-119628200D01*
X121666000Y-116586000D02*
X123444000Y-116586000D01*
X122794000Y-119628200D02*
X123952000Y-118470200D01*
X122794000Y-121666000D02*
X120756200Y-121666000D01*
X123952000Y-117094000D02*
X123952000Y-118470200D01*
G04 #@! TA.AperFunction,Conductor*
G36*
X126233621Y-111228502D02*
G01*
X126280114Y-111282158D01*
X126291500Y-111334500D01*
X126291500Y-124016630D01*
X126271498Y-124084751D01*
X126217842Y-124131244D01*
X126147568Y-124141348D01*
X126082988Y-124111854D01*
X126076405Y-124105725D01*
X125571493Y-123600812D01*
X124889405Y-122918724D01*
X124855379Y-122856412D01*
X124852500Y-122829629D01*
X124852500Y-122636288D01*
X124872502Y-122568167D01*
X124884058Y-122552881D01*
X124898297Y-122536758D01*
X124901260Y-122533403D01*
X124910248Y-122519721D01*
X124978764Y-122415414D01*
X124981226Y-122411666D01*
X124988250Y-122396707D01*
X125040191Y-122286076D01*
X125042095Y-122282021D01*
X125084683Y-122142723D01*
X125089789Y-122109933D01*
X125097621Y-122059623D01*
X125106717Y-122001205D01*
X125106869Y-121988829D01*
X125108442Y-121860038D01*
X125108497Y-121855562D01*
X125107937Y-121851277D01*
X125107729Y-121844240D01*
X125107729Y-121454953D01*
X125107727Y-121454953D01*
X125107318Y-121451984D01*
X125107805Y-121412137D01*
X125108496Y-121355562D01*
X125089926Y-121213548D01*
X125050755Y-121073252D01*
X124993072Y-120942159D01*
X124936927Y-120851959D01*
X124918470Y-120822306D01*
X124918467Y-120822302D01*
X124916103Y-120818504D01*
X124894235Y-120792488D01*
X124826831Y-120712301D01*
X124826830Y-120712300D01*
X124823946Y-120708869D01*
X124715361Y-120611782D01*
X124711628Y-120609297D01*
X124711624Y-120609294D01*
X124599865Y-120534901D01*
X124599863Y-120534900D01*
X124596136Y-120532419D01*
X124464667Y-120469711D01*
X124460388Y-120468374D01*
X124460385Y-120468373D01*
X124350488Y-120434039D01*
X124327961Y-120427001D01*
X124323537Y-120426284D01*
X124323535Y-120426284D01*
X124273419Y-120418167D01*
X124184179Y-120403713D01*
X124114298Y-120402432D01*
X124045461Y-120401170D01*
X124045459Y-120401170D01*
X124040980Y-120401088D01*
X124036535Y-120401641D01*
X124032056Y-120401878D01*
X124032049Y-120401751D01*
X124023661Y-120402271D01*
X123678500Y-120402271D01*
X123610379Y-120382269D01*
X123563886Y-120328613D01*
X123552500Y-120276271D01*
X123552500Y-119994571D01*
X123572502Y-119926450D01*
X123589405Y-119905476D01*
X124440911Y-119053970D01*
X124455323Y-119041584D01*
X124466918Y-119033051D01*
X124466923Y-119033046D01*
X124472818Y-119028708D01*
X124477557Y-119023130D01*
X124477560Y-119023127D01*
X124507035Y-118988432D01*
X124513965Y-118980916D01*
X124519660Y-118975221D01*
X124537281Y-118952949D01*
X124540072Y-118949545D01*
X124582591Y-118899497D01*
X124582592Y-118899495D01*
X124587333Y-118893915D01*
X124590661Y-118887399D01*
X124594028Y-118882350D01*
X124597195Y-118877221D01*
X124601734Y-118871484D01*
X124632655Y-118805325D01*
X124634561Y-118801425D01*
X124667769Y-118736392D01*
X124669508Y-118729284D01*
X124671607Y-118723641D01*
X124673524Y-118717878D01*
X124676622Y-118711250D01*
X124691487Y-118639783D01*
X124692457Y-118635499D01*
X124708473Y-118570045D01*
X124709808Y-118564590D01*
X124710500Y-118553436D01*
X124710536Y-118553438D01*
X124710775Y-118549445D01*
X124711149Y-118545253D01*
X124712640Y-118538085D01*
X124710546Y-118460679D01*
X124710500Y-118457272D01*
X124710500Y-117161063D01*
X124711933Y-117142114D01*
X124714097Y-117127886D01*
X124715198Y-117120651D01*
X124710915Y-117067990D01*
X124710500Y-117057777D01*
X124710500Y-117049707D01*
X124710078Y-117046087D01*
X124710077Y-117046069D01*
X124707208Y-117021461D01*
X124706775Y-117017086D01*
X124701454Y-116951661D01*
X124701453Y-116951658D01*
X124700860Y-116944363D01*
X124698604Y-116937399D01*
X124697413Y-116931440D01*
X124696029Y-116925585D01*
X124695182Y-116918319D01*
X124670265Y-116849673D01*
X124668848Y-116845545D01*
X124648607Y-116783064D01*
X124648606Y-116783062D01*
X124646351Y-116776101D01*
X124642555Y-116769846D01*
X124640049Y-116764372D01*
X124637330Y-116758942D01*
X124634833Y-116752063D01*
X124594809Y-116691016D01*
X124592472Y-116687312D01*
X124557509Y-116629693D01*
X124557505Y-116629688D01*
X124554595Y-116624892D01*
X124547197Y-116616516D01*
X124547223Y-116616493D01*
X124544574Y-116613503D01*
X124541866Y-116610264D01*
X124537856Y-116604148D01*
X124532549Y-116599121D01*
X124532546Y-116599117D01*
X124481617Y-116550872D01*
X124479175Y-116548494D01*
X124027770Y-116097089D01*
X124015384Y-116082677D01*
X124006851Y-116071082D01*
X124006846Y-116071077D01*
X124002508Y-116065182D01*
X123996930Y-116060443D01*
X123996927Y-116060440D01*
X123962232Y-116030965D01*
X123954716Y-116024035D01*
X123949021Y-116018340D01*
X123942880Y-116013482D01*
X123926749Y-116000719D01*
X123923345Y-115997928D01*
X123873297Y-115955409D01*
X123873295Y-115955408D01*
X123867715Y-115950667D01*
X123861199Y-115947339D01*
X123856150Y-115943972D01*
X123851021Y-115940805D01*
X123845284Y-115936266D01*
X123779125Y-115905345D01*
X123775225Y-115903439D01*
X123770999Y-115901281D01*
X123710192Y-115870231D01*
X123703084Y-115868492D01*
X123697441Y-115866393D01*
X123691678Y-115864476D01*
X123685050Y-115861378D01*
X123613583Y-115846513D01*
X123609299Y-115845543D01*
X123538390Y-115828192D01*
X123532788Y-115827844D01*
X123532785Y-115827844D01*
X123527236Y-115827500D01*
X123527238Y-115827464D01*
X123523245Y-115827225D01*
X123519053Y-115826851D01*
X123511885Y-115825360D01*
X123445675Y-115827151D01*
X123434479Y-115827454D01*
X123431072Y-115827500D01*
X123135965Y-115827500D01*
X123067844Y-115807498D01*
X123021351Y-115753842D01*
X123011247Y-115683568D01*
X123015600Y-115664241D01*
X123056311Y-115532725D01*
X123058133Y-115526840D01*
X123075749Y-115359234D01*
X123078879Y-115329449D01*
X123078879Y-115329447D01*
X123079523Y-115323320D01*
X123060976Y-115119522D01*
X123042092Y-115055357D01*
X123004938Y-114929120D01*
X123003198Y-114923207D01*
X122983637Y-114885789D01*
X122908388Y-114741853D01*
X122909934Y-114741045D01*
X122891769Y-114681040D01*
X122906929Y-114620057D01*
X122957421Y-114526673D01*
X122997619Y-114452329D01*
X123058133Y-114256840D01*
X123059643Y-114242478D01*
X123078879Y-114059449D01*
X123078879Y-114059447D01*
X123079523Y-114053320D01*
X123060976Y-113849522D01*
X123003198Y-113653207D01*
X122999200Y-113645558D01*
X122911240Y-113477309D01*
X122908388Y-113471853D01*
X122780160Y-113312369D01*
X122623396Y-113180828D01*
X122444067Y-113082242D01*
X122438200Y-113080381D01*
X122438198Y-113080380D01*
X122300323Y-113036643D01*
X122249006Y-113020364D01*
X122089744Y-113002500D01*
X121249505Y-113002500D01*
X121097336Y-113017420D01*
X120901429Y-113076568D01*
X120885180Y-113085208D01*
X120726184Y-113169747D01*
X120726181Y-113169749D01*
X120720742Y-113172641D01*
X120715972Y-113176531D01*
X120715968Y-113176534D01*
X120566932Y-113298085D01*
X120566929Y-113298088D01*
X120562157Y-113301980D01*
X120558230Y-113306728D01*
X120558228Y-113306729D01*
X120496935Y-113380819D01*
X120431713Y-113459659D01*
X120334381Y-113639671D01*
X120273867Y-113835160D01*
X120273224Y-113841282D01*
X120273223Y-113841285D01*
X120271712Y-113855661D01*
X120252477Y-114038680D01*
X120271024Y-114242478D01*
X120272764Y-114248388D01*
X120272764Y-114248391D01*
X120316185Y-114395926D01*
X120316229Y-114466922D01*
X120277883Y-114526673D01*
X120213321Y-114556206D01*
X120195311Y-114557500D01*
X117968371Y-114557500D01*
X117900250Y-114537498D01*
X117879276Y-114520595D01*
X117667671Y-114308990D01*
X117633645Y-114246678D01*
X117631245Y-114208913D01*
X117645019Y-114051475D01*
X117645498Y-114046000D01*
X117625543Y-113817913D01*
X117566284Y-113596757D01*
X117508041Y-113471853D01*
X117471849Y-113394238D01*
X117471846Y-113394233D01*
X117469523Y-113389251D01*
X117338198Y-113201700D01*
X117176300Y-113039802D01*
X117171792Y-113036645D01*
X117171789Y-113036643D01*
X117093611Y-112981902D01*
X116988749Y-112908477D01*
X116983767Y-112906154D01*
X116983762Y-112906151D01*
X116786225Y-112814039D01*
X116786224Y-112814039D01*
X116781243Y-112811716D01*
X116775935Y-112810294D01*
X116775933Y-112810293D01*
X116565402Y-112753881D01*
X116565400Y-112753881D01*
X116560087Y-112752457D01*
X116332000Y-112732502D01*
X116103913Y-112752457D01*
X116098600Y-112753881D01*
X116098598Y-112753881D01*
X115888067Y-112810293D01*
X115888065Y-112810294D01*
X115882757Y-112811716D01*
X115877776Y-112814039D01*
X115877775Y-112814039D01*
X115680238Y-112906151D01*
X115680233Y-112906154D01*
X115675251Y-112908477D01*
X115570389Y-112981902D01*
X115492211Y-113036643D01*
X115492208Y-113036645D01*
X115487700Y-113039802D01*
X115325802Y-113201700D01*
X115194477Y-113389251D01*
X115192154Y-113394233D01*
X115192151Y-113394238D01*
X115155959Y-113471853D01*
X115097716Y-113596757D01*
X115038457Y-113817913D01*
X115018502Y-114046000D01*
X115038457Y-114274087D01*
X115097716Y-114495243D01*
X115100039Y-114500224D01*
X115100039Y-114500225D01*
X115192151Y-114697762D01*
X115192154Y-114697767D01*
X115194477Y-114702749D01*
X115325802Y-114890300D01*
X115487700Y-115052198D01*
X115492208Y-115055355D01*
X115492211Y-115055357D01*
X115570389Y-115110098D01*
X115675251Y-115183523D01*
X115680233Y-115185846D01*
X115680238Y-115185849D01*
X115877775Y-115277961D01*
X115882757Y-115280284D01*
X115888065Y-115281706D01*
X115888067Y-115281707D01*
X116098598Y-115338119D01*
X116098600Y-115338119D01*
X116103913Y-115339543D01*
X116332000Y-115359498D01*
X116337475Y-115359019D01*
X116494913Y-115345245D01*
X116564518Y-115359234D01*
X116594990Y-115381671D01*
X117018230Y-115804911D01*
X117030616Y-115819323D01*
X117039149Y-115830918D01*
X117039154Y-115830923D01*
X117043492Y-115836818D01*
X117049070Y-115841557D01*
X117049073Y-115841560D01*
X117083768Y-115871035D01*
X117091284Y-115877965D01*
X117096979Y-115883660D01*
X117099861Y-115885940D01*
X117119251Y-115901281D01*
X117122655Y-115904072D01*
X117172703Y-115946591D01*
X117178285Y-115951333D01*
X117184801Y-115954661D01*
X117189850Y-115958028D01*
X117194979Y-115961195D01*
X117200716Y-115965734D01*
X117266875Y-115996655D01*
X117270769Y-115998558D01*
X117335808Y-116031769D01*
X117342916Y-116033508D01*
X117348559Y-116035607D01*
X117354322Y-116037524D01*
X117360950Y-116040622D01*
X117368112Y-116042112D01*
X117368113Y-116042112D01*
X117432412Y-116055486D01*
X117436696Y-116056456D01*
X117507610Y-116073808D01*
X117513212Y-116074156D01*
X117513215Y-116074156D01*
X117518764Y-116074500D01*
X117518762Y-116074536D01*
X117522755Y-116074775D01*
X117526947Y-116075149D01*
X117534115Y-116076640D01*
X117611520Y-116074546D01*
X117614928Y-116074500D01*
X120196035Y-116074500D01*
X120264156Y-116094502D01*
X120310649Y-116148158D01*
X120320753Y-116218432D01*
X120316401Y-116237756D01*
X120273867Y-116375160D01*
X120273224Y-116381282D01*
X120273223Y-116381285D01*
X120253121Y-116572551D01*
X120252477Y-116578680D01*
X120256683Y-116624892D01*
X120270444Y-116776101D01*
X120271024Y-116782478D01*
X120272762Y-116788384D01*
X120272763Y-116788388D01*
X120328127Y-116976499D01*
X120328172Y-117047496D01*
X120319140Y-117069284D01*
X120315385Y-117074295D01*
X120312236Y-117082696D01*
X120312234Y-117082699D01*
X120289961Y-117142114D01*
X120264255Y-117210684D01*
X120257500Y-117272866D01*
X120257500Y-118439134D01*
X120264255Y-118501316D01*
X120315385Y-118637705D01*
X120402739Y-118754261D01*
X120519295Y-118841615D01*
X120655684Y-118892745D01*
X120717866Y-118899500D01*
X122145394Y-118899500D01*
X122213515Y-118919502D01*
X122260008Y-118973158D01*
X122270112Y-119043432D01*
X122241425Y-119107072D01*
X122238971Y-119109961D01*
X122232035Y-119117484D01*
X122226340Y-119123179D01*
X122224060Y-119126061D01*
X122208719Y-119145451D01*
X122205928Y-119148855D01*
X122163409Y-119198903D01*
X122158667Y-119204485D01*
X122155339Y-119211001D01*
X122151972Y-119216050D01*
X122148805Y-119221179D01*
X122144266Y-119226916D01*
X122113345Y-119293075D01*
X122111442Y-119296969D01*
X122078231Y-119362008D01*
X122076492Y-119369116D01*
X122074393Y-119374759D01*
X122072476Y-119380522D01*
X122069378Y-119387150D01*
X122067888Y-119394312D01*
X122067888Y-119394313D01*
X122054514Y-119458612D01*
X122053544Y-119462896D01*
X122036192Y-119533810D01*
X122035500Y-119544964D01*
X122035464Y-119544962D01*
X122035225Y-119548955D01*
X122034851Y-119553147D01*
X122033360Y-119560315D01*
X122033558Y-119567632D01*
X122035454Y-119637721D01*
X122035500Y-119641128D01*
X122035500Y-120694753D01*
X122015498Y-120762874D01*
X122002916Y-120779308D01*
X121994346Y-120788776D01*
X121972139Y-120821700D01*
X121951729Y-120851959D01*
X121897053Y-120897248D01*
X121847270Y-120907500D01*
X121703685Y-120907500D01*
X121635564Y-120887498D01*
X121596715Y-120848083D01*
X121580674Y-120822312D01*
X121580669Y-120822305D01*
X121578303Y-120818504D01*
X121556435Y-120792488D01*
X121489031Y-120712301D01*
X121489030Y-120712300D01*
X121486146Y-120708869D01*
X121377561Y-120611782D01*
X121373828Y-120609297D01*
X121373824Y-120609294D01*
X121262065Y-120534901D01*
X121262063Y-120534900D01*
X121258336Y-120532419D01*
X121126867Y-120469711D01*
X121122588Y-120468374D01*
X121122585Y-120468373D01*
X121012688Y-120434039D01*
X120990161Y-120427001D01*
X120985737Y-120426284D01*
X120985735Y-120426284D01*
X120935619Y-120418167D01*
X120846379Y-120403713D01*
X120776498Y-120402432D01*
X120707661Y-120401170D01*
X120707659Y-120401170D01*
X120703180Y-120401088D01*
X120698735Y-120401641D01*
X120694256Y-120401878D01*
X120694249Y-120401751D01*
X120685861Y-120402271D01*
X120256200Y-120402271D01*
X120226013Y-120404430D01*
X120189827Y-120407018D01*
X120189826Y-120407018D01*
X120183089Y-120407500D01*
X120146760Y-120418167D01*
X120093332Y-120421988D01*
X119956200Y-120402271D01*
X119468878Y-120402271D01*
X119466569Y-120402250D01*
X119407653Y-120401170D01*
X119403180Y-120401088D01*
X119376350Y-120404430D01*
X119263072Y-120418540D01*
X119263068Y-120418541D01*
X119258635Y-120419093D01*
X119120455Y-120456766D01*
X119116338Y-120458548D01*
X119116334Y-120458549D01*
X118990904Y-120512827D01*
X118990899Y-120512829D01*
X118986780Y-120514612D01*
X118864728Y-120589552D01*
X118861280Y-120592415D01*
X118861278Y-120592416D01*
X118834348Y-120614774D01*
X118752660Y-120682592D01*
X118656546Y-120788776D01*
X118654039Y-120792492D01*
X118654038Y-120792494D01*
X118589958Y-120887498D01*
X118575093Y-120909536D01*
X118512646Y-121038428D01*
X118468362Y-121177188D01*
X118444600Y-121318426D01*
X118437518Y-121397373D01*
X118437367Y-121409715D01*
X118437525Y-121412137D01*
X118442205Y-121484036D01*
X118442471Y-121492221D01*
X118442471Y-121836519D01*
X118441967Y-121847777D01*
X118441619Y-121851662D01*
X118437518Y-121897373D01*
X118437367Y-121909715D01*
X118442517Y-121988829D01*
X118442862Y-121991238D01*
X118460621Y-122115243D01*
X118462821Y-122130606D01*
X118464080Y-122134911D01*
X118464081Y-122134916D01*
X118488185Y-122217344D01*
X118503703Y-122270410D01*
X118562983Y-122400789D01*
X118565395Y-122404560D01*
X118565399Y-122404568D01*
X118615313Y-122482615D01*
X118641458Y-122523497D01*
X118734948Y-122631998D01*
X118844711Y-122727750D01*
X118848472Y-122730188D01*
X118848475Y-122730190D01*
X118856143Y-122735160D01*
X118964896Y-122805650D01*
X118968957Y-122807526D01*
X118968958Y-122807527D01*
X118977743Y-122811586D01*
X119097124Y-122866748D01*
X119147519Y-122881819D01*
X119230044Y-122906499D01*
X119230049Y-122906500D01*
X119234342Y-122907784D01*
X119238774Y-122908446D01*
X119238777Y-122908447D01*
X119373965Y-122928650D01*
X119373968Y-122928650D01*
X119378396Y-122929312D01*
X119453055Y-122929768D01*
X119517145Y-122930160D01*
X119517150Y-122930160D01*
X119521617Y-122930187D01*
X119524061Y-122929852D01*
X119527856Y-122929729D01*
X119956200Y-122929729D01*
X119997698Y-122926761D01*
X120022573Y-122924982D01*
X120022574Y-122924982D01*
X120029311Y-122924500D01*
X120065640Y-122913833D01*
X120119068Y-122910012D01*
X120256200Y-122929729D01*
X120746208Y-122929729D01*
X120746978Y-122929731D01*
X120817131Y-122930160D01*
X120817137Y-122930160D01*
X120821617Y-122930187D01*
X120905707Y-122918669D01*
X120961476Y-122911030D01*
X120961480Y-122911029D01*
X120965927Y-122910420D01*
X121103636Y-122871063D01*
X121236598Y-122811586D01*
X121240380Y-122809200D01*
X121240387Y-122809196D01*
X121353936Y-122737551D01*
X121357726Y-122735160D01*
X121468652Y-122640754D01*
X121563460Y-122533403D01*
X121572448Y-122519721D01*
X121583814Y-122502417D01*
X121597670Y-122481323D01*
X121651788Y-122435369D01*
X121702982Y-122424500D01*
X121846964Y-122424500D01*
X121915085Y-122444502D01*
X121953113Y-122482615D01*
X121979258Y-122523497D01*
X122072748Y-122631998D01*
X122182511Y-122727750D01*
X122186272Y-122730188D01*
X122186275Y-122730190D01*
X122193943Y-122735160D01*
X122302696Y-122805650D01*
X122306757Y-122807526D01*
X122306758Y-122807527D01*
X122315543Y-122811586D01*
X122434924Y-122866748D01*
X122485319Y-122881819D01*
X122567844Y-122906499D01*
X122567849Y-122906500D01*
X122572142Y-122907784D01*
X122576574Y-122908446D01*
X122576577Y-122908447D01*
X122711765Y-122928650D01*
X122711768Y-122928650D01*
X122716196Y-122929312D01*
X122790855Y-122929768D01*
X122854945Y-122930160D01*
X122854950Y-122930160D01*
X122859417Y-122930187D01*
X122861861Y-122929852D01*
X122865656Y-122929729D01*
X123209500Y-122929729D01*
X123277621Y-122949731D01*
X123324114Y-123003387D01*
X123335500Y-123055729D01*
X123335500Y-123128930D01*
X123334067Y-123147880D01*
X123330801Y-123169349D01*
X123331394Y-123176641D01*
X123331394Y-123176644D01*
X123335085Y-123222018D01*
X123335500Y-123232233D01*
X123335500Y-123240293D01*
X123335925Y-123243937D01*
X123338789Y-123268507D01*
X123339222Y-123272882D01*
X123345140Y-123345637D01*
X123347396Y-123352601D01*
X123348587Y-123358560D01*
X123349971Y-123364415D01*
X123350818Y-123371681D01*
X123375735Y-123440327D01*
X123377152Y-123444455D01*
X123399649Y-123513899D01*
X123403445Y-123520154D01*
X123405951Y-123525628D01*
X123408670Y-123531058D01*
X123411167Y-123537937D01*
X123415180Y-123544057D01*
X123415180Y-123544058D01*
X123451186Y-123598976D01*
X123453523Y-123602680D01*
X123491405Y-123665107D01*
X123495121Y-123669315D01*
X123495122Y-123669316D01*
X123498803Y-123673484D01*
X123498776Y-123673508D01*
X123501429Y-123676500D01*
X123504132Y-123679733D01*
X123508144Y-123685852D01*
X123513456Y-123690884D01*
X123564383Y-123739128D01*
X123566825Y-123741506D01*
X124295724Y-124470405D01*
X124329750Y-124532717D01*
X124324685Y-124603532D01*
X124282138Y-124660368D01*
X124215618Y-124685179D01*
X124206629Y-124685500D01*
X123347866Y-124685500D01*
X123285684Y-124692255D01*
X123149295Y-124743385D01*
X123032739Y-124830739D01*
X122945385Y-124947295D01*
X122894255Y-125083684D01*
X122893083Y-125094474D01*
X122892197Y-125096606D01*
X122891575Y-125099222D01*
X122891152Y-125099121D01*
X122865845Y-125160035D01*
X122807483Y-125200463D01*
X122736529Y-125202922D01*
X122675510Y-125166629D01*
X122668511Y-125157969D01*
X122665354Y-125154207D01*
X122662198Y-125149700D01*
X122500300Y-124987802D01*
X122495792Y-124984645D01*
X122495789Y-124984643D01*
X122417611Y-124929902D01*
X122312749Y-124856477D01*
X122307767Y-124854154D01*
X122307762Y-124854151D01*
X122110225Y-124762039D01*
X122110224Y-124762039D01*
X122105243Y-124759716D01*
X122099935Y-124758294D01*
X122099933Y-124758293D01*
X121889402Y-124701881D01*
X121889400Y-124701881D01*
X121884087Y-124700457D01*
X121656000Y-124680502D01*
X121650525Y-124680981D01*
X121493087Y-124694755D01*
X121423482Y-124680766D01*
X121393010Y-124658329D01*
X120588770Y-123854089D01*
X120576384Y-123839677D01*
X120567851Y-123828082D01*
X120567846Y-123828077D01*
X120563508Y-123822182D01*
X120557930Y-123817443D01*
X120557927Y-123817440D01*
X120523232Y-123787965D01*
X120515716Y-123781035D01*
X120510021Y-123775340D01*
X120490556Y-123759940D01*
X120487749Y-123757719D01*
X120484345Y-123754928D01*
X120434297Y-123712409D01*
X120434295Y-123712408D01*
X120428715Y-123707667D01*
X120422199Y-123704339D01*
X120417150Y-123700972D01*
X120412021Y-123697805D01*
X120406284Y-123693266D01*
X120340125Y-123662345D01*
X120336225Y-123660439D01*
X120271192Y-123627231D01*
X120264084Y-123625492D01*
X120258441Y-123623393D01*
X120252678Y-123621476D01*
X120246050Y-123618378D01*
X120174583Y-123603513D01*
X120170299Y-123602543D01*
X120163225Y-123600812D01*
X120099390Y-123585192D01*
X120093788Y-123584844D01*
X120093785Y-123584844D01*
X120088236Y-123584500D01*
X120088238Y-123584464D01*
X120084245Y-123584225D01*
X120080053Y-123583851D01*
X120072885Y-123582360D01*
X120006675Y-123584151D01*
X119995479Y-123584454D01*
X119992072Y-123584500D01*
X119375371Y-123584500D01*
X119307250Y-123564498D01*
X119286276Y-123547595D01*
X117667671Y-121928990D01*
X117633645Y-121866678D01*
X117631245Y-121828913D01*
X117645019Y-121671475D01*
X117645498Y-121666000D01*
X117625543Y-121437913D01*
X117566284Y-121216757D01*
X117499367Y-121073252D01*
X117471849Y-121014238D01*
X117471846Y-121014233D01*
X117469523Y-121009251D01*
X117338198Y-120821700D01*
X117176300Y-120659802D01*
X117171792Y-120656645D01*
X117171789Y-120656643D01*
X117075973Y-120589552D01*
X116988749Y-120528477D01*
X116983767Y-120526154D01*
X116983762Y-120526151D01*
X116786225Y-120434039D01*
X116786224Y-120434039D01*
X116781243Y-120431716D01*
X116775935Y-120430294D01*
X116775933Y-120430293D01*
X116565402Y-120373881D01*
X116565400Y-120373881D01*
X116560087Y-120372457D01*
X116332000Y-120352502D01*
X116103913Y-120372457D01*
X116098600Y-120373881D01*
X116098598Y-120373881D01*
X115888067Y-120430293D01*
X115888065Y-120430294D01*
X115882757Y-120431716D01*
X115877776Y-120434039D01*
X115877775Y-120434039D01*
X115680238Y-120526151D01*
X115680233Y-120526154D01*
X115675251Y-120528477D01*
X115588027Y-120589552D01*
X115492211Y-120656643D01*
X115492208Y-120656645D01*
X115487700Y-120659802D01*
X115325802Y-120821700D01*
X115194477Y-121009251D01*
X115192154Y-121014233D01*
X115192151Y-121014238D01*
X115164633Y-121073252D01*
X115097716Y-121216757D01*
X115038457Y-121437913D01*
X115018502Y-121666000D01*
X115038457Y-121894087D01*
X115082813Y-122059623D01*
X115081123Y-122130600D01*
X115041329Y-122189396D01*
X114976065Y-122217344D01*
X114906051Y-122205571D01*
X114872011Y-122181330D01*
X114619671Y-121928990D01*
X114585645Y-121866678D01*
X114583245Y-121828913D01*
X114597019Y-121671475D01*
X114597498Y-121666000D01*
X114577543Y-121437913D01*
X114518284Y-121216757D01*
X114451367Y-121073252D01*
X114423849Y-121014238D01*
X114423846Y-121014233D01*
X114421523Y-121009251D01*
X114290198Y-120821700D01*
X114128300Y-120659802D01*
X114123792Y-120656645D01*
X114123789Y-120656643D01*
X114027973Y-120589552D01*
X113940749Y-120528477D01*
X113935767Y-120526154D01*
X113935762Y-120526151D01*
X113738225Y-120434039D01*
X113738224Y-120434039D01*
X113733243Y-120431716D01*
X113727935Y-120430294D01*
X113727933Y-120430293D01*
X113517402Y-120373881D01*
X113517400Y-120373881D01*
X113512087Y-120372457D01*
X113284000Y-120352502D01*
X113055913Y-120372457D01*
X113050600Y-120373881D01*
X113050598Y-120373881D01*
X112840067Y-120430293D01*
X112840065Y-120430294D01*
X112834757Y-120431716D01*
X112829776Y-120434039D01*
X112829775Y-120434039D01*
X112632238Y-120526151D01*
X112632233Y-120526154D01*
X112627251Y-120528477D01*
X112540027Y-120589552D01*
X112444211Y-120656643D01*
X112444208Y-120656645D01*
X112439700Y-120659802D01*
X112277802Y-120821700D01*
X112146477Y-121009251D01*
X112144154Y-121014233D01*
X112144151Y-121014238D01*
X112116633Y-121073252D01*
X112049716Y-121216757D01*
X111990457Y-121437913D01*
X111970502Y-121666000D01*
X111990457Y-121894087D01*
X111991880Y-121899399D01*
X111991881Y-121899402D01*
X112034813Y-122059623D01*
X112049716Y-122115243D01*
X112052039Y-122120224D01*
X112052039Y-122120225D01*
X112144151Y-122317762D01*
X112144154Y-122317767D01*
X112146477Y-122322749D01*
X112205894Y-122407605D01*
X112258417Y-122482615D01*
X112277802Y-122510300D01*
X112439700Y-122672198D01*
X112444208Y-122675355D01*
X112444211Y-122675357D01*
X112514826Y-122724802D01*
X112627251Y-122803523D01*
X112632233Y-122805846D01*
X112632238Y-122805849D01*
X112774738Y-122872297D01*
X112834757Y-122900284D01*
X112840065Y-122901706D01*
X112840067Y-122901707D01*
X113050598Y-122958119D01*
X113050600Y-122958119D01*
X113055913Y-122959543D01*
X113284000Y-122979498D01*
X113289475Y-122979019D01*
X113446913Y-122965245D01*
X113516518Y-122979234D01*
X113546990Y-123001671D01*
X114224230Y-123678911D01*
X114236616Y-123693323D01*
X114245149Y-123704918D01*
X114245154Y-123704923D01*
X114249492Y-123710818D01*
X114255070Y-123715557D01*
X114255073Y-123715560D01*
X114289768Y-123745035D01*
X114297284Y-123751965D01*
X114302979Y-123757660D01*
X114305861Y-123759940D01*
X114325251Y-123775281D01*
X114328655Y-123778072D01*
X114340300Y-123787965D01*
X114384285Y-123825333D01*
X114390801Y-123828661D01*
X114395838Y-123832020D01*
X114400977Y-123835194D01*
X114406716Y-123839734D01*
X114413349Y-123842834D01*
X114472837Y-123870636D01*
X114476791Y-123872569D01*
X114541808Y-123905769D01*
X114548924Y-123907510D01*
X114554554Y-123909604D01*
X114560321Y-123911523D01*
X114566950Y-123914621D01*
X114574110Y-123916110D01*
X114574112Y-123916111D01*
X114638396Y-123929482D01*
X114642680Y-123930452D01*
X114713610Y-123947808D01*
X114719212Y-123948156D01*
X114719215Y-123948156D01*
X114724764Y-123948500D01*
X114724762Y-123948536D01*
X114728752Y-123948775D01*
X114732950Y-123949150D01*
X114740115Y-123950640D01*
X114817520Y-123948546D01*
X114820928Y-123948500D01*
X115945629Y-123948500D01*
X116013750Y-123968502D01*
X116034724Y-123985405D01*
X116526842Y-124477523D01*
X116560868Y-124539835D01*
X116555803Y-124610650D01*
X116513256Y-124667486D01*
X116448728Y-124692139D01*
X116353480Y-124700472D01*
X116342688Y-124702375D01*
X116132239Y-124758764D01*
X116121947Y-124762510D01*
X115924489Y-124854586D01*
X115914993Y-124860069D01*
X115736533Y-124985028D01*
X115728125Y-124992084D01*
X115574084Y-125146125D01*
X115567028Y-125154533D01*
X115442069Y-125332993D01*
X115436586Y-125342489D01*
X115344510Y-125539947D01*
X115340764Y-125550239D01*
X115294606Y-125722503D01*
X115294942Y-125736599D01*
X115302884Y-125740000D01*
X116704000Y-125740000D01*
X116772121Y-125760002D01*
X116818614Y-125813658D01*
X116830000Y-125866000D01*
X116830000Y-127261967D01*
X116833973Y-127275498D01*
X116842522Y-127276727D01*
X117019761Y-127229236D01*
X117030053Y-127225490D01*
X117227511Y-127133414D01*
X117237007Y-127127931D01*
X117415467Y-127002972D01*
X117423875Y-126995916D01*
X117577916Y-126841875D01*
X117584972Y-126833467D01*
X117709931Y-126655007D01*
X117715414Y-126645511D01*
X117731529Y-126610951D01*
X117778446Y-126557666D01*
X117846723Y-126538205D01*
X117914683Y-126558747D01*
X117959919Y-126610951D01*
X117976151Y-126645762D01*
X117976154Y-126645767D01*
X117978477Y-126650749D01*
X118109802Y-126838300D01*
X118271700Y-127000198D01*
X118276208Y-127003355D01*
X118276211Y-127003357D01*
X118317542Y-127032297D01*
X118459251Y-127131523D01*
X118464233Y-127133846D01*
X118464238Y-127133849D01*
X118660765Y-127225490D01*
X118666757Y-127228284D01*
X118672065Y-127229706D01*
X118672067Y-127229707D01*
X118882598Y-127286119D01*
X118882600Y-127286119D01*
X118887913Y-127287543D01*
X119116000Y-127307498D01*
X119344087Y-127287543D01*
X119349400Y-127286119D01*
X119349402Y-127286119D01*
X119559933Y-127229707D01*
X119559935Y-127229706D01*
X119565243Y-127228284D01*
X119571235Y-127225490D01*
X119767762Y-127133849D01*
X119767767Y-127133846D01*
X119772749Y-127131523D01*
X119914458Y-127032297D01*
X119955789Y-127003357D01*
X119955792Y-127003355D01*
X119960300Y-127000198D01*
X120122198Y-126838300D01*
X120253523Y-126650749D01*
X120255846Y-126645767D01*
X120255849Y-126645762D01*
X120271805Y-126611543D01*
X120318722Y-126558258D01*
X120386999Y-126538797D01*
X120454959Y-126559339D01*
X120500195Y-126611543D01*
X120516151Y-126645762D01*
X120516154Y-126645767D01*
X120518477Y-126650749D01*
X120649802Y-126838300D01*
X120811700Y-127000198D01*
X120816208Y-127003355D01*
X120816211Y-127003357D01*
X120857542Y-127032297D01*
X120999251Y-127131523D01*
X121004233Y-127133846D01*
X121004238Y-127133849D01*
X121200765Y-127225490D01*
X121206757Y-127228284D01*
X121212065Y-127229706D01*
X121212067Y-127229707D01*
X121422598Y-127286119D01*
X121422600Y-127286119D01*
X121427913Y-127287543D01*
X121656000Y-127307498D01*
X121884087Y-127287543D01*
X121889400Y-127286119D01*
X121889402Y-127286119D01*
X122099933Y-127229707D01*
X122099935Y-127229706D01*
X122105243Y-127228284D01*
X122111235Y-127225490D01*
X122307762Y-127133849D01*
X122307767Y-127133846D01*
X122312749Y-127131523D01*
X122454458Y-127032297D01*
X122495789Y-127003357D01*
X122495792Y-127003355D01*
X122500300Y-127000198D01*
X122662198Y-126838300D01*
X122665357Y-126833789D01*
X122668892Y-126829576D01*
X122670026Y-126830527D01*
X122720071Y-126790529D01*
X122790690Y-126783224D01*
X122854049Y-126815258D01*
X122890030Y-126876462D01*
X122893082Y-126893517D01*
X122894255Y-126904316D01*
X122945385Y-127040705D01*
X123032739Y-127157261D01*
X123149295Y-127244615D01*
X123285684Y-127295745D01*
X123347866Y-127302500D01*
X125044134Y-127302500D01*
X125047529Y-127302131D01*
X125047533Y-127302131D01*
X125085893Y-127297964D01*
X125155776Y-127310493D01*
X125207791Y-127358814D01*
X125225500Y-127423227D01*
X125225500Y-131459629D01*
X125205498Y-131527750D01*
X125188595Y-131548724D01*
X124458990Y-132278329D01*
X124396678Y-132312355D01*
X124358913Y-132314755D01*
X124201475Y-132300981D01*
X124196000Y-132300502D01*
X123967913Y-132320457D01*
X123962600Y-132321881D01*
X123962598Y-132321881D01*
X123752067Y-132378293D01*
X123752065Y-132378294D01*
X123746757Y-132379716D01*
X123741776Y-132382039D01*
X123741775Y-132382039D01*
X123544238Y-132474151D01*
X123544233Y-132474154D01*
X123539251Y-132476477D01*
X123462970Y-132529890D01*
X123356211Y-132604643D01*
X123356208Y-132604645D01*
X123351700Y-132607802D01*
X123189802Y-132769700D01*
X123058477Y-132957251D01*
X123056154Y-132962233D01*
X123056151Y-132962238D01*
X123040195Y-132996457D01*
X122993278Y-133049742D01*
X122925001Y-133069203D01*
X122857041Y-133048661D01*
X122811805Y-132996457D01*
X122795849Y-132962238D01*
X122795846Y-132962233D01*
X122793523Y-132957251D01*
X122662198Y-132769700D01*
X122500300Y-132607802D01*
X122495792Y-132604645D01*
X122495789Y-132604643D01*
X122389030Y-132529890D01*
X122312749Y-132476477D01*
X122307767Y-132474154D01*
X122307762Y-132474151D01*
X122110225Y-132382039D01*
X122110224Y-132382039D01*
X122105243Y-132379716D01*
X122099935Y-132378294D01*
X122099933Y-132378293D01*
X121889402Y-132321881D01*
X121889400Y-132321881D01*
X121884087Y-132320457D01*
X121656000Y-132300502D01*
X121427913Y-132320457D01*
X121422600Y-132321881D01*
X121422598Y-132321881D01*
X121212067Y-132378293D01*
X121212065Y-132378294D01*
X121206757Y-132379716D01*
X121201776Y-132382039D01*
X121201775Y-132382039D01*
X121004238Y-132474151D01*
X121004233Y-132474154D01*
X120999251Y-132476477D01*
X120922970Y-132529890D01*
X120816211Y-132604643D01*
X120816208Y-132604645D01*
X120811700Y-132607802D01*
X120649802Y-132769700D01*
X120518477Y-132957251D01*
X120516154Y-132962233D01*
X120516151Y-132962238D01*
X120500195Y-132996457D01*
X120453278Y-133049742D01*
X120385001Y-133069203D01*
X120317041Y-133048661D01*
X120271805Y-132996457D01*
X120255849Y-132962238D01*
X120255846Y-132962233D01*
X120253523Y-132957251D01*
X120122198Y-132769700D01*
X119960300Y-132607802D01*
X119928229Y-132585345D01*
X119883901Y-132529890D01*
X119874500Y-132482133D01*
X119874500Y-131197742D01*
X119875933Y-131178793D01*
X119878097Y-131164565D01*
X119879198Y-131157330D01*
X119877089Y-131131392D01*
X119874915Y-131104670D01*
X119874500Y-131094456D01*
X119874500Y-131086386D01*
X119874078Y-131082766D01*
X119874077Y-131082748D01*
X119871208Y-131058140D01*
X119870775Y-131053765D01*
X119865454Y-130988340D01*
X119865453Y-130988337D01*
X119864860Y-130981042D01*
X119862604Y-130974078D01*
X119861413Y-130968119D01*
X119860029Y-130962264D01*
X119859182Y-130954998D01*
X119834265Y-130886352D01*
X119832848Y-130882224D01*
X119812607Y-130819743D01*
X119812606Y-130819741D01*
X119810351Y-130812780D01*
X119806555Y-130806525D01*
X119804049Y-130801051D01*
X119801330Y-130795621D01*
X119798833Y-130788742D01*
X119758809Y-130727695D01*
X119756472Y-130723991D01*
X119721509Y-130666372D01*
X119721505Y-130666367D01*
X119718595Y-130661571D01*
X119714720Y-130657183D01*
X119711197Y-130653195D01*
X119711223Y-130653172D01*
X119708574Y-130650182D01*
X119705866Y-130646943D01*
X119701856Y-130640827D01*
X119696549Y-130635800D01*
X119696546Y-130635796D01*
X119645617Y-130587551D01*
X119643175Y-130585173D01*
X116358905Y-127300903D01*
X116324879Y-127238591D01*
X116322000Y-127211808D01*
X116322000Y-126266115D01*
X116317525Y-126250876D01*
X116316135Y-126249671D01*
X116308452Y-126248000D01*
X115358192Y-126248000D01*
X115290071Y-126227998D01*
X115269097Y-126211095D01*
X111438207Y-122380205D01*
X111404181Y-122317893D01*
X111409246Y-122247078D01*
X111413107Y-122237861D01*
X111467958Y-122120232D01*
X111467961Y-122120225D01*
X111470284Y-122115243D01*
X111504157Y-121988829D01*
X111528119Y-121899402D01*
X111528120Y-121899399D01*
X111529543Y-121894087D01*
X111549498Y-121666000D01*
X111529543Y-121437913D01*
X111470284Y-121216757D01*
X111403367Y-121073252D01*
X111375849Y-121014238D01*
X111375846Y-121014233D01*
X111373523Y-121009251D01*
X111242198Y-120821700D01*
X111080300Y-120659802D01*
X111075792Y-120656645D01*
X111075789Y-120656643D01*
X110979973Y-120589552D01*
X110892749Y-120528477D01*
X110887767Y-120526154D01*
X110887762Y-120526151D01*
X110690225Y-120434039D01*
X110690224Y-120434039D01*
X110685243Y-120431716D01*
X110679935Y-120430294D01*
X110679933Y-120430293D01*
X110469402Y-120373881D01*
X110469400Y-120373881D01*
X110464087Y-120372457D01*
X110236000Y-120352502D01*
X110007913Y-120372457D01*
X110002600Y-120373881D01*
X110002598Y-120373881D01*
X109792067Y-120430293D01*
X109792065Y-120430294D01*
X109786757Y-120431716D01*
X109781776Y-120434039D01*
X109781775Y-120434039D01*
X109584238Y-120526151D01*
X109584233Y-120526154D01*
X109579251Y-120528477D01*
X109492027Y-120589552D01*
X109396211Y-120656643D01*
X109396208Y-120656645D01*
X109391700Y-120659802D01*
X109229802Y-120821700D01*
X109098477Y-121009251D01*
X109096154Y-121014233D01*
X109096151Y-121014238D01*
X109068633Y-121073252D01*
X109001716Y-121216757D01*
X108942457Y-121437913D01*
X108922502Y-121666000D01*
X108942457Y-121894087D01*
X108943880Y-121899399D01*
X108943881Y-121899402D01*
X108986813Y-122059623D01*
X109001716Y-122115243D01*
X109004039Y-122120224D01*
X109004039Y-122120225D01*
X109096151Y-122317762D01*
X109096154Y-122317767D01*
X109098477Y-122322749D01*
X109157894Y-122407605D01*
X109210417Y-122482615D01*
X109229802Y-122510300D01*
X109391700Y-122672198D01*
X109396208Y-122675355D01*
X109396211Y-122675357D01*
X109466826Y-122724802D01*
X109579251Y-122803523D01*
X109584233Y-122805846D01*
X109584238Y-122805849D01*
X109689591Y-122854975D01*
X109786757Y-122900284D01*
X109792068Y-122901707D01*
X109797241Y-122903590D01*
X109796706Y-122905061D01*
X109846376Y-122933736D01*
X110312004Y-123399364D01*
X110346030Y-123461676D01*
X110340965Y-123532491D01*
X110298418Y-123589327D01*
X110262054Y-123608224D01*
X110215756Y-123623357D01*
X110017607Y-123726507D01*
X110013474Y-123729610D01*
X110013471Y-123729612D01*
X109847683Y-123854089D01*
X109838965Y-123860635D01*
X109835393Y-123864373D01*
X109689893Y-124016630D01*
X109684629Y-124022138D01*
X109558743Y-124206680D01*
X109464688Y-124409305D01*
X109404989Y-124624570D01*
X109381251Y-124846695D01*
X109394110Y-125069715D01*
X109395247Y-125074761D01*
X109395248Y-125074767D01*
X109413225Y-125154533D01*
X109443222Y-125287639D01*
X109527266Y-125494616D01*
X109643987Y-125685088D01*
X109790250Y-125853938D01*
X109962126Y-125996632D01*
X110032595Y-126037811D01*
X110035445Y-126039476D01*
X110084169Y-126091114D01*
X110097240Y-126160897D01*
X110070509Y-126226669D01*
X110030055Y-126260027D01*
X110017607Y-126266507D01*
X110013474Y-126269610D01*
X110013471Y-126269612D01*
X109959746Y-126309950D01*
X109838965Y-126400635D01*
X109835393Y-126404373D01*
X109688903Y-126557666D01*
X109684629Y-126562138D01*
X109681715Y-126566410D01*
X109681714Y-126566411D01*
X109596556Y-126691249D01*
X109558743Y-126746680D01*
X109556564Y-126751375D01*
X109482137Y-126911715D01*
X109464688Y-126949305D01*
X109404989Y-127164570D01*
X109381251Y-127386695D01*
X109394110Y-127609715D01*
X109395247Y-127614761D01*
X109395248Y-127614767D01*
X109415119Y-127702937D01*
X109443222Y-127827639D01*
X109527266Y-128034616D01*
X109643987Y-128225088D01*
X109790250Y-128393938D01*
X109962126Y-128536632D01*
X110035955Y-128579774D01*
X110084679Y-128631412D01*
X110097750Y-128701195D01*
X110071019Y-128766967D01*
X110030562Y-128800327D01*
X110022457Y-128804546D01*
X110013738Y-128810036D01*
X109843433Y-128937905D01*
X109835726Y-128944748D01*
X109688590Y-129098717D01*
X109682104Y-129106727D01*
X109562098Y-129282649D01*
X109557000Y-129291623D01*
X109467338Y-129484783D01*
X109463775Y-129494470D01*
X109408389Y-129694183D01*
X109409912Y-129702607D01*
X109422292Y-129706000D01*
X112062344Y-129706000D01*
X112075875Y-129702027D01*
X112077180Y-129692947D01*
X112035214Y-129525875D01*
X112031894Y-129516124D01*
X111946972Y-129320814D01*
X111942105Y-129311739D01*
X111826426Y-129132926D01*
X111820136Y-129124757D01*
X111676806Y-128967240D01*
X111669273Y-128960215D01*
X111502139Y-128828222D01*
X111493556Y-128822520D01*
X111456602Y-128802120D01*
X111406631Y-128751687D01*
X111391859Y-128682245D01*
X111416975Y-128615839D01*
X111444327Y-128589232D01*
X111467797Y-128572491D01*
X111623860Y-128461173D01*
X111782096Y-128303489D01*
X111841594Y-128220689D01*
X111909435Y-128126277D01*
X111912453Y-128122077D01*
X112011430Y-127921811D01*
X112076370Y-127708069D01*
X112092233Y-127587580D01*
X112120956Y-127522652D01*
X112180221Y-127483561D01*
X112251212Y-127482716D01*
X112306250Y-127514931D01*
X115780595Y-130989276D01*
X115814621Y-131051588D01*
X115817500Y-131078371D01*
X115817500Y-132482133D01*
X115797498Y-132550254D01*
X115763772Y-132585345D01*
X115731700Y-132607802D01*
X115569802Y-132769700D01*
X115438477Y-132957251D01*
X115436154Y-132962233D01*
X115436151Y-132962238D01*
X115420195Y-132996457D01*
X115341716Y-133164757D01*
X115282457Y-133385913D01*
X115262502Y-133614000D01*
X115282457Y-133842087D01*
X115283881Y-133847400D01*
X115283881Y-133847402D01*
X115284302Y-133848971D01*
X115341716Y-134063243D01*
X115344039Y-134068224D01*
X115344039Y-134068225D01*
X115436151Y-134265762D01*
X115436154Y-134265767D01*
X115438477Y-134270749D01*
X115569802Y-134458300D01*
X115731700Y-134620198D01*
X115773771Y-134649657D01*
X115818099Y-134705112D01*
X115827500Y-134752869D01*
X115827500Y-135520133D01*
X115807498Y-135588254D01*
X115773772Y-135623345D01*
X115741700Y-135645802D01*
X115579802Y-135807700D01*
X115448477Y-135995251D01*
X115446154Y-136000233D01*
X115446151Y-136000238D01*
X115430598Y-136033592D01*
X115351716Y-136202757D01*
X115292457Y-136423913D01*
X115272502Y-136652000D01*
X115292457Y-136880087D01*
X115351716Y-137101243D01*
X115354039Y-137106224D01*
X115354039Y-137106225D01*
X115446151Y-137303762D01*
X115446154Y-137303767D01*
X115448477Y-137308749D01*
X115579802Y-137496300D01*
X115741700Y-137658198D01*
X115746208Y-137661355D01*
X115746211Y-137661357D01*
X115824389Y-137716098D01*
X115929251Y-137789523D01*
X115934233Y-137791846D01*
X115934238Y-137791849D01*
X116131775Y-137883961D01*
X116136757Y-137886284D01*
X116142065Y-137887706D01*
X116142067Y-137887707D01*
X116352598Y-137944119D01*
X116352600Y-137944119D01*
X116357913Y-137945543D01*
X116586000Y-137965498D01*
X116814087Y-137945543D01*
X116819400Y-137944119D01*
X116819402Y-137944119D01*
X117029933Y-137887707D01*
X117029935Y-137887706D01*
X117035243Y-137886284D01*
X117040225Y-137883961D01*
X117237762Y-137791849D01*
X117237767Y-137791846D01*
X117242749Y-137789523D01*
X117347611Y-137716098D01*
X117425789Y-137661357D01*
X117425792Y-137661355D01*
X117430300Y-137658198D01*
X117592198Y-137496300D01*
X117651043Y-137412261D01*
X121056294Y-137412261D01*
X121065590Y-137424276D01*
X121095189Y-137445001D01*
X121104677Y-137450479D01*
X121286277Y-137535159D01*
X121296571Y-137538907D01*
X121490122Y-137590769D01*
X121500909Y-137592671D01*
X121700525Y-137610135D01*
X121711475Y-137610135D01*
X121911091Y-137592671D01*
X121921878Y-137590769D01*
X122115429Y-137538907D01*
X122125723Y-137535159D01*
X122307323Y-137450479D01*
X122316811Y-137445001D01*
X122347248Y-137423689D01*
X122355623Y-137413212D01*
X122348554Y-137399764D01*
X121718812Y-136770022D01*
X121704868Y-136762408D01*
X121703035Y-136762539D01*
X121696420Y-136766790D01*
X121062724Y-137400486D01*
X121056294Y-137412261D01*
X117651043Y-137412261D01*
X117723523Y-137308749D01*
X117725846Y-137303767D01*
X117725849Y-137303762D01*
X117817961Y-137106225D01*
X117817961Y-137106224D01*
X117820284Y-137101243D01*
X117879543Y-136880087D01*
X117899498Y-136652000D01*
X117879543Y-136423913D01*
X117874067Y-136403475D01*
X120493865Y-136403475D01*
X120511329Y-136603091D01*
X120513231Y-136613878D01*
X120565093Y-136807429D01*
X120568841Y-136817723D01*
X120653521Y-136999323D01*
X120658999Y-137008811D01*
X120680311Y-137039248D01*
X120690788Y-137047623D01*
X120704236Y-137040554D01*
X121333978Y-136410812D01*
X121340356Y-136399132D01*
X122070408Y-136399132D01*
X122070539Y-136400965D01*
X122074790Y-136407580D01*
X122708486Y-137041276D01*
X122720261Y-137047706D01*
X122732276Y-137038410D01*
X122753001Y-137008811D01*
X122758479Y-136999323D01*
X122841529Y-136821220D01*
X122888446Y-136767934D01*
X122956723Y-136748473D01*
X123024683Y-136769015D01*
X123069918Y-136821218D01*
X123155411Y-137004558D01*
X123276699Y-137177776D01*
X123426224Y-137327301D01*
X123599442Y-137448589D01*
X123604420Y-137450910D01*
X123604423Y-137450912D01*
X123785092Y-137535159D01*
X123791090Y-137537956D01*
X123796398Y-137539378D01*
X123796400Y-137539379D01*
X123990030Y-137591262D01*
X123990032Y-137591262D01*
X123995345Y-137592686D01*
X124206000Y-137611116D01*
X124416655Y-137592686D01*
X124421968Y-137591262D01*
X124421970Y-137591262D01*
X124615600Y-137539379D01*
X124615602Y-137539378D01*
X124620910Y-137537956D01*
X124626908Y-137535159D01*
X124807577Y-137450912D01*
X124807580Y-137450910D01*
X124812558Y-137448589D01*
X124985776Y-137327301D01*
X125135301Y-137177776D01*
X125256589Y-137004558D01*
X125312153Y-136885402D01*
X125343633Y-136817892D01*
X125343634Y-136817891D01*
X125345956Y-136812910D01*
X125400686Y-136608655D01*
X125419116Y-136398000D01*
X125400686Y-136187345D01*
X125345956Y-135983090D01*
X125343633Y-135978108D01*
X125258912Y-135796423D01*
X125258910Y-135796420D01*
X125256589Y-135791442D01*
X125135301Y-135618224D01*
X124985776Y-135468699D01*
X124812558Y-135347411D01*
X124807580Y-135345090D01*
X124807577Y-135345088D01*
X124625892Y-135260367D01*
X124625891Y-135260366D01*
X124620910Y-135258044D01*
X124615602Y-135256622D01*
X124615600Y-135256621D01*
X124421970Y-135204738D01*
X124421968Y-135204738D01*
X124416655Y-135203314D01*
X124206000Y-135184884D01*
X123995345Y-135203314D01*
X123990032Y-135204738D01*
X123990030Y-135204738D01*
X123796400Y-135256621D01*
X123796398Y-135256622D01*
X123791090Y-135258044D01*
X123786109Y-135260366D01*
X123786108Y-135260367D01*
X123604423Y-135345088D01*
X123604420Y-135345090D01*
X123599442Y-135347411D01*
X123426224Y-135468699D01*
X123276699Y-135618224D01*
X123155411Y-135791442D01*
X123153090Y-135796420D01*
X123153088Y-135796423D01*
X123069919Y-135974781D01*
X123023002Y-136028066D01*
X122954725Y-136047527D01*
X122886765Y-136026985D01*
X122841529Y-135974780D01*
X122758479Y-135796677D01*
X122753001Y-135787189D01*
X122731689Y-135756752D01*
X122721212Y-135748377D01*
X122707764Y-135755446D01*
X122078022Y-136385188D01*
X122070408Y-136399132D01*
X121340356Y-136399132D01*
X121341592Y-136396868D01*
X121341461Y-136395035D01*
X121337210Y-136388420D01*
X120703514Y-135754724D01*
X120691739Y-135748294D01*
X120679724Y-135757590D01*
X120658999Y-135787189D01*
X120653521Y-135796677D01*
X120568841Y-135978277D01*
X120565093Y-135988571D01*
X120513231Y-136182122D01*
X120511329Y-136192909D01*
X120493865Y-136392525D01*
X120493865Y-136403475D01*
X117874067Y-136403475D01*
X117820284Y-136202757D01*
X117741402Y-136033592D01*
X117725849Y-136000238D01*
X117725846Y-136000233D01*
X117723523Y-135995251D01*
X117592198Y-135807700D01*
X117430300Y-135645802D01*
X117398229Y-135623345D01*
X117353901Y-135567890D01*
X117344500Y-135520133D01*
X117344500Y-135382788D01*
X121056377Y-135382788D01*
X121063446Y-135396236D01*
X121693188Y-136025978D01*
X121707132Y-136033592D01*
X121708965Y-136033461D01*
X121715580Y-136029210D01*
X122349276Y-135395514D01*
X122355706Y-135383739D01*
X122346410Y-135371724D01*
X122316811Y-135350999D01*
X122307323Y-135345521D01*
X122125723Y-135260841D01*
X122115429Y-135257093D01*
X121921878Y-135205231D01*
X121911091Y-135203329D01*
X121711475Y-135185865D01*
X121700525Y-135185865D01*
X121500909Y-135203329D01*
X121490122Y-135205231D01*
X121296571Y-135257093D01*
X121286277Y-135260841D01*
X121104677Y-135345521D01*
X121095189Y-135350999D01*
X121064752Y-135372311D01*
X121056377Y-135382788D01*
X117344500Y-135382788D01*
X117344500Y-134738865D01*
X117364502Y-134670744D01*
X117398228Y-134635653D01*
X117420300Y-134620198D01*
X117582198Y-134458300D01*
X117713523Y-134270749D01*
X117715846Y-134265767D01*
X117715849Y-134265762D01*
X117731805Y-134231543D01*
X117778722Y-134178258D01*
X117846999Y-134158797D01*
X117914959Y-134179339D01*
X117960195Y-134231543D01*
X117976151Y-134265762D01*
X117976154Y-134265767D01*
X117978477Y-134270749D01*
X118109802Y-134458300D01*
X118271700Y-134620198D01*
X118276208Y-134623355D01*
X118276211Y-134623357D01*
X118293769Y-134635651D01*
X118459251Y-134751523D01*
X118464233Y-134753846D01*
X118464238Y-134753849D01*
X118661775Y-134845961D01*
X118666757Y-134848284D01*
X118672065Y-134849706D01*
X118672067Y-134849707D01*
X118882598Y-134906119D01*
X118882600Y-134906119D01*
X118887913Y-134907543D01*
X119116000Y-134927498D01*
X119344087Y-134907543D01*
X119349400Y-134906119D01*
X119349402Y-134906119D01*
X119559933Y-134849707D01*
X119559935Y-134849706D01*
X119565243Y-134848284D01*
X119570225Y-134845961D01*
X119767762Y-134753849D01*
X119767767Y-134753846D01*
X119772749Y-134751523D01*
X119938231Y-134635651D01*
X119955789Y-134623357D01*
X119955792Y-134623355D01*
X119960300Y-134620198D01*
X120122198Y-134458300D01*
X120253523Y-134270749D01*
X120255846Y-134265767D01*
X120255849Y-134265762D01*
X120271805Y-134231543D01*
X120318722Y-134178258D01*
X120386999Y-134158797D01*
X120454959Y-134179339D01*
X120500195Y-134231543D01*
X120516151Y-134265762D01*
X120516154Y-134265767D01*
X120518477Y-134270749D01*
X120649802Y-134458300D01*
X120811700Y-134620198D01*
X120816208Y-134623355D01*
X120816211Y-134623357D01*
X120833769Y-134635651D01*
X120999251Y-134751523D01*
X121004233Y-134753846D01*
X121004238Y-134753849D01*
X121201775Y-134845961D01*
X121206757Y-134848284D01*
X121212065Y-134849706D01*
X121212067Y-134849707D01*
X121422598Y-134906119D01*
X121422600Y-134906119D01*
X121427913Y-134907543D01*
X121656000Y-134927498D01*
X121884087Y-134907543D01*
X121889400Y-134906119D01*
X121889402Y-134906119D01*
X122099933Y-134849707D01*
X122099935Y-134849706D01*
X122105243Y-134848284D01*
X122110225Y-134845961D01*
X122307762Y-134753849D01*
X122307767Y-134753846D01*
X122312749Y-134751523D01*
X122478231Y-134635651D01*
X122495789Y-134623357D01*
X122495792Y-134623355D01*
X122500300Y-134620198D01*
X122662198Y-134458300D01*
X122793523Y-134270749D01*
X122795846Y-134265767D01*
X122795849Y-134265762D01*
X122811805Y-134231543D01*
X122858722Y-134178258D01*
X122926999Y-134158797D01*
X122994959Y-134179339D01*
X123040195Y-134231543D01*
X123056151Y-134265762D01*
X123056154Y-134265767D01*
X123058477Y-134270749D01*
X123189802Y-134458300D01*
X123351700Y-134620198D01*
X123356208Y-134623355D01*
X123356211Y-134623357D01*
X123373769Y-134635651D01*
X123539251Y-134751523D01*
X123544233Y-134753846D01*
X123544238Y-134753849D01*
X123741775Y-134845961D01*
X123746757Y-134848284D01*
X123752065Y-134849706D01*
X123752067Y-134849707D01*
X123962598Y-134906119D01*
X123962600Y-134906119D01*
X123967913Y-134907543D01*
X124196000Y-134927498D01*
X124424087Y-134907543D01*
X124429400Y-134906119D01*
X124429402Y-134906119D01*
X124639933Y-134849707D01*
X124639935Y-134849706D01*
X124645243Y-134848284D01*
X124650225Y-134845961D01*
X124847762Y-134753849D01*
X124847767Y-134753846D01*
X124852749Y-134751523D01*
X125018231Y-134635651D01*
X125035789Y-134623357D01*
X125035792Y-134623355D01*
X125040300Y-134620198D01*
X125202198Y-134458300D01*
X125333523Y-134270749D01*
X125335846Y-134265767D01*
X125335849Y-134265762D01*
X125427961Y-134068225D01*
X125427961Y-134068224D01*
X125430284Y-134063243D01*
X125487699Y-133848971D01*
X125488119Y-133847402D01*
X125488119Y-133847400D01*
X125489543Y-133842087D01*
X125509498Y-133614000D01*
X125495245Y-133451087D01*
X125509234Y-133381482D01*
X125531671Y-133351010D01*
X126076405Y-132806276D01*
X126138717Y-132772250D01*
X126209532Y-132777315D01*
X126266368Y-132819862D01*
X126291179Y-132886382D01*
X126291500Y-132895371D01*
X126291500Y-147065500D01*
X126271498Y-147133621D01*
X126217842Y-147180114D01*
X126165500Y-147191500D01*
X125524072Y-147191500D01*
X125455951Y-147171498D01*
X125409458Y-147117842D01*
X125398072Y-147065500D01*
X125398072Y-145039000D01*
X125276453Y-145039000D01*
X125208332Y-145018998D01*
X125161839Y-144965342D01*
X125150453Y-144913000D01*
X125150453Y-143515000D01*
X108021548Y-143515000D01*
X108021548Y-144913000D01*
X108001546Y-144981121D01*
X107947890Y-145027614D01*
X107895548Y-145039000D01*
X107773929Y-145039000D01*
X107773929Y-147065500D01*
X107753927Y-147133621D01*
X107700271Y-147180114D01*
X107647929Y-147191500D01*
X107434500Y-147191500D01*
X107366379Y-147171498D01*
X107319886Y-147117842D01*
X107308500Y-147065500D01*
X107308500Y-139700000D01*
X107652502Y-139700000D01*
X107672457Y-139928087D01*
X107731716Y-140149243D01*
X107734039Y-140154224D01*
X107734039Y-140154225D01*
X107826151Y-140351762D01*
X107826154Y-140351767D01*
X107828477Y-140356749D01*
X107959802Y-140544300D01*
X108121700Y-140706198D01*
X108126208Y-140709355D01*
X108126211Y-140709357D01*
X108204389Y-140764098D01*
X108309251Y-140837523D01*
X108314233Y-140839846D01*
X108314238Y-140839849D01*
X108511775Y-140931961D01*
X108516757Y-140934284D01*
X108522065Y-140935706D01*
X108522067Y-140935707D01*
X108732598Y-140992119D01*
X108732600Y-140992119D01*
X108737913Y-140993543D01*
X108966000Y-141013498D01*
X109194087Y-140993543D01*
X109199400Y-140992119D01*
X109199402Y-140992119D01*
X109409933Y-140935707D01*
X109409935Y-140935706D01*
X109415243Y-140934284D01*
X109420225Y-140931961D01*
X109617762Y-140839849D01*
X109617767Y-140839846D01*
X109622749Y-140837523D01*
X109727611Y-140764098D01*
X109805789Y-140709357D01*
X109805792Y-140709355D01*
X109810300Y-140706198D01*
X109972198Y-140544300D01*
X110103523Y-140356749D01*
X110105846Y-140351767D01*
X110105849Y-140351762D01*
X110197961Y-140154225D01*
X110197961Y-140154224D01*
X110200284Y-140149243D01*
X110259543Y-139928087D01*
X110279498Y-139700000D01*
X115272502Y-139700000D01*
X115292457Y-139928087D01*
X115351716Y-140149243D01*
X115354039Y-140154224D01*
X115354039Y-140154225D01*
X115446151Y-140351762D01*
X115446154Y-140351767D01*
X115448477Y-140356749D01*
X115579802Y-140544300D01*
X115741700Y-140706198D01*
X115746208Y-140709355D01*
X115746211Y-140709357D01*
X115824389Y-140764098D01*
X115929251Y-140837523D01*
X115934233Y-140839846D01*
X115934238Y-140839849D01*
X116131775Y-140931961D01*
X116136757Y-140934284D01*
X116142065Y-140935706D01*
X116142067Y-140935707D01*
X116352598Y-140992119D01*
X116352600Y-140992119D01*
X116357913Y-140993543D01*
X116586000Y-141013498D01*
X116814087Y-140993543D01*
X116819400Y-140992119D01*
X116819402Y-140992119D01*
X117029933Y-140935707D01*
X117029935Y-140935706D01*
X117035243Y-140934284D01*
X117040225Y-140931961D01*
X117237762Y-140839849D01*
X117237767Y-140839846D01*
X117242749Y-140837523D01*
X117347611Y-140764098D01*
X117425789Y-140709357D01*
X117425792Y-140709355D01*
X117430300Y-140706198D01*
X117592198Y-140544300D01*
X117723523Y-140356749D01*
X117725846Y-140351767D01*
X117725849Y-140351762D01*
X117817961Y-140154225D01*
X117817961Y-140154224D01*
X117820284Y-140149243D01*
X117879543Y-139928087D01*
X117899498Y-139700000D01*
X117879543Y-139471913D01*
X117820284Y-139250757D01*
X117817961Y-139245775D01*
X117725849Y-139048238D01*
X117725846Y-139048233D01*
X117723523Y-139043251D01*
X117592198Y-138855700D01*
X117430300Y-138693802D01*
X117425792Y-138690645D01*
X117425789Y-138690643D01*
X117347611Y-138635902D01*
X117242749Y-138562477D01*
X117237767Y-138560154D01*
X117237762Y-138560151D01*
X117040225Y-138468039D01*
X117040224Y-138468039D01*
X117035243Y-138465716D01*
X117029935Y-138464294D01*
X117029933Y-138464293D01*
X116819402Y-138407881D01*
X116819400Y-138407881D01*
X116814087Y-138406457D01*
X116586000Y-138386502D01*
X116357913Y-138406457D01*
X116352600Y-138407881D01*
X116352598Y-138407881D01*
X116142067Y-138464293D01*
X116142065Y-138464294D01*
X116136757Y-138465716D01*
X116131776Y-138468039D01*
X116131775Y-138468039D01*
X115934238Y-138560151D01*
X115934233Y-138560154D01*
X115929251Y-138562477D01*
X115824389Y-138635902D01*
X115746211Y-138690643D01*
X115746208Y-138690645D01*
X115741700Y-138693802D01*
X115579802Y-138855700D01*
X115448477Y-139043251D01*
X115446154Y-139048233D01*
X115446151Y-139048238D01*
X115354039Y-139245775D01*
X115351716Y-139250757D01*
X115292457Y-139471913D01*
X115272502Y-139700000D01*
X110279498Y-139700000D01*
X110259543Y-139471913D01*
X110200284Y-139250757D01*
X110197961Y-139245775D01*
X110105849Y-139048238D01*
X110105846Y-139048233D01*
X110103523Y-139043251D01*
X109972198Y-138855700D01*
X109810300Y-138693802D01*
X109805792Y-138690645D01*
X109805789Y-138690643D01*
X109727611Y-138635902D01*
X109622749Y-138562477D01*
X109617767Y-138560154D01*
X109617762Y-138560151D01*
X109420225Y-138468039D01*
X109420224Y-138468039D01*
X109415243Y-138465716D01*
X109409935Y-138464294D01*
X109409933Y-138464293D01*
X109199402Y-138407881D01*
X109199400Y-138407881D01*
X109194087Y-138406457D01*
X108966000Y-138386502D01*
X108737913Y-138406457D01*
X108732600Y-138407881D01*
X108732598Y-138407881D01*
X108522067Y-138464293D01*
X108522065Y-138464294D01*
X108516757Y-138465716D01*
X108511776Y-138468039D01*
X108511775Y-138468039D01*
X108314238Y-138560151D01*
X108314233Y-138560154D01*
X108309251Y-138562477D01*
X108204389Y-138635902D01*
X108126211Y-138690643D01*
X108126208Y-138690645D01*
X108121700Y-138693802D01*
X107959802Y-138855700D01*
X107828477Y-139043251D01*
X107826154Y-139048233D01*
X107826151Y-139048238D01*
X107734039Y-139245775D01*
X107731716Y-139250757D01*
X107672457Y-139471913D01*
X107652502Y-139700000D01*
X107308500Y-139700000D01*
X107308500Y-136652000D01*
X107652502Y-136652000D01*
X107672457Y-136880087D01*
X107731716Y-137101243D01*
X107734039Y-137106224D01*
X107734039Y-137106225D01*
X107826151Y-137303762D01*
X107826154Y-137303767D01*
X107828477Y-137308749D01*
X107959802Y-137496300D01*
X108121700Y-137658198D01*
X108126208Y-137661355D01*
X108126211Y-137661357D01*
X108204389Y-137716098D01*
X108309251Y-137789523D01*
X108314233Y-137791846D01*
X108314238Y-137791849D01*
X108511775Y-137883961D01*
X108516757Y-137886284D01*
X108522065Y-137887706D01*
X108522067Y-137887707D01*
X108732598Y-137944119D01*
X108732600Y-137944119D01*
X108737913Y-137945543D01*
X108966000Y-137965498D01*
X109194087Y-137945543D01*
X109199400Y-137944119D01*
X109199402Y-137944119D01*
X109409933Y-137887707D01*
X109409935Y-137887706D01*
X109415243Y-137886284D01*
X109420225Y-137883961D01*
X109617762Y-137791849D01*
X109617767Y-137791846D01*
X109622749Y-137789523D01*
X109727611Y-137716098D01*
X109805789Y-137661357D01*
X109805792Y-137661355D01*
X109810300Y-137658198D01*
X109972198Y-137496300D01*
X110103523Y-137308749D01*
X110105846Y-137303767D01*
X110105849Y-137303762D01*
X110197961Y-137106225D01*
X110197961Y-137106224D01*
X110200284Y-137101243D01*
X110259543Y-136880087D01*
X110279498Y-136652000D01*
X110259543Y-136423913D01*
X110200284Y-136202757D01*
X110121402Y-136033592D01*
X110105849Y-136000238D01*
X110105846Y-136000233D01*
X110103523Y-135995251D01*
X109972198Y-135807700D01*
X109810300Y-135645802D01*
X109805792Y-135642645D01*
X109805789Y-135642643D01*
X109699030Y-135567890D01*
X109622749Y-135514477D01*
X109617767Y-135512154D01*
X109617762Y-135512151D01*
X109420225Y-135420039D01*
X109420224Y-135420039D01*
X109415243Y-135417716D01*
X109409935Y-135416294D01*
X109409933Y-135416293D01*
X109199402Y-135359881D01*
X109199400Y-135359881D01*
X109194087Y-135358457D01*
X108966000Y-135338502D01*
X108737913Y-135358457D01*
X108732600Y-135359881D01*
X108732598Y-135359881D01*
X108522067Y-135416293D01*
X108522065Y-135416294D01*
X108516757Y-135417716D01*
X108511776Y-135420039D01*
X108511775Y-135420039D01*
X108314238Y-135512151D01*
X108314233Y-135512154D01*
X108309251Y-135514477D01*
X108232970Y-135567890D01*
X108126211Y-135642643D01*
X108126208Y-135642645D01*
X108121700Y-135645802D01*
X107959802Y-135807700D01*
X107828477Y-135995251D01*
X107826154Y-136000233D01*
X107826151Y-136000238D01*
X107810598Y-136033592D01*
X107731716Y-136202757D01*
X107672457Y-136423913D01*
X107652502Y-136652000D01*
X107308500Y-136652000D01*
X107308500Y-133398134D01*
X109385500Y-133398134D01*
X109392255Y-133460316D01*
X109443385Y-133596705D01*
X109530739Y-133713261D01*
X109647295Y-133800615D01*
X109783684Y-133851745D01*
X109845866Y-133858500D01*
X111642134Y-133858500D01*
X111704316Y-133851745D01*
X111840705Y-133800615D01*
X111957261Y-133713261D01*
X112044615Y-133596705D01*
X112095745Y-133460316D01*
X112102500Y-133398134D01*
X112102500Y-131601866D01*
X112095745Y-131539684D01*
X112044615Y-131403295D01*
X111957261Y-131286739D01*
X111840705Y-131199385D01*
X111721687Y-131154767D01*
X111664923Y-131112125D01*
X111640223Y-131045564D01*
X111655430Y-130976215D01*
X111676977Y-130947535D01*
X111778052Y-130846812D01*
X111784730Y-130838965D01*
X111909003Y-130666020D01*
X111914313Y-130657183D01*
X112008670Y-130466267D01*
X112012469Y-130456672D01*
X112074377Y-130252910D01*
X112076555Y-130242837D01*
X112077986Y-130231962D01*
X112075775Y-130217778D01*
X112062617Y-130214000D01*
X109427225Y-130214000D01*
X109413694Y-130217973D01*
X109412257Y-130227966D01*
X109442565Y-130362446D01*
X109445645Y-130372275D01*
X109525770Y-130569603D01*
X109530413Y-130578794D01*
X109641694Y-130760388D01*
X109647777Y-130768699D01*
X109787213Y-130929667D01*
X109794577Y-130936879D01*
X109799522Y-130940985D01*
X109839156Y-130999889D01*
X109840653Y-131070870D01*
X109803537Y-131131392D01*
X109763264Y-131155910D01*
X109655705Y-131196232D01*
X109655704Y-131196233D01*
X109647295Y-131199385D01*
X109530739Y-131286739D01*
X109443385Y-131403295D01*
X109392255Y-131539684D01*
X109385500Y-131601866D01*
X109385500Y-133398134D01*
X107308500Y-133398134D01*
X107308500Y-114046000D01*
X108922502Y-114046000D01*
X108942457Y-114274087D01*
X109001716Y-114495243D01*
X109004039Y-114500224D01*
X109004039Y-114500225D01*
X109096151Y-114697762D01*
X109096154Y-114697767D01*
X109098477Y-114702749D01*
X109229802Y-114890300D01*
X109391700Y-115052198D01*
X109396208Y-115055355D01*
X109396211Y-115055357D01*
X109474389Y-115110098D01*
X109579251Y-115183523D01*
X109584233Y-115185846D01*
X109584238Y-115185849D01*
X109781775Y-115277961D01*
X109786757Y-115280284D01*
X109792065Y-115281706D01*
X109792067Y-115281707D01*
X110002598Y-115338119D01*
X110002600Y-115338119D01*
X110007913Y-115339543D01*
X110236000Y-115359498D01*
X110464087Y-115339543D01*
X110469400Y-115338119D01*
X110469402Y-115338119D01*
X110679933Y-115281707D01*
X110679935Y-115281706D01*
X110685243Y-115280284D01*
X110690225Y-115277961D01*
X110887762Y-115185849D01*
X110887767Y-115185846D01*
X110892749Y-115183523D01*
X110997611Y-115110098D01*
X111075789Y-115055357D01*
X111075792Y-115055355D01*
X111080300Y-115052198D01*
X111242198Y-114890300D01*
X111373523Y-114702749D01*
X111375846Y-114697767D01*
X111375849Y-114697762D01*
X111467961Y-114500225D01*
X111467961Y-114500224D01*
X111470284Y-114495243D01*
X111529543Y-114274087D01*
X111549498Y-114046000D01*
X111970502Y-114046000D01*
X111990457Y-114274087D01*
X112049716Y-114495243D01*
X112052039Y-114500224D01*
X112052039Y-114500225D01*
X112144151Y-114697762D01*
X112144154Y-114697767D01*
X112146477Y-114702749D01*
X112277802Y-114890300D01*
X112439700Y-115052198D01*
X112444208Y-115055355D01*
X112444211Y-115055357D01*
X112522389Y-115110098D01*
X112627251Y-115183523D01*
X112632233Y-115185846D01*
X112632238Y-115185849D01*
X112829775Y-115277961D01*
X112834757Y-115280284D01*
X112840065Y-115281706D01*
X112840067Y-115281707D01*
X113050598Y-115338119D01*
X113050600Y-115338119D01*
X113055913Y-115339543D01*
X113284000Y-115359498D01*
X113512087Y-115339543D01*
X113517400Y-115338119D01*
X113517402Y-115338119D01*
X113727933Y-115281707D01*
X113727935Y-115281706D01*
X113733243Y-115280284D01*
X113738225Y-115277961D01*
X113935762Y-115185849D01*
X113935767Y-115185846D01*
X113940749Y-115183523D01*
X114045611Y-115110098D01*
X114123789Y-115055357D01*
X114123792Y-115055355D01*
X114128300Y-115052198D01*
X114290198Y-114890300D01*
X114421523Y-114702749D01*
X114423846Y-114697767D01*
X114423849Y-114697762D01*
X114515961Y-114500225D01*
X114515961Y-114500224D01*
X114518284Y-114495243D01*
X114577543Y-114274087D01*
X114597498Y-114046000D01*
X114577543Y-113817913D01*
X114518284Y-113596757D01*
X114460041Y-113471853D01*
X114423849Y-113394238D01*
X114423846Y-113394233D01*
X114421523Y-113389251D01*
X114290198Y-113201700D01*
X114128300Y-113039802D01*
X114123792Y-113036645D01*
X114123789Y-113036643D01*
X114045611Y-112981902D01*
X113940749Y-112908477D01*
X113935767Y-112906154D01*
X113935762Y-112906151D01*
X113738225Y-112814039D01*
X113738224Y-112814039D01*
X113733243Y-112811716D01*
X113727935Y-112810294D01*
X113727933Y-112810293D01*
X113517402Y-112753881D01*
X113517400Y-112753881D01*
X113512087Y-112752457D01*
X113284000Y-112732502D01*
X113055913Y-112752457D01*
X113050600Y-112753881D01*
X113050598Y-112753881D01*
X112840067Y-112810293D01*
X112840065Y-112810294D01*
X112834757Y-112811716D01*
X112829776Y-112814039D01*
X112829775Y-112814039D01*
X112632238Y-112906151D01*
X112632233Y-112906154D01*
X112627251Y-112908477D01*
X112522389Y-112981902D01*
X112444211Y-113036643D01*
X112444208Y-113036645D01*
X112439700Y-113039802D01*
X112277802Y-113201700D01*
X112146477Y-113389251D01*
X112144154Y-113394233D01*
X112144151Y-113394238D01*
X112107959Y-113471853D01*
X112049716Y-113596757D01*
X111990457Y-113817913D01*
X111970502Y-114046000D01*
X111549498Y-114046000D01*
X111529543Y-113817913D01*
X111470284Y-113596757D01*
X111412041Y-113471853D01*
X111375849Y-113394238D01*
X111375846Y-113394233D01*
X111373523Y-113389251D01*
X111242198Y-113201700D01*
X111080300Y-113039802D01*
X111075792Y-113036645D01*
X111075789Y-113036643D01*
X110997611Y-112981902D01*
X110892749Y-112908477D01*
X110887767Y-112906154D01*
X110887762Y-112906151D01*
X110690225Y-112814039D01*
X110690224Y-112814039D01*
X110685243Y-112811716D01*
X110679935Y-112810294D01*
X110679933Y-112810293D01*
X110469402Y-112753881D01*
X110469400Y-112753881D01*
X110464087Y-112752457D01*
X110236000Y-112732502D01*
X110007913Y-112752457D01*
X110002600Y-112753881D01*
X110002598Y-112753881D01*
X109792067Y-112810293D01*
X109792065Y-112810294D01*
X109786757Y-112811716D01*
X109781776Y-112814039D01*
X109781775Y-112814039D01*
X109584238Y-112906151D01*
X109584233Y-112906154D01*
X109579251Y-112908477D01*
X109474389Y-112981902D01*
X109396211Y-113036643D01*
X109396208Y-113036645D01*
X109391700Y-113039802D01*
X109229802Y-113201700D01*
X109098477Y-113389251D01*
X109096154Y-113394233D01*
X109096151Y-113394238D01*
X109059959Y-113471853D01*
X109001716Y-113596757D01*
X108942457Y-113817913D01*
X108922502Y-114046000D01*
X107308500Y-114046000D01*
X107308500Y-111334500D01*
X107328502Y-111266379D01*
X107382158Y-111219886D01*
X107434500Y-111208500D01*
X126165500Y-111208500D01*
X126233621Y-111228502D01*
G37*
G04 #@! TD.AperFunction*
M02*
