%TF.GenerationSoftware,KiCad,Pcbnew,6.0.11-2627ca5db0~126~ubuntu20.04.1*%
%TF.CreationDate,2023-10-24T11:06:24+02:00*%
%TF.ProjectId,attiny85_I2C_RGB_LED_v21,61747469-6e79-4383-955f-4932435f5247,2.0*%
%TF.SameCoordinates,Original*%
%TF.FileFunction,Drillmap*%
%TF.FilePolarity,Positive*%
%FSLAX45Y45*%
G04 Gerber Fmt 4.5, Leading zero omitted, Abs format (unit mm)*
G04 Created by KiCad (PCBNEW 6.0.11-2627ca5db0~126~ubuntu20.04.1) date 2023-10-24 11:06:24*
%MOMM*%
%LPD*%
G01*
G04 APERTURE LIST*
%ADD10C,0.200000*%
G04 APERTURE END LIST*
D10*
X10680000Y-14770000D02*
X12680000Y-14770000D01*
X10680000Y-14770000D02*
X10680000Y-11070000D01*
X12680000Y-14770000D02*
X12680000Y-11070000D01*
X12680000Y-11070000D02*
X10680000Y-11070000D01*
X10927619Y-15090476D02*
X10927619Y-14890476D01*
X10975238Y-14890476D01*
X11003810Y-14900000D01*
X11022857Y-14919048D01*
X11032381Y-14938095D01*
X11041905Y-14976190D01*
X11041905Y-15004762D01*
X11032381Y-15042857D01*
X11022857Y-15061905D01*
X11003810Y-15080952D01*
X10975238Y-15090476D01*
X10927619Y-15090476D01*
X11127619Y-15090476D02*
X11127619Y-14957143D01*
X11127619Y-14995238D02*
X11137143Y-14976190D01*
X11146667Y-14966667D01*
X11165714Y-14957143D01*
X11184762Y-14957143D01*
X11251428Y-15090476D02*
X11251428Y-14957143D01*
X11251428Y-14890476D02*
X11241905Y-14900000D01*
X11251428Y-14909524D01*
X11260952Y-14900000D01*
X11251428Y-14890476D01*
X11251428Y-14909524D01*
X11375238Y-15090476D02*
X11356190Y-15080952D01*
X11346667Y-15061905D01*
X11346667Y-14890476D01*
X11480000Y-15090476D02*
X11460952Y-15080952D01*
X11451428Y-15061905D01*
X11451428Y-14890476D01*
X11708571Y-15090476D02*
X11708571Y-14890476D01*
X11775238Y-15033333D01*
X11841905Y-14890476D01*
X11841905Y-15090476D01*
X12022857Y-15090476D02*
X12022857Y-14985714D01*
X12013333Y-14966667D01*
X11994286Y-14957143D01*
X11956190Y-14957143D01*
X11937143Y-14966667D01*
X12022857Y-15080952D02*
X12003809Y-15090476D01*
X11956190Y-15090476D01*
X11937143Y-15080952D01*
X11927619Y-15061905D01*
X11927619Y-15042857D01*
X11937143Y-15023809D01*
X11956190Y-15014286D01*
X12003809Y-15014286D01*
X12022857Y-15004762D01*
X12118095Y-14957143D02*
X12118095Y-15157143D01*
X12118095Y-14966667D02*
X12137143Y-14957143D01*
X12175238Y-14957143D01*
X12194286Y-14966667D01*
X12203809Y-14976190D01*
X12213333Y-14995238D01*
X12213333Y-15052381D01*
X12203809Y-15071428D01*
X12194286Y-15080952D01*
X12175238Y-15090476D01*
X12137143Y-15090476D01*
X12118095Y-15080952D01*
X12299048Y-15071428D02*
X12308571Y-15080952D01*
X12299048Y-15090476D01*
X12289524Y-15080952D01*
X12299048Y-15071428D01*
X12299048Y-15090476D01*
X12299048Y-14966667D02*
X12308571Y-14976190D01*
X12299048Y-14985714D01*
X12289524Y-14976190D01*
X12299048Y-14966667D01*
X12299048Y-14985714D01*
M02*
