M48
; DRILL file {KiCad 6.0.11-2627ca5db0~126~ubuntu20.04.1} date utorak, 24. listopada 2023. 11:06:20 CEST
; FORMAT={-:-/ absolute / metric / decimal}
; #@! TF.CreationDate,2023-10-24T11:06:20+02:00
; #@! TF.GenerationSoftware,Kicad,Pcbnew,6.0.11-2627ca5db0~126~ubuntu20.04.1
; #@! TF.FileFunction,Plated,1,2,PTH
FMAT,2
METRIC
; #@! TA.AperFunction,Plated,PTH,ComponentDrill
T1C0.700
; #@! TA.AperFunction,Plated,PTH,ComponentDrill
T2C0.800
; #@! TA.AperFunction,Plated,PTH,ComponentDrill
T3C0.900
; #@! TA.AperFunction,Plated,PTH,ComponentDrill
T4C1.000
%
G90
G05
T1
X121.706Y-136.398
X124.206Y-136.398
T2
X108.966Y-136.652
X108.966Y-139.7
X110.236Y-114.046
X110.236Y-121.666
X113.284Y-114.046
X113.284Y-121.666
X116.332Y-114.046
X116.332Y-121.666
X116.576Y-125.994
X116.576Y-133.614
X116.586Y-136.652
X116.586Y-139.7
X119.116Y-125.994
X119.116Y-133.614
X121.656Y-125.994
X121.656Y-133.614
X124.196Y-125.994
X124.196Y-133.614
T3
X121.666Y-114.046
X121.666Y-115.316
X121.666Y-116.586
X121.666Y-117.856
T4
X110.744Y-124.88
X110.744Y-127.42
X110.744Y-129.96
X110.744Y-132.5
T0
M30
