G04 #@! TF.GenerationSoftware,KiCad,Pcbnew,6.0.11-2627ca5db0~126~ubuntu20.04.1*
G04 #@! TF.CreationDate,2023-10-24T11:05:38+02:00*
G04 #@! TF.ProjectId,attiny85_I2C_RGB_LED_v21,61747469-6e79-4383-955f-4932435f5247,2.0*
G04 #@! TF.SameCoordinates,Original*
G04 #@! TF.FileFunction,Copper,L2,Bot*
G04 #@! TF.FilePolarity,Positive*
%FSLAX46Y46*%
G04 Gerber Fmt 4.6, Leading zero omitted, Abs format (unit mm)*
G04 Created by KiCad (PCBNEW 6.0.11-2627ca5db0~126~ubuntu20.04.1) date 2023-10-24 11:05:38*
%MOMM*%
%LPD*%
G01*
G04 APERTURE LIST*
G04 #@! TA.AperFunction,ComponentPad*
%ADD10C,1.600000*%
G04 #@! TD*
G04 #@! TA.AperFunction,ComponentPad*
%ADD11O,1.600000X1.600000*%
G04 #@! TD*
G04 #@! TA.AperFunction,ComponentPad*
%ADD12R,1.600000X1.600000*%
G04 #@! TD*
G04 #@! TA.AperFunction,ComponentPad*
%ADD13C,1.400000*%
G04 #@! TD*
G04 #@! TA.AperFunction,ComponentPad*
%ADD14R,1.800000X1.070000*%
G04 #@! TD*
G04 #@! TA.AperFunction,ComponentPad*
%ADD15O,1.800000X1.070000*%
G04 #@! TD*
G04 #@! TA.AperFunction,ComponentPad*
%ADD16R,1.700000X1.700000*%
G04 #@! TD*
G04 #@! TA.AperFunction,ComponentPad*
%ADD17O,1.700000X1.700000*%
G04 #@! TD*
G04 #@! TA.AperFunction,Conductor*
%ADD18C,0.500000*%
G04 #@! TD*
G04 APERTURE END LIST*
D10*
X113284000Y-114046000D03*
D11*
X113284000Y-121666000D03*
D10*
X116332000Y-114046000D03*
D11*
X116332000Y-121666000D03*
D10*
X110236000Y-114046000D03*
D11*
X110236000Y-121666000D03*
D12*
X124196000Y-125994000D03*
D11*
X121656000Y-125994000D03*
X119116000Y-125994000D03*
X116576000Y-125994000D03*
X116576000Y-133614000D03*
X119116000Y-133614000D03*
X121656000Y-133614000D03*
X124196000Y-133614000D03*
D13*
X124206000Y-136398000D03*
X121706000Y-136398000D03*
D14*
X121666000Y-117856000D03*
D15*
X121666000Y-116586000D03*
X121666000Y-115316000D03*
X121666000Y-114046000D03*
D16*
X110744000Y-132500000D03*
D17*
X110744000Y-129960000D03*
X110744000Y-127420000D03*
X110744000Y-124880000D03*
D10*
X116586000Y-136652000D03*
D11*
X108966000Y-136652000D03*
D10*
X116586000Y-139700000D03*
D11*
X108966000Y-139700000D03*
D18*
X121666000Y-117856000D02*
X112776000Y-117856000D01*
X110236000Y-115316000D02*
X110236000Y-114046000D01*
X112776000Y-117856000D02*
X110236000Y-115316000D01*
X114808000Y-112522000D02*
X113284000Y-114046000D01*
X117094000Y-112522000D02*
X114808000Y-112522000D01*
X118618000Y-114046000D02*
X117094000Y-112522000D01*
X121666000Y-114046000D02*
X118618000Y-114046000D01*
X120142000Y-135128000D02*
X121656000Y-133614000D01*
X116586000Y-139700000D02*
X120142000Y-136144000D01*
X120142000Y-136144000D02*
X120142000Y-135128000D01*
X115462000Y-127420000D02*
X110744000Y-127420000D01*
X121656000Y-133614000D02*
X115462000Y-127420000D01*
X119454000Y-141150000D02*
X124206000Y-136398000D01*
X124206000Y-133624000D02*
X124196000Y-133614000D01*
X110744000Y-132500000D02*
X110744000Y-134874000D01*
X110416000Y-141150000D02*
X119454000Y-141150000D01*
X110744000Y-134874000D02*
X108966000Y-136652000D01*
X124206000Y-136398000D02*
X124206000Y-133624000D01*
X108966000Y-136652000D02*
X108966000Y-139700000D01*
X108966000Y-139700000D02*
X110416000Y-141150000D01*
G04 #@! TA.AperFunction,Conductor*
G36*
X126233621Y-111228502D02*
G01*
X126280114Y-111282158D01*
X126291500Y-111334500D01*
X126291500Y-147065500D01*
X126271498Y-147133621D01*
X126217842Y-147180114D01*
X126165500Y-147191500D01*
X107434500Y-147191500D01*
X107366379Y-147171498D01*
X107319886Y-147117842D01*
X107308500Y-147065500D01*
X107308500Y-139700000D01*
X107652502Y-139700000D01*
X107672457Y-139928087D01*
X107731716Y-140149243D01*
X107734039Y-140154224D01*
X107734039Y-140154225D01*
X107826151Y-140351762D01*
X107826154Y-140351767D01*
X107828477Y-140356749D01*
X107959802Y-140544300D01*
X108121700Y-140706198D01*
X108126208Y-140709355D01*
X108126211Y-140709357D01*
X108204389Y-140764098D01*
X108309251Y-140837523D01*
X108314233Y-140839846D01*
X108314238Y-140839849D01*
X108511775Y-140931961D01*
X108516757Y-140934284D01*
X108522065Y-140935706D01*
X108522067Y-140935707D01*
X108732598Y-140992119D01*
X108732600Y-140992119D01*
X108737913Y-140993543D01*
X108966000Y-141013498D01*
X108971475Y-141013019D01*
X109128913Y-140999245D01*
X109198518Y-141013234D01*
X109228990Y-141035671D01*
X109832230Y-141638911D01*
X109844616Y-141653323D01*
X109853149Y-141664918D01*
X109853154Y-141664923D01*
X109857492Y-141670818D01*
X109863070Y-141675557D01*
X109863073Y-141675560D01*
X109897768Y-141705035D01*
X109905284Y-141711965D01*
X109910980Y-141717661D01*
X109913841Y-141719924D01*
X109913846Y-141719929D01*
X109933266Y-141735293D01*
X109936667Y-141738082D01*
X109992285Y-141785333D01*
X109998798Y-141788659D01*
X110003837Y-141792020D01*
X110008979Y-141795196D01*
X110014716Y-141799734D01*
X110080875Y-141830655D01*
X110084769Y-141832558D01*
X110149808Y-141865769D01*
X110156917Y-141867508D01*
X110162551Y-141869604D01*
X110168321Y-141871523D01*
X110174950Y-141874622D01*
X110182113Y-141876112D01*
X110182116Y-141876113D01*
X110232830Y-141886661D01*
X110246435Y-141889491D01*
X110250701Y-141890457D01*
X110321610Y-141907808D01*
X110327212Y-141908156D01*
X110327215Y-141908156D01*
X110332764Y-141908500D01*
X110332762Y-141908535D01*
X110336734Y-141908775D01*
X110340955Y-141909152D01*
X110348115Y-141910641D01*
X110425542Y-141908546D01*
X110428950Y-141908500D01*
X119386930Y-141908500D01*
X119405880Y-141909933D01*
X119420115Y-141912099D01*
X119420119Y-141912099D01*
X119427349Y-141913199D01*
X119434641Y-141912606D01*
X119434644Y-141912606D01*
X119480018Y-141908915D01*
X119490233Y-141908500D01*
X119498293Y-141908500D01*
X119515680Y-141906473D01*
X119526507Y-141905211D01*
X119530882Y-141904778D01*
X119596339Y-141899454D01*
X119596342Y-141899453D01*
X119603637Y-141898860D01*
X119610601Y-141896604D01*
X119616560Y-141895413D01*
X119622415Y-141894029D01*
X119629681Y-141893182D01*
X119698327Y-141868265D01*
X119702455Y-141866848D01*
X119764936Y-141846607D01*
X119764938Y-141846606D01*
X119771899Y-141844351D01*
X119778154Y-141840555D01*
X119783628Y-141838049D01*
X119789058Y-141835330D01*
X119795937Y-141832833D01*
X119802058Y-141828820D01*
X119856976Y-141792814D01*
X119860680Y-141790477D01*
X119923107Y-141752595D01*
X119931484Y-141745197D01*
X119931508Y-141745224D01*
X119934500Y-141742571D01*
X119937733Y-141739868D01*
X119943852Y-141735856D01*
X119997128Y-141679617D01*
X119999506Y-141677175D01*
X124035316Y-137641365D01*
X124097628Y-137607339D01*
X124135392Y-137604939D01*
X124200524Y-137610637D01*
X124200525Y-137610637D01*
X124206000Y-137611116D01*
X124416655Y-137592686D01*
X124421968Y-137591262D01*
X124421970Y-137591262D01*
X124615600Y-137539379D01*
X124615602Y-137539378D01*
X124620910Y-137537956D01*
X124626908Y-137535159D01*
X124807577Y-137450912D01*
X124807580Y-137450910D01*
X124812558Y-137448589D01*
X124985776Y-137327301D01*
X125135301Y-137177776D01*
X125256589Y-137004558D01*
X125276530Y-136961796D01*
X125343633Y-136817892D01*
X125343634Y-136817891D01*
X125345956Y-136812910D01*
X125400686Y-136608655D01*
X125419116Y-136398000D01*
X125400686Y-136187345D01*
X125345956Y-135983090D01*
X125343633Y-135978108D01*
X125258912Y-135796423D01*
X125258910Y-135796420D01*
X125256589Y-135791442D01*
X125135301Y-135618224D01*
X125001405Y-135484328D01*
X124967379Y-135422016D01*
X124964500Y-135395233D01*
X124964500Y-134738865D01*
X124984502Y-134670744D01*
X125018228Y-134635653D01*
X125040300Y-134620198D01*
X125202198Y-134458300D01*
X125333523Y-134270749D01*
X125335846Y-134265767D01*
X125335849Y-134265762D01*
X125427961Y-134068225D01*
X125427961Y-134068224D01*
X125430284Y-134063243D01*
X125465409Y-133932158D01*
X125488119Y-133847402D01*
X125488119Y-133847400D01*
X125489543Y-133842087D01*
X125509498Y-133614000D01*
X125489543Y-133385913D01*
X125430284Y-133164757D01*
X125351805Y-132996457D01*
X125335849Y-132962238D01*
X125335846Y-132962233D01*
X125333523Y-132957251D01*
X125202198Y-132769700D01*
X125040300Y-132607802D01*
X125035792Y-132604645D01*
X125035789Y-132604643D01*
X124957611Y-132549902D01*
X124852749Y-132476477D01*
X124847767Y-132474154D01*
X124847762Y-132474151D01*
X124650225Y-132382039D01*
X124650224Y-132382039D01*
X124645243Y-132379716D01*
X124639935Y-132378294D01*
X124639933Y-132378293D01*
X124429402Y-132321881D01*
X124429400Y-132321881D01*
X124424087Y-132320457D01*
X124196000Y-132300502D01*
X123967913Y-132320457D01*
X123962600Y-132321881D01*
X123962598Y-132321881D01*
X123752067Y-132378293D01*
X123752065Y-132378294D01*
X123746757Y-132379716D01*
X123741776Y-132382039D01*
X123741775Y-132382039D01*
X123544238Y-132474151D01*
X123544233Y-132474154D01*
X123539251Y-132476477D01*
X123434389Y-132549902D01*
X123356211Y-132604643D01*
X123356208Y-132604645D01*
X123351700Y-132607802D01*
X123189802Y-132769700D01*
X123058477Y-132957251D01*
X123056154Y-132962233D01*
X123056151Y-132962238D01*
X123040195Y-132996457D01*
X122993278Y-133049742D01*
X122925001Y-133069203D01*
X122857041Y-133048661D01*
X122811805Y-132996457D01*
X122795849Y-132962238D01*
X122795846Y-132962233D01*
X122793523Y-132957251D01*
X122662198Y-132769700D01*
X122500300Y-132607802D01*
X122495792Y-132604645D01*
X122495789Y-132604643D01*
X122417611Y-132549902D01*
X122312749Y-132476477D01*
X122307767Y-132474154D01*
X122307762Y-132474151D01*
X122110225Y-132382039D01*
X122110224Y-132382039D01*
X122105243Y-132379716D01*
X122099935Y-132378294D01*
X122099933Y-132378293D01*
X121889402Y-132321881D01*
X121889400Y-132321881D01*
X121884087Y-132320457D01*
X121656000Y-132300502D01*
X121650525Y-132300981D01*
X121493087Y-132314755D01*
X121423482Y-132300766D01*
X121393010Y-132278329D01*
X116625158Y-127510477D01*
X116591132Y-127448165D01*
X116596197Y-127377350D01*
X116638744Y-127320514D01*
X116703272Y-127295861D01*
X116798520Y-127287528D01*
X116809312Y-127285625D01*
X117019761Y-127229236D01*
X117030053Y-127225490D01*
X117227511Y-127133414D01*
X117237007Y-127127931D01*
X117415467Y-127002972D01*
X117423875Y-126995916D01*
X117577916Y-126841875D01*
X117584972Y-126833467D01*
X117709931Y-126655007D01*
X117715414Y-126645511D01*
X117731529Y-126610951D01*
X117778446Y-126557666D01*
X117846723Y-126538205D01*
X117914683Y-126558747D01*
X117959919Y-126610951D01*
X117976151Y-126645762D01*
X117976154Y-126645767D01*
X117978477Y-126650749D01*
X118109802Y-126838300D01*
X118271700Y-127000198D01*
X118276208Y-127003355D01*
X118276211Y-127003357D01*
X118317542Y-127032297D01*
X118459251Y-127131523D01*
X118464233Y-127133846D01*
X118464238Y-127133849D01*
X118541137Y-127169707D01*
X118666757Y-127228284D01*
X118672065Y-127229706D01*
X118672067Y-127229707D01*
X118882598Y-127286119D01*
X118882600Y-127286119D01*
X118887913Y-127287543D01*
X119116000Y-127307498D01*
X119344087Y-127287543D01*
X119349400Y-127286119D01*
X119349402Y-127286119D01*
X119559933Y-127229707D01*
X119559935Y-127229706D01*
X119565243Y-127228284D01*
X119690863Y-127169707D01*
X119767762Y-127133849D01*
X119767767Y-127133846D01*
X119772749Y-127131523D01*
X119914458Y-127032297D01*
X119955789Y-127003357D01*
X119955792Y-127003355D01*
X119960300Y-127000198D01*
X120122198Y-126838300D01*
X120253523Y-126650749D01*
X120255846Y-126645767D01*
X120255849Y-126645762D01*
X120271805Y-126611543D01*
X120318722Y-126558258D01*
X120386999Y-126538797D01*
X120454959Y-126559339D01*
X120500195Y-126611543D01*
X120516151Y-126645762D01*
X120516154Y-126645767D01*
X120518477Y-126650749D01*
X120649802Y-126838300D01*
X120811700Y-127000198D01*
X120816208Y-127003355D01*
X120816211Y-127003357D01*
X120857542Y-127032297D01*
X120999251Y-127131523D01*
X121004233Y-127133846D01*
X121004238Y-127133849D01*
X121081137Y-127169707D01*
X121206757Y-127228284D01*
X121212065Y-127229706D01*
X121212067Y-127229707D01*
X121422598Y-127286119D01*
X121422600Y-127286119D01*
X121427913Y-127287543D01*
X121656000Y-127307498D01*
X121884087Y-127287543D01*
X121889400Y-127286119D01*
X121889402Y-127286119D01*
X122099933Y-127229707D01*
X122099935Y-127229706D01*
X122105243Y-127228284D01*
X122230863Y-127169707D01*
X122307762Y-127133849D01*
X122307767Y-127133846D01*
X122312749Y-127131523D01*
X122454458Y-127032297D01*
X122495789Y-127003357D01*
X122495792Y-127003355D01*
X122500300Y-127000198D01*
X122662198Y-126838300D01*
X122665357Y-126833789D01*
X122668892Y-126829576D01*
X122670026Y-126830527D01*
X122720071Y-126790529D01*
X122790690Y-126783224D01*
X122854049Y-126815258D01*
X122890030Y-126876462D01*
X122893082Y-126893517D01*
X122894255Y-126904316D01*
X122945385Y-127040705D01*
X123032739Y-127157261D01*
X123149295Y-127244615D01*
X123285684Y-127295745D01*
X123347866Y-127302500D01*
X125044134Y-127302500D01*
X125106316Y-127295745D01*
X125242705Y-127244615D01*
X125359261Y-127157261D01*
X125446615Y-127040705D01*
X125497745Y-126904316D01*
X125504500Y-126842134D01*
X125504500Y-125145866D01*
X125497745Y-125083684D01*
X125446615Y-124947295D01*
X125359261Y-124830739D01*
X125242705Y-124743385D01*
X125106316Y-124692255D01*
X125044134Y-124685500D01*
X123347866Y-124685500D01*
X123285684Y-124692255D01*
X123149295Y-124743385D01*
X123032739Y-124830739D01*
X122945385Y-124947295D01*
X122894255Y-125083684D01*
X122893083Y-125094474D01*
X122892197Y-125096606D01*
X122891575Y-125099222D01*
X122891152Y-125099121D01*
X122865845Y-125160035D01*
X122807483Y-125200463D01*
X122736529Y-125202922D01*
X122675510Y-125166629D01*
X122668511Y-125157969D01*
X122665354Y-125154207D01*
X122662198Y-125149700D01*
X122500300Y-124987802D01*
X122495792Y-124984645D01*
X122495789Y-124984643D01*
X122341553Y-124876646D01*
X122312749Y-124856477D01*
X122307767Y-124854154D01*
X122307762Y-124854151D01*
X122110225Y-124762039D01*
X122110224Y-124762039D01*
X122105243Y-124759716D01*
X122099935Y-124758294D01*
X122099933Y-124758293D01*
X121889402Y-124701881D01*
X121889400Y-124701881D01*
X121884087Y-124700457D01*
X121656000Y-124680502D01*
X121427913Y-124700457D01*
X121422600Y-124701881D01*
X121422598Y-124701881D01*
X121212067Y-124758293D01*
X121212065Y-124758294D01*
X121206757Y-124759716D01*
X121201776Y-124762039D01*
X121201775Y-124762039D01*
X121004238Y-124854151D01*
X121004233Y-124854154D01*
X120999251Y-124856477D01*
X120970447Y-124876646D01*
X120816211Y-124984643D01*
X120816208Y-124984645D01*
X120811700Y-124987802D01*
X120649802Y-125149700D01*
X120518477Y-125337251D01*
X120516154Y-125342233D01*
X120516151Y-125342238D01*
X120500195Y-125376457D01*
X120453278Y-125429742D01*
X120385001Y-125449203D01*
X120317041Y-125428661D01*
X120271805Y-125376457D01*
X120255849Y-125342238D01*
X120255846Y-125342233D01*
X120253523Y-125337251D01*
X120122198Y-125149700D01*
X119960300Y-124987802D01*
X119955792Y-124984645D01*
X119955789Y-124984643D01*
X119801553Y-124876646D01*
X119772749Y-124856477D01*
X119767767Y-124854154D01*
X119767762Y-124854151D01*
X119570225Y-124762039D01*
X119570224Y-124762039D01*
X119565243Y-124759716D01*
X119559935Y-124758294D01*
X119559933Y-124758293D01*
X119349402Y-124701881D01*
X119349400Y-124701881D01*
X119344087Y-124700457D01*
X119116000Y-124680502D01*
X118887913Y-124700457D01*
X118882600Y-124701881D01*
X118882598Y-124701881D01*
X118672067Y-124758293D01*
X118672065Y-124758294D01*
X118666757Y-124759716D01*
X118661776Y-124762039D01*
X118661775Y-124762039D01*
X118464238Y-124854151D01*
X118464233Y-124854154D01*
X118459251Y-124856477D01*
X118430447Y-124876646D01*
X118276211Y-124984643D01*
X118276208Y-124984645D01*
X118271700Y-124987802D01*
X118109802Y-125149700D01*
X117978477Y-125337251D01*
X117976154Y-125342233D01*
X117976151Y-125342238D01*
X117959919Y-125377049D01*
X117913002Y-125430334D01*
X117844725Y-125449795D01*
X117776765Y-125429253D01*
X117731529Y-125377049D01*
X117715414Y-125342489D01*
X117709931Y-125332993D01*
X117584972Y-125154533D01*
X117577916Y-125146125D01*
X117423875Y-124992084D01*
X117415467Y-124985028D01*
X117237007Y-124860069D01*
X117227511Y-124854586D01*
X117030053Y-124762510D01*
X117019761Y-124758764D01*
X116847497Y-124712606D01*
X116833401Y-124712942D01*
X116830000Y-124720884D01*
X116830000Y-126122000D01*
X116809998Y-126190121D01*
X116756342Y-126236614D01*
X116704000Y-126248000D01*
X115308033Y-126248000D01*
X115294502Y-126251973D01*
X115293273Y-126260522D01*
X115340764Y-126437761D01*
X115344512Y-126448058D01*
X115360456Y-126482249D01*
X115371118Y-126552440D01*
X115342139Y-126617253D01*
X115282720Y-126656110D01*
X115246262Y-126661500D01*
X111939939Y-126661500D01*
X111871818Y-126641498D01*
X111834147Y-126603941D01*
X111826818Y-126592612D01*
X111824014Y-126588277D01*
X111673670Y-126423051D01*
X111669619Y-126419852D01*
X111669615Y-126419848D01*
X111502414Y-126287800D01*
X111502410Y-126287798D01*
X111498359Y-126284598D01*
X111457053Y-126261796D01*
X111407084Y-126211364D01*
X111392312Y-126141921D01*
X111417428Y-126075516D01*
X111444780Y-126048909D01*
X111488603Y-126017650D01*
X111623860Y-125921173D01*
X111782096Y-125763489D01*
X111798975Y-125740000D01*
X111811548Y-125722503D01*
X115294606Y-125722503D01*
X115294942Y-125736599D01*
X115302884Y-125740000D01*
X116303885Y-125740000D01*
X116319124Y-125735525D01*
X116320329Y-125734135D01*
X116322000Y-125726452D01*
X116322000Y-124726033D01*
X116318027Y-124712502D01*
X116309478Y-124711273D01*
X116132239Y-124758764D01*
X116121947Y-124762510D01*
X115924489Y-124854586D01*
X115914993Y-124860069D01*
X115736533Y-124985028D01*
X115728125Y-124992084D01*
X115574084Y-125146125D01*
X115567028Y-125154533D01*
X115442069Y-125332993D01*
X115436586Y-125342489D01*
X115344510Y-125539947D01*
X115340764Y-125550239D01*
X115294606Y-125722503D01*
X111811548Y-125722503D01*
X111909435Y-125586277D01*
X111912453Y-125582077D01*
X111977831Y-125449795D01*
X112009136Y-125386453D01*
X112009137Y-125386451D01*
X112011430Y-125381811D01*
X112076370Y-125168069D01*
X112105529Y-124946590D01*
X112105611Y-124943240D01*
X112107074Y-124883365D01*
X112107074Y-124883361D01*
X112107156Y-124880000D01*
X112088852Y-124657361D01*
X112034431Y-124440702D01*
X111945354Y-124235840D01*
X111824014Y-124048277D01*
X111673670Y-123883051D01*
X111669619Y-123879852D01*
X111669615Y-123879848D01*
X111502414Y-123747800D01*
X111502410Y-123747798D01*
X111498359Y-123744598D01*
X111302789Y-123636638D01*
X111297920Y-123634914D01*
X111297916Y-123634912D01*
X111097087Y-123563795D01*
X111097083Y-123563794D01*
X111092212Y-123562069D01*
X111087119Y-123561162D01*
X111087116Y-123561161D01*
X110877373Y-123523800D01*
X110877367Y-123523799D01*
X110872284Y-123522894D01*
X110798452Y-123521992D01*
X110654081Y-123520228D01*
X110654079Y-123520228D01*
X110648911Y-123520165D01*
X110428091Y-123553955D01*
X110215756Y-123623357D01*
X110017607Y-123726507D01*
X110013474Y-123729610D01*
X110013471Y-123729612D01*
X109989247Y-123747800D01*
X109838965Y-123860635D01*
X109684629Y-124022138D01*
X109558743Y-124206680D01*
X109464688Y-124409305D01*
X109404989Y-124624570D01*
X109381251Y-124846695D01*
X109381548Y-124851848D01*
X109381548Y-124851851D01*
X109387011Y-124946590D01*
X109394110Y-125069715D01*
X109395247Y-125074761D01*
X109395248Y-125074767D01*
X109413152Y-125154211D01*
X109443222Y-125287639D01*
X109527266Y-125494616D01*
X109643987Y-125685088D01*
X109790250Y-125853938D01*
X109962126Y-125996632D01*
X110032595Y-126037811D01*
X110035445Y-126039476D01*
X110084169Y-126091114D01*
X110097240Y-126160897D01*
X110070509Y-126226669D01*
X110030055Y-126260027D01*
X110017607Y-126266507D01*
X110013474Y-126269610D01*
X110013471Y-126269612D01*
X109989247Y-126287800D01*
X109838965Y-126400635D01*
X109792543Y-126449213D01*
X109688903Y-126557666D01*
X109684629Y-126562138D01*
X109681715Y-126566410D01*
X109681714Y-126566411D01*
X109620526Y-126656110D01*
X109558743Y-126746680D01*
X109556564Y-126751375D01*
X109482137Y-126911715D01*
X109464688Y-126949305D01*
X109404989Y-127164570D01*
X109381251Y-127386695D01*
X109394110Y-127609715D01*
X109395247Y-127614761D01*
X109395248Y-127614767D01*
X109419304Y-127721508D01*
X109443222Y-127827639D01*
X109527266Y-128034616D01*
X109643987Y-128225088D01*
X109790250Y-128393938D01*
X109962126Y-128536632D01*
X110035955Y-128579774D01*
X110084679Y-128631412D01*
X110097750Y-128701195D01*
X110071019Y-128766967D01*
X110030562Y-128800327D01*
X110022457Y-128804546D01*
X110013738Y-128810036D01*
X109843433Y-128937905D01*
X109835726Y-128944748D01*
X109688590Y-129098717D01*
X109682104Y-129106727D01*
X109562098Y-129282649D01*
X109557000Y-129291623D01*
X109467338Y-129484783D01*
X109463775Y-129494470D01*
X109408389Y-129694183D01*
X109409912Y-129702607D01*
X109422292Y-129706000D01*
X112062344Y-129706000D01*
X112075875Y-129702027D01*
X112077180Y-129692947D01*
X112035214Y-129525875D01*
X112031894Y-129516124D01*
X111946972Y-129320814D01*
X111942105Y-129311739D01*
X111826426Y-129132926D01*
X111820136Y-129124757D01*
X111676806Y-128967240D01*
X111669273Y-128960215D01*
X111502139Y-128828222D01*
X111493556Y-128822520D01*
X111456602Y-128802120D01*
X111406631Y-128751687D01*
X111391859Y-128682245D01*
X111416975Y-128615839D01*
X111444327Y-128589232D01*
X111467797Y-128572491D01*
X111623860Y-128461173D01*
X111782096Y-128303489D01*
X111834203Y-128230974D01*
X111890198Y-128187326D01*
X111936526Y-128178500D01*
X115095629Y-128178500D01*
X115163750Y-128198502D01*
X115184724Y-128215405D01*
X119066380Y-132097061D01*
X119100406Y-132159373D01*
X119095341Y-132230188D01*
X119052794Y-132287024D01*
X118988267Y-132311677D01*
X118961209Y-132314044D01*
X118887913Y-132320457D01*
X118882600Y-132321881D01*
X118882598Y-132321881D01*
X118672067Y-132378293D01*
X118672065Y-132378294D01*
X118666757Y-132379716D01*
X118661776Y-132382039D01*
X118661775Y-132382039D01*
X118464238Y-132474151D01*
X118464233Y-132474154D01*
X118459251Y-132476477D01*
X118354389Y-132549902D01*
X118276211Y-132604643D01*
X118276208Y-132604645D01*
X118271700Y-132607802D01*
X118109802Y-132769700D01*
X117978477Y-132957251D01*
X117976154Y-132962233D01*
X117976151Y-132962238D01*
X117960195Y-132996457D01*
X117913278Y-133049742D01*
X117845001Y-133069203D01*
X117777041Y-133048661D01*
X117731805Y-132996457D01*
X117715849Y-132962238D01*
X117715846Y-132962233D01*
X117713523Y-132957251D01*
X117582198Y-132769700D01*
X117420300Y-132607802D01*
X117415792Y-132604645D01*
X117415789Y-132604643D01*
X117337611Y-132549902D01*
X117232749Y-132476477D01*
X117227767Y-132474154D01*
X117227762Y-132474151D01*
X117030225Y-132382039D01*
X117030224Y-132382039D01*
X117025243Y-132379716D01*
X117019935Y-132378294D01*
X117019933Y-132378293D01*
X116809402Y-132321881D01*
X116809400Y-132321881D01*
X116804087Y-132320457D01*
X116576000Y-132300502D01*
X116347913Y-132320457D01*
X116342600Y-132321881D01*
X116342598Y-132321881D01*
X116132067Y-132378293D01*
X116132065Y-132378294D01*
X116126757Y-132379716D01*
X116121776Y-132382039D01*
X116121775Y-132382039D01*
X115924238Y-132474151D01*
X115924233Y-132474154D01*
X115919251Y-132476477D01*
X115814389Y-132549902D01*
X115736211Y-132604643D01*
X115736208Y-132604645D01*
X115731700Y-132607802D01*
X115569802Y-132769700D01*
X115438477Y-132957251D01*
X115436154Y-132962233D01*
X115436151Y-132962238D01*
X115420195Y-132996457D01*
X115341716Y-133164757D01*
X115282457Y-133385913D01*
X115262502Y-133614000D01*
X115282457Y-133842087D01*
X115283881Y-133847400D01*
X115283881Y-133847402D01*
X115306592Y-133932158D01*
X115341716Y-134063243D01*
X115344039Y-134068224D01*
X115344039Y-134068225D01*
X115436151Y-134265762D01*
X115436154Y-134265767D01*
X115438477Y-134270749D01*
X115569802Y-134458300D01*
X115731700Y-134620198D01*
X115736208Y-134623355D01*
X115736211Y-134623357D01*
X115753769Y-134635651D01*
X115919251Y-134751523D01*
X115924233Y-134753846D01*
X115924238Y-134753849D01*
X116121775Y-134845961D01*
X116126757Y-134848284D01*
X116132065Y-134849706D01*
X116132067Y-134849707D01*
X116342598Y-134906119D01*
X116342600Y-134906119D01*
X116347913Y-134907543D01*
X116576000Y-134927498D01*
X116804087Y-134907543D01*
X116809400Y-134906119D01*
X116809402Y-134906119D01*
X117019933Y-134849707D01*
X117019935Y-134849706D01*
X117025243Y-134848284D01*
X117030225Y-134845961D01*
X117227762Y-134753849D01*
X117227767Y-134753846D01*
X117232749Y-134751523D01*
X117398231Y-134635651D01*
X117415789Y-134623357D01*
X117415792Y-134623355D01*
X117420300Y-134620198D01*
X117582198Y-134458300D01*
X117713523Y-134270749D01*
X117715846Y-134265767D01*
X117715849Y-134265762D01*
X117731805Y-134231543D01*
X117778722Y-134178258D01*
X117846999Y-134158797D01*
X117914959Y-134179339D01*
X117960195Y-134231543D01*
X117976151Y-134265762D01*
X117976154Y-134265767D01*
X117978477Y-134270749D01*
X118109802Y-134458300D01*
X118271700Y-134620198D01*
X118276208Y-134623355D01*
X118276211Y-134623357D01*
X118293769Y-134635651D01*
X118459251Y-134751523D01*
X118464233Y-134753846D01*
X118464238Y-134753849D01*
X118661775Y-134845961D01*
X118666757Y-134848284D01*
X118672065Y-134849706D01*
X118672067Y-134849707D01*
X118882598Y-134906119D01*
X118882600Y-134906119D01*
X118887913Y-134907543D01*
X119116000Y-134927498D01*
X119246380Y-134916091D01*
X119315984Y-134930080D01*
X119366976Y-134979479D01*
X119382862Y-135052810D01*
X119382849Y-135052956D01*
X119381360Y-135060115D01*
X119381558Y-135067426D01*
X119383454Y-135137521D01*
X119383500Y-135140928D01*
X119383500Y-135777629D01*
X119363498Y-135845750D01*
X119346595Y-135866724D01*
X118045989Y-137167330D01*
X117983677Y-137201356D01*
X117912862Y-137196291D01*
X117856026Y-137153744D01*
X117831215Y-137087224D01*
X117835187Y-137045623D01*
X117879543Y-136880087D01*
X117899498Y-136652000D01*
X117879543Y-136423913D01*
X117878119Y-136418598D01*
X117821707Y-136208067D01*
X117821706Y-136208065D01*
X117820284Y-136202757D01*
X117738321Y-136026985D01*
X117725849Y-136000238D01*
X117725846Y-136000233D01*
X117723523Y-135995251D01*
X117592198Y-135807700D01*
X117430300Y-135645802D01*
X117425792Y-135642645D01*
X117425789Y-135642643D01*
X117347611Y-135587902D01*
X117242749Y-135514477D01*
X117237767Y-135512154D01*
X117237762Y-135512151D01*
X117040225Y-135420039D01*
X117040224Y-135420039D01*
X117035243Y-135417716D01*
X117029935Y-135416294D01*
X117029933Y-135416293D01*
X116819402Y-135359881D01*
X116819400Y-135359881D01*
X116814087Y-135358457D01*
X116586000Y-135338502D01*
X116357913Y-135358457D01*
X116352600Y-135359881D01*
X116352598Y-135359881D01*
X116142067Y-135416293D01*
X116142065Y-135416294D01*
X116136757Y-135417716D01*
X116131776Y-135420039D01*
X116131775Y-135420039D01*
X115934238Y-135512151D01*
X115934233Y-135512154D01*
X115929251Y-135514477D01*
X115824389Y-135587902D01*
X115746211Y-135642643D01*
X115746208Y-135642645D01*
X115741700Y-135645802D01*
X115579802Y-135807700D01*
X115448477Y-135995251D01*
X115446154Y-136000233D01*
X115446151Y-136000238D01*
X115433679Y-136026985D01*
X115351716Y-136202757D01*
X115350294Y-136208065D01*
X115350293Y-136208067D01*
X115293881Y-136418598D01*
X115292457Y-136423913D01*
X115272502Y-136652000D01*
X115292457Y-136880087D01*
X115293880Y-136885399D01*
X115293881Y-136885402D01*
X115347960Y-137087224D01*
X115351716Y-137101243D01*
X115354039Y-137106224D01*
X115354039Y-137106225D01*
X115446151Y-137303762D01*
X115446154Y-137303767D01*
X115448477Y-137308749D01*
X115579802Y-137496300D01*
X115741700Y-137658198D01*
X115746208Y-137661355D01*
X115746211Y-137661357D01*
X115773769Y-137680653D01*
X115929251Y-137789523D01*
X115934233Y-137791846D01*
X115934238Y-137791849D01*
X116131775Y-137883961D01*
X116136757Y-137886284D01*
X116142065Y-137887706D01*
X116142067Y-137887707D01*
X116352598Y-137944119D01*
X116352600Y-137944119D01*
X116357913Y-137945543D01*
X116586000Y-137965498D01*
X116814087Y-137945543D01*
X116979625Y-137901187D01*
X117050600Y-137902877D01*
X117109396Y-137942671D01*
X117137344Y-138007935D01*
X117125571Y-138077949D01*
X117101330Y-138111989D01*
X116848990Y-138364329D01*
X116786678Y-138398355D01*
X116748913Y-138400755D01*
X116591475Y-138386981D01*
X116586000Y-138386502D01*
X116357913Y-138406457D01*
X116352600Y-138407881D01*
X116352598Y-138407881D01*
X116142067Y-138464293D01*
X116142065Y-138464294D01*
X116136757Y-138465716D01*
X116131776Y-138468039D01*
X116131775Y-138468039D01*
X115934238Y-138560151D01*
X115934233Y-138560154D01*
X115929251Y-138562477D01*
X115852970Y-138615890D01*
X115746211Y-138690643D01*
X115746208Y-138690645D01*
X115741700Y-138693802D01*
X115579802Y-138855700D01*
X115448477Y-139043251D01*
X115446154Y-139048233D01*
X115446151Y-139048238D01*
X115354039Y-139245775D01*
X115351716Y-139250757D01*
X115292457Y-139471913D01*
X115272502Y-139700000D01*
X115292457Y-139928087D01*
X115351716Y-140149243D01*
X115354039Y-140154225D01*
X115354041Y-140154230D01*
X115381096Y-140212251D01*
X115391757Y-140282443D01*
X115362776Y-140347255D01*
X115303356Y-140386111D01*
X115266901Y-140391500D01*
X110782371Y-140391500D01*
X110714250Y-140371498D01*
X110693276Y-140354595D01*
X110301671Y-139962990D01*
X110267645Y-139900678D01*
X110265245Y-139862913D01*
X110279019Y-139705475D01*
X110279498Y-139700000D01*
X110259543Y-139471913D01*
X110200284Y-139250757D01*
X110197961Y-139245775D01*
X110105849Y-139048238D01*
X110105846Y-139048233D01*
X110103523Y-139043251D01*
X109972198Y-138855700D01*
X109810300Y-138693802D01*
X109778229Y-138671345D01*
X109733901Y-138615890D01*
X109724500Y-138568133D01*
X109724500Y-137783867D01*
X109744502Y-137715746D01*
X109778228Y-137680655D01*
X109810300Y-137658198D01*
X109972198Y-137496300D01*
X110103523Y-137308749D01*
X110105846Y-137303767D01*
X110105849Y-137303762D01*
X110197961Y-137106225D01*
X110197961Y-137106224D01*
X110200284Y-137101243D01*
X110204041Y-137087224D01*
X110258119Y-136885402D01*
X110258120Y-136885399D01*
X110259543Y-136880087D01*
X110279498Y-136652000D01*
X110271081Y-136555789D01*
X110265245Y-136489087D01*
X110279234Y-136419482D01*
X110301671Y-136389010D01*
X111232911Y-135457770D01*
X111247323Y-135445384D01*
X111258918Y-135436851D01*
X111258923Y-135436846D01*
X111264818Y-135432508D01*
X111269557Y-135426930D01*
X111269560Y-135426927D01*
X111299035Y-135392232D01*
X111305965Y-135384716D01*
X111311661Y-135379020D01*
X111313924Y-135376159D01*
X111313929Y-135376154D01*
X111329293Y-135356734D01*
X111332082Y-135353333D01*
X111363519Y-135316329D01*
X111379333Y-135297715D01*
X111382659Y-135291202D01*
X111386020Y-135286163D01*
X111389196Y-135281021D01*
X111393734Y-135275284D01*
X111424655Y-135209125D01*
X111426561Y-135205225D01*
X111436447Y-135185865D01*
X111459769Y-135140192D01*
X111461508Y-135133083D01*
X111463604Y-135127449D01*
X111465523Y-135121679D01*
X111468622Y-135115050D01*
X111483491Y-135043565D01*
X111484461Y-135039282D01*
X111485849Y-135033610D01*
X111501808Y-134968390D01*
X111502500Y-134957236D01*
X111502535Y-134957238D01*
X111502775Y-134953266D01*
X111503152Y-134949045D01*
X111504641Y-134941885D01*
X111502546Y-134864458D01*
X111502500Y-134861050D01*
X111502500Y-133984500D01*
X111522502Y-133916379D01*
X111576158Y-133869886D01*
X111628500Y-133858500D01*
X111642134Y-133858500D01*
X111704316Y-133851745D01*
X111840705Y-133800615D01*
X111957261Y-133713261D01*
X112044615Y-133596705D01*
X112095745Y-133460316D01*
X112102500Y-133398134D01*
X112102500Y-131601866D01*
X112095745Y-131539684D01*
X112044615Y-131403295D01*
X111957261Y-131286739D01*
X111840705Y-131199385D01*
X111721687Y-131154767D01*
X111664923Y-131112125D01*
X111640223Y-131045564D01*
X111655430Y-130976215D01*
X111676977Y-130947535D01*
X111778052Y-130846812D01*
X111784730Y-130838965D01*
X111909003Y-130666020D01*
X111914313Y-130657183D01*
X112008670Y-130466267D01*
X112012469Y-130456672D01*
X112074377Y-130252910D01*
X112076555Y-130242837D01*
X112077986Y-130231962D01*
X112075775Y-130217778D01*
X112062617Y-130214000D01*
X109427225Y-130214000D01*
X109413694Y-130217973D01*
X109412257Y-130227966D01*
X109442565Y-130362446D01*
X109445645Y-130372275D01*
X109525770Y-130569603D01*
X109530413Y-130578794D01*
X109641694Y-130760388D01*
X109647777Y-130768699D01*
X109787213Y-130929667D01*
X109794577Y-130936879D01*
X109799522Y-130940985D01*
X109839156Y-130999889D01*
X109840653Y-131070870D01*
X109803537Y-131131392D01*
X109763264Y-131155910D01*
X109655705Y-131196232D01*
X109655704Y-131196233D01*
X109647295Y-131199385D01*
X109530739Y-131286739D01*
X109443385Y-131403295D01*
X109392255Y-131539684D01*
X109385500Y-131601866D01*
X109385500Y-133398134D01*
X109392255Y-133460316D01*
X109443385Y-133596705D01*
X109530739Y-133713261D01*
X109647295Y-133800615D01*
X109783684Y-133851745D01*
X109845866Y-133858500D01*
X109859500Y-133858500D01*
X109927621Y-133878502D01*
X109974114Y-133932158D01*
X109985500Y-133984500D01*
X109985500Y-134507629D01*
X109965498Y-134575750D01*
X109948595Y-134596724D01*
X109228990Y-135316329D01*
X109166678Y-135350355D01*
X109128913Y-135352755D01*
X108971475Y-135338981D01*
X108966000Y-135338502D01*
X108737913Y-135358457D01*
X108732600Y-135359881D01*
X108732598Y-135359881D01*
X108522067Y-135416293D01*
X108522065Y-135416294D01*
X108516757Y-135417716D01*
X108511776Y-135420039D01*
X108511775Y-135420039D01*
X108314238Y-135512151D01*
X108314233Y-135512154D01*
X108309251Y-135514477D01*
X108204389Y-135587902D01*
X108126211Y-135642643D01*
X108126208Y-135642645D01*
X108121700Y-135645802D01*
X107959802Y-135807700D01*
X107828477Y-135995251D01*
X107826154Y-136000233D01*
X107826151Y-136000238D01*
X107813679Y-136026985D01*
X107731716Y-136202757D01*
X107730294Y-136208065D01*
X107730293Y-136208067D01*
X107673881Y-136418598D01*
X107672457Y-136423913D01*
X107652502Y-136652000D01*
X107672457Y-136880087D01*
X107673880Y-136885399D01*
X107673881Y-136885402D01*
X107727960Y-137087224D01*
X107731716Y-137101243D01*
X107734039Y-137106224D01*
X107734039Y-137106225D01*
X107826151Y-137303762D01*
X107826154Y-137303767D01*
X107828477Y-137308749D01*
X107959802Y-137496300D01*
X108121700Y-137658198D01*
X108153771Y-137680655D01*
X108198099Y-137736110D01*
X108207500Y-137783867D01*
X108207500Y-138568133D01*
X108187498Y-138636254D01*
X108153772Y-138671345D01*
X108121700Y-138693802D01*
X107959802Y-138855700D01*
X107828477Y-139043251D01*
X107826154Y-139048233D01*
X107826151Y-139048238D01*
X107734039Y-139245775D01*
X107731716Y-139250757D01*
X107672457Y-139471913D01*
X107652502Y-139700000D01*
X107308500Y-139700000D01*
X107308500Y-121666000D01*
X108922502Y-121666000D01*
X108942457Y-121894087D01*
X109001716Y-122115243D01*
X109004039Y-122120224D01*
X109004039Y-122120225D01*
X109096151Y-122317762D01*
X109096154Y-122317767D01*
X109098477Y-122322749D01*
X109229802Y-122510300D01*
X109391700Y-122672198D01*
X109396208Y-122675355D01*
X109396211Y-122675357D01*
X109474389Y-122730098D01*
X109579251Y-122803523D01*
X109584233Y-122805846D01*
X109584238Y-122805849D01*
X109781775Y-122897961D01*
X109786757Y-122900284D01*
X109792065Y-122901706D01*
X109792067Y-122901707D01*
X110002598Y-122958119D01*
X110002600Y-122958119D01*
X110007913Y-122959543D01*
X110236000Y-122979498D01*
X110464087Y-122959543D01*
X110469400Y-122958119D01*
X110469402Y-122958119D01*
X110679933Y-122901707D01*
X110679935Y-122901706D01*
X110685243Y-122900284D01*
X110690225Y-122897961D01*
X110887762Y-122805849D01*
X110887767Y-122805846D01*
X110892749Y-122803523D01*
X110997611Y-122730098D01*
X111075789Y-122675357D01*
X111075792Y-122675355D01*
X111080300Y-122672198D01*
X111242198Y-122510300D01*
X111373523Y-122322749D01*
X111375846Y-122317767D01*
X111375849Y-122317762D01*
X111467961Y-122120225D01*
X111467961Y-122120224D01*
X111470284Y-122115243D01*
X111529543Y-121894087D01*
X111549498Y-121666000D01*
X111970502Y-121666000D01*
X111990457Y-121894087D01*
X112049716Y-122115243D01*
X112052039Y-122120224D01*
X112052039Y-122120225D01*
X112144151Y-122317762D01*
X112144154Y-122317767D01*
X112146477Y-122322749D01*
X112277802Y-122510300D01*
X112439700Y-122672198D01*
X112444208Y-122675355D01*
X112444211Y-122675357D01*
X112522389Y-122730098D01*
X112627251Y-122803523D01*
X112632233Y-122805846D01*
X112632238Y-122805849D01*
X112829775Y-122897961D01*
X112834757Y-122900284D01*
X112840065Y-122901706D01*
X112840067Y-122901707D01*
X113050598Y-122958119D01*
X113050600Y-122958119D01*
X113055913Y-122959543D01*
X113284000Y-122979498D01*
X113512087Y-122959543D01*
X113517400Y-122958119D01*
X113517402Y-122958119D01*
X113727933Y-122901707D01*
X113727935Y-122901706D01*
X113733243Y-122900284D01*
X113738225Y-122897961D01*
X113935762Y-122805849D01*
X113935767Y-122805846D01*
X113940749Y-122803523D01*
X114045611Y-122730098D01*
X114123789Y-122675357D01*
X114123792Y-122675355D01*
X114128300Y-122672198D01*
X114290198Y-122510300D01*
X114421523Y-122322749D01*
X114423846Y-122317767D01*
X114423849Y-122317762D01*
X114515961Y-122120225D01*
X114515961Y-122120224D01*
X114518284Y-122115243D01*
X114577543Y-121894087D01*
X114597498Y-121666000D01*
X115018502Y-121666000D01*
X115038457Y-121894087D01*
X115097716Y-122115243D01*
X115100039Y-122120224D01*
X115100039Y-122120225D01*
X115192151Y-122317762D01*
X115192154Y-122317767D01*
X115194477Y-122322749D01*
X115325802Y-122510300D01*
X115487700Y-122672198D01*
X115492208Y-122675355D01*
X115492211Y-122675357D01*
X115570389Y-122730098D01*
X115675251Y-122803523D01*
X115680233Y-122805846D01*
X115680238Y-122805849D01*
X115877775Y-122897961D01*
X115882757Y-122900284D01*
X115888065Y-122901706D01*
X115888067Y-122901707D01*
X116098598Y-122958119D01*
X116098600Y-122958119D01*
X116103913Y-122959543D01*
X116332000Y-122979498D01*
X116560087Y-122959543D01*
X116565400Y-122958119D01*
X116565402Y-122958119D01*
X116775933Y-122901707D01*
X116775935Y-122901706D01*
X116781243Y-122900284D01*
X116786225Y-122897961D01*
X116983762Y-122805849D01*
X116983767Y-122805846D01*
X116988749Y-122803523D01*
X117093611Y-122730098D01*
X117171789Y-122675357D01*
X117171792Y-122675355D01*
X117176300Y-122672198D01*
X117338198Y-122510300D01*
X117469523Y-122322749D01*
X117471846Y-122317767D01*
X117471849Y-122317762D01*
X117563961Y-122120225D01*
X117563961Y-122120224D01*
X117566284Y-122115243D01*
X117625543Y-121894087D01*
X117645498Y-121666000D01*
X117625543Y-121437913D01*
X117566284Y-121216757D01*
X117563961Y-121211775D01*
X117471849Y-121014238D01*
X117471846Y-121014233D01*
X117469523Y-121009251D01*
X117338198Y-120821700D01*
X117176300Y-120659802D01*
X117171792Y-120656645D01*
X117171789Y-120656643D01*
X117093611Y-120601902D01*
X116988749Y-120528477D01*
X116983767Y-120526154D01*
X116983762Y-120526151D01*
X116786225Y-120434039D01*
X116786224Y-120434039D01*
X116781243Y-120431716D01*
X116775935Y-120430294D01*
X116775933Y-120430293D01*
X116565402Y-120373881D01*
X116565400Y-120373881D01*
X116560087Y-120372457D01*
X116332000Y-120352502D01*
X116103913Y-120372457D01*
X116098600Y-120373881D01*
X116098598Y-120373881D01*
X115888067Y-120430293D01*
X115888065Y-120430294D01*
X115882757Y-120431716D01*
X115877776Y-120434039D01*
X115877775Y-120434039D01*
X115680238Y-120526151D01*
X115680233Y-120526154D01*
X115675251Y-120528477D01*
X115570389Y-120601902D01*
X115492211Y-120656643D01*
X115492208Y-120656645D01*
X115487700Y-120659802D01*
X115325802Y-120821700D01*
X115194477Y-121009251D01*
X115192154Y-121014233D01*
X115192151Y-121014238D01*
X115100039Y-121211775D01*
X115097716Y-121216757D01*
X115038457Y-121437913D01*
X115018502Y-121666000D01*
X114597498Y-121666000D01*
X114577543Y-121437913D01*
X114518284Y-121216757D01*
X114515961Y-121211775D01*
X114423849Y-121014238D01*
X114423846Y-121014233D01*
X114421523Y-121009251D01*
X114290198Y-120821700D01*
X114128300Y-120659802D01*
X114123792Y-120656645D01*
X114123789Y-120656643D01*
X114045611Y-120601902D01*
X113940749Y-120528477D01*
X113935767Y-120526154D01*
X113935762Y-120526151D01*
X113738225Y-120434039D01*
X113738224Y-120434039D01*
X113733243Y-120431716D01*
X113727935Y-120430294D01*
X113727933Y-120430293D01*
X113517402Y-120373881D01*
X113517400Y-120373881D01*
X113512087Y-120372457D01*
X113284000Y-120352502D01*
X113055913Y-120372457D01*
X113050600Y-120373881D01*
X113050598Y-120373881D01*
X112840067Y-120430293D01*
X112840065Y-120430294D01*
X112834757Y-120431716D01*
X112829776Y-120434039D01*
X112829775Y-120434039D01*
X112632238Y-120526151D01*
X112632233Y-120526154D01*
X112627251Y-120528477D01*
X112522389Y-120601902D01*
X112444211Y-120656643D01*
X112444208Y-120656645D01*
X112439700Y-120659802D01*
X112277802Y-120821700D01*
X112146477Y-121009251D01*
X112144154Y-121014233D01*
X112144151Y-121014238D01*
X112052039Y-121211775D01*
X112049716Y-121216757D01*
X111990457Y-121437913D01*
X111970502Y-121666000D01*
X111549498Y-121666000D01*
X111529543Y-121437913D01*
X111470284Y-121216757D01*
X111467961Y-121211775D01*
X111375849Y-121014238D01*
X111375846Y-121014233D01*
X111373523Y-121009251D01*
X111242198Y-120821700D01*
X111080300Y-120659802D01*
X111075792Y-120656645D01*
X111075789Y-120656643D01*
X110997611Y-120601902D01*
X110892749Y-120528477D01*
X110887767Y-120526154D01*
X110887762Y-120526151D01*
X110690225Y-120434039D01*
X110690224Y-120434039D01*
X110685243Y-120431716D01*
X110679935Y-120430294D01*
X110679933Y-120430293D01*
X110469402Y-120373881D01*
X110469400Y-120373881D01*
X110464087Y-120372457D01*
X110236000Y-120352502D01*
X110007913Y-120372457D01*
X110002600Y-120373881D01*
X110002598Y-120373881D01*
X109792067Y-120430293D01*
X109792065Y-120430294D01*
X109786757Y-120431716D01*
X109781776Y-120434039D01*
X109781775Y-120434039D01*
X109584238Y-120526151D01*
X109584233Y-120526154D01*
X109579251Y-120528477D01*
X109474389Y-120601902D01*
X109396211Y-120656643D01*
X109396208Y-120656645D01*
X109391700Y-120659802D01*
X109229802Y-120821700D01*
X109098477Y-121009251D01*
X109096154Y-121014233D01*
X109096151Y-121014238D01*
X109004039Y-121211775D01*
X109001716Y-121216757D01*
X108942457Y-121437913D01*
X108922502Y-121666000D01*
X107308500Y-121666000D01*
X107308500Y-114046000D01*
X108922502Y-114046000D01*
X108942457Y-114274087D01*
X109001716Y-114495243D01*
X109004039Y-114500224D01*
X109004039Y-114500225D01*
X109096151Y-114697762D01*
X109096154Y-114697767D01*
X109098477Y-114702749D01*
X109229802Y-114890300D01*
X109391700Y-115052198D01*
X109423771Y-115074655D01*
X109468099Y-115130110D01*
X109477500Y-115177867D01*
X109477500Y-115248930D01*
X109476067Y-115267880D01*
X109473964Y-115281707D01*
X109472801Y-115289349D01*
X109473394Y-115296641D01*
X109473394Y-115296644D01*
X109477085Y-115342018D01*
X109477500Y-115352233D01*
X109477500Y-115360293D01*
X109477925Y-115363937D01*
X109480789Y-115388507D01*
X109481222Y-115392882D01*
X109487140Y-115465637D01*
X109489396Y-115472601D01*
X109490587Y-115478560D01*
X109491971Y-115484415D01*
X109492818Y-115491681D01*
X109517735Y-115560327D01*
X109519152Y-115564455D01*
X109541649Y-115633899D01*
X109545445Y-115640154D01*
X109547951Y-115645628D01*
X109550670Y-115651058D01*
X109553167Y-115657937D01*
X109557180Y-115664057D01*
X109557180Y-115664058D01*
X109593186Y-115718976D01*
X109595523Y-115722680D01*
X109633405Y-115785107D01*
X109637121Y-115789315D01*
X109637122Y-115789316D01*
X109640803Y-115793484D01*
X109640776Y-115793508D01*
X109643429Y-115796500D01*
X109646132Y-115799733D01*
X109650144Y-115805852D01*
X109655456Y-115810884D01*
X109706383Y-115859128D01*
X109708825Y-115861506D01*
X112192230Y-118344911D01*
X112204616Y-118359323D01*
X112213149Y-118370918D01*
X112213154Y-118370923D01*
X112217492Y-118376818D01*
X112223070Y-118381557D01*
X112223073Y-118381560D01*
X112257768Y-118411035D01*
X112265284Y-118417965D01*
X112270979Y-118423660D01*
X112273861Y-118425940D01*
X112293251Y-118441281D01*
X112296655Y-118444072D01*
X112346703Y-118486591D01*
X112352285Y-118491333D01*
X112358801Y-118494661D01*
X112363838Y-118498020D01*
X112368977Y-118501194D01*
X112374716Y-118505734D01*
X112381349Y-118508834D01*
X112440837Y-118536636D01*
X112444791Y-118538569D01*
X112509808Y-118571769D01*
X112516924Y-118573510D01*
X112522554Y-118575604D01*
X112528321Y-118577523D01*
X112534950Y-118580621D01*
X112542110Y-118582110D01*
X112542112Y-118582111D01*
X112606396Y-118595482D01*
X112610680Y-118596452D01*
X112681610Y-118613808D01*
X112687212Y-118614156D01*
X112687215Y-118614156D01*
X112692764Y-118614500D01*
X112692762Y-118614536D01*
X112696752Y-118614775D01*
X112700950Y-118615150D01*
X112708115Y-118616640D01*
X112785520Y-118614546D01*
X112788928Y-118614500D01*
X120234967Y-118614500D01*
X120303088Y-118634502D01*
X120335792Y-118664934D01*
X120402739Y-118754261D01*
X120519295Y-118841615D01*
X120655684Y-118892745D01*
X120717866Y-118899500D01*
X122614134Y-118899500D01*
X122676316Y-118892745D01*
X122812705Y-118841615D01*
X122929261Y-118754261D01*
X123016615Y-118637705D01*
X123067745Y-118501316D01*
X123074500Y-118439134D01*
X123074500Y-117272866D01*
X123067745Y-117210684D01*
X123016615Y-117074295D01*
X123013046Y-117069533D01*
X122998201Y-117001662D01*
X123003525Y-116973250D01*
X123056311Y-116802725D01*
X123058133Y-116796840D01*
X123059643Y-116782478D01*
X123078879Y-116599449D01*
X123078879Y-116599447D01*
X123079523Y-116593320D01*
X123060976Y-116389522D01*
X123003198Y-116193207D01*
X122999200Y-116185558D01*
X122908388Y-116011853D01*
X122909934Y-116011045D01*
X122891769Y-115951040D01*
X122906929Y-115890057D01*
X122923652Y-115859128D01*
X122997619Y-115722329D01*
X123058133Y-115526840D01*
X123059022Y-115518388D01*
X123078879Y-115329449D01*
X123078879Y-115329447D01*
X123079523Y-115323320D01*
X123060976Y-115119522D01*
X123058844Y-115112276D01*
X123004938Y-114929120D01*
X123003198Y-114923207D01*
X122983637Y-114885789D01*
X122908388Y-114741853D01*
X122909934Y-114741045D01*
X122891769Y-114681040D01*
X122906929Y-114620057D01*
X122938905Y-114560918D01*
X122997619Y-114452329D01*
X123058133Y-114256840D01*
X123079523Y-114053320D01*
X123060976Y-113849522D01*
X123053629Y-113824557D01*
X123004938Y-113659120D01*
X123003198Y-113653207D01*
X122908388Y-113471853D01*
X122780160Y-113312369D01*
X122623396Y-113180828D01*
X122444067Y-113082242D01*
X122438200Y-113080381D01*
X122438198Y-113080380D01*
X122300323Y-113036643D01*
X122249006Y-113020364D01*
X122089744Y-113002500D01*
X121249505Y-113002500D01*
X121097336Y-113017420D01*
X120901429Y-113076568D01*
X120885180Y-113085208D01*
X120726184Y-113169747D01*
X120726181Y-113169749D01*
X120720742Y-113172641D01*
X120715972Y-113176531D01*
X120715968Y-113176534D01*
X120614680Y-113259143D01*
X120549248Y-113286697D01*
X120535044Y-113287500D01*
X118984371Y-113287500D01*
X118916250Y-113267498D01*
X118895276Y-113250595D01*
X117677770Y-112033089D01*
X117665384Y-112018677D01*
X117656851Y-112007082D01*
X117656846Y-112007077D01*
X117652508Y-112001182D01*
X117646930Y-111996443D01*
X117646927Y-111996440D01*
X117612232Y-111966965D01*
X117604716Y-111960035D01*
X117599021Y-111954340D01*
X117592880Y-111949482D01*
X117576749Y-111936719D01*
X117573345Y-111933928D01*
X117523297Y-111891409D01*
X117523295Y-111891408D01*
X117517715Y-111886667D01*
X117511199Y-111883339D01*
X117506150Y-111879972D01*
X117501021Y-111876805D01*
X117495284Y-111872266D01*
X117429125Y-111841345D01*
X117425225Y-111839439D01*
X117360192Y-111806231D01*
X117353084Y-111804492D01*
X117347441Y-111802393D01*
X117341678Y-111800476D01*
X117335050Y-111797378D01*
X117263583Y-111782513D01*
X117259299Y-111781543D01*
X117224958Y-111773140D01*
X117188390Y-111764192D01*
X117182788Y-111763844D01*
X117182785Y-111763844D01*
X117177236Y-111763500D01*
X117177238Y-111763464D01*
X117173245Y-111763225D01*
X117169053Y-111762851D01*
X117161885Y-111761360D01*
X117098120Y-111763085D01*
X117084479Y-111763454D01*
X117081072Y-111763500D01*
X114875063Y-111763500D01*
X114856114Y-111762067D01*
X114855907Y-111762036D01*
X114834651Y-111758802D01*
X114827359Y-111759395D01*
X114827356Y-111759395D01*
X114781991Y-111763085D01*
X114771777Y-111763500D01*
X114763707Y-111763500D01*
X114760087Y-111763922D01*
X114760069Y-111763923D01*
X114735461Y-111766792D01*
X114731100Y-111767224D01*
X114705981Y-111769267D01*
X114665661Y-111772546D01*
X114665658Y-111772547D01*
X114658363Y-111773140D01*
X114651399Y-111775396D01*
X114645440Y-111776587D01*
X114639585Y-111777971D01*
X114632319Y-111778818D01*
X114563673Y-111803735D01*
X114559545Y-111805152D01*
X114497064Y-111825393D01*
X114497062Y-111825394D01*
X114490101Y-111827649D01*
X114483846Y-111831445D01*
X114478372Y-111833951D01*
X114472942Y-111836670D01*
X114466063Y-111839167D01*
X114405016Y-111879191D01*
X114401327Y-111881518D01*
X114392843Y-111886667D01*
X114343693Y-111916491D01*
X114343688Y-111916495D01*
X114338892Y-111919405D01*
X114330516Y-111926803D01*
X114330493Y-111926777D01*
X114327503Y-111929426D01*
X114324264Y-111932134D01*
X114318148Y-111936144D01*
X114313121Y-111941451D01*
X114313117Y-111941454D01*
X114264872Y-111992383D01*
X114262494Y-111994825D01*
X113546990Y-112710329D01*
X113484678Y-112744355D01*
X113446913Y-112746755D01*
X113289475Y-112732981D01*
X113284000Y-112732502D01*
X113055913Y-112752457D01*
X113050600Y-112753881D01*
X113050598Y-112753881D01*
X112840067Y-112810293D01*
X112840065Y-112810294D01*
X112834757Y-112811716D01*
X112829776Y-112814039D01*
X112829775Y-112814039D01*
X112632238Y-112906151D01*
X112632233Y-112906154D01*
X112627251Y-112908477D01*
X112522389Y-112981902D01*
X112444211Y-113036643D01*
X112444208Y-113036645D01*
X112439700Y-113039802D01*
X112277802Y-113201700D01*
X112146477Y-113389251D01*
X112144154Y-113394233D01*
X112144151Y-113394238D01*
X112074197Y-113544256D01*
X112049716Y-113596757D01*
X112048294Y-113602065D01*
X112048293Y-113602067D01*
X112034590Y-113653207D01*
X111990457Y-113817913D01*
X111970502Y-114046000D01*
X111990457Y-114274087D01*
X112049716Y-114495243D01*
X112052039Y-114500224D01*
X112052039Y-114500225D01*
X112144151Y-114697762D01*
X112144154Y-114697767D01*
X112146477Y-114702749D01*
X112277802Y-114890300D01*
X112439700Y-115052198D01*
X112444208Y-115055355D01*
X112444211Y-115055357D01*
X112471769Y-115074653D01*
X112627251Y-115183523D01*
X112632233Y-115185846D01*
X112632238Y-115185849D01*
X112787955Y-115258460D01*
X112834757Y-115280284D01*
X112840065Y-115281706D01*
X112840067Y-115281707D01*
X113050598Y-115338119D01*
X113050600Y-115338119D01*
X113055913Y-115339543D01*
X113284000Y-115359498D01*
X113512087Y-115339543D01*
X113517400Y-115338119D01*
X113517402Y-115338119D01*
X113727933Y-115281707D01*
X113727935Y-115281706D01*
X113733243Y-115280284D01*
X113780045Y-115258460D01*
X113935762Y-115185849D01*
X113935767Y-115185846D01*
X113940749Y-115183523D01*
X114096231Y-115074653D01*
X114123789Y-115055357D01*
X114123792Y-115055355D01*
X114128300Y-115052198D01*
X114290198Y-114890300D01*
X114421523Y-114702749D01*
X114423846Y-114697767D01*
X114423849Y-114697762D01*
X114515961Y-114500225D01*
X114515961Y-114500224D01*
X114518284Y-114495243D01*
X114577543Y-114274087D01*
X114597498Y-114046000D01*
X114583245Y-113883087D01*
X114597234Y-113813482D01*
X114619671Y-113783010D01*
X114872011Y-113530670D01*
X114934323Y-113496644D01*
X115005138Y-113501709D01*
X115061974Y-113544256D01*
X115086785Y-113610776D01*
X115082813Y-113652374D01*
X115038457Y-113817913D01*
X115018502Y-114046000D01*
X115038457Y-114274087D01*
X115097716Y-114495243D01*
X115100039Y-114500224D01*
X115100039Y-114500225D01*
X115192151Y-114697762D01*
X115192154Y-114697767D01*
X115194477Y-114702749D01*
X115325802Y-114890300D01*
X115487700Y-115052198D01*
X115492208Y-115055355D01*
X115492211Y-115055357D01*
X115519769Y-115074653D01*
X115675251Y-115183523D01*
X115680233Y-115185846D01*
X115680238Y-115185849D01*
X115835955Y-115258460D01*
X115882757Y-115280284D01*
X115888065Y-115281706D01*
X115888067Y-115281707D01*
X116098598Y-115338119D01*
X116098600Y-115338119D01*
X116103913Y-115339543D01*
X116332000Y-115359498D01*
X116560087Y-115339543D01*
X116565400Y-115338119D01*
X116565402Y-115338119D01*
X116775933Y-115281707D01*
X116775935Y-115281706D01*
X116781243Y-115280284D01*
X116828045Y-115258460D01*
X116983762Y-115185849D01*
X116983767Y-115185846D01*
X116988749Y-115183523D01*
X117144231Y-115074653D01*
X117171789Y-115055357D01*
X117171792Y-115055355D01*
X117176300Y-115052198D01*
X117338198Y-114890300D01*
X117469523Y-114702749D01*
X117471846Y-114697767D01*
X117471849Y-114697762D01*
X117563961Y-114500225D01*
X117563961Y-114500224D01*
X117566284Y-114495243D01*
X117600306Y-114368272D01*
X117637258Y-114307650D01*
X117701119Y-114276628D01*
X117771613Y-114285057D01*
X117811108Y-114311789D01*
X118034230Y-114534911D01*
X118046616Y-114549323D01*
X118055149Y-114560918D01*
X118055154Y-114560923D01*
X118059492Y-114566818D01*
X118065070Y-114571557D01*
X118065073Y-114571560D01*
X118099768Y-114601035D01*
X118107284Y-114607965D01*
X118112979Y-114613660D01*
X118115861Y-114615940D01*
X118135251Y-114631281D01*
X118138655Y-114634072D01*
X118188703Y-114676591D01*
X118194285Y-114681333D01*
X118200801Y-114684661D01*
X118205838Y-114688020D01*
X118210977Y-114691194D01*
X118216716Y-114695734D01*
X118223349Y-114698834D01*
X118282837Y-114726636D01*
X118286791Y-114728569D01*
X118351808Y-114761769D01*
X118358924Y-114763510D01*
X118364554Y-114765604D01*
X118370321Y-114767523D01*
X118376950Y-114770621D01*
X118384110Y-114772110D01*
X118384112Y-114772111D01*
X118448396Y-114785482D01*
X118452680Y-114786452D01*
X118523610Y-114803808D01*
X118529212Y-114804156D01*
X118529215Y-114804156D01*
X118534764Y-114804500D01*
X118534762Y-114804536D01*
X118538752Y-114804775D01*
X118542950Y-114805150D01*
X118550115Y-114806640D01*
X118627520Y-114804546D01*
X118630928Y-114804500D01*
X120196035Y-114804500D01*
X120264156Y-114824502D01*
X120310649Y-114878158D01*
X120320753Y-114948432D01*
X120316401Y-114967756D01*
X120273867Y-115105160D01*
X120273224Y-115111282D01*
X120273223Y-115111285D01*
X120255461Y-115280284D01*
X120252477Y-115308680D01*
X120254367Y-115329449D01*
X120269757Y-115498553D01*
X120271024Y-115512478D01*
X120328802Y-115708793D01*
X120331655Y-115714251D01*
X120331657Y-115714255D01*
X120423612Y-115890147D01*
X120422066Y-115890955D01*
X120440231Y-115950960D01*
X120425071Y-116011943D01*
X120334381Y-116179671D01*
X120273867Y-116375160D01*
X120273224Y-116381282D01*
X120273223Y-116381285D01*
X120271712Y-116395661D01*
X120252477Y-116578680D01*
X120271024Y-116782478D01*
X120272764Y-116788388D01*
X120272764Y-116788391D01*
X120316185Y-116935926D01*
X120316229Y-117006922D01*
X120277883Y-117066673D01*
X120213321Y-117096206D01*
X120195311Y-117097500D01*
X113142371Y-117097500D01*
X113074250Y-117077498D01*
X113053276Y-117060595D01*
X111151685Y-115159004D01*
X111117659Y-115096692D01*
X111122724Y-115025877D01*
X111151684Y-114980814D01*
X111242198Y-114890300D01*
X111373523Y-114702749D01*
X111375846Y-114697767D01*
X111375849Y-114697762D01*
X111467961Y-114500225D01*
X111467961Y-114500224D01*
X111470284Y-114495243D01*
X111529543Y-114274087D01*
X111549498Y-114046000D01*
X111529543Y-113817913D01*
X111485410Y-113653207D01*
X111471707Y-113602067D01*
X111471706Y-113602065D01*
X111470284Y-113596757D01*
X111445803Y-113544256D01*
X111375849Y-113394238D01*
X111375846Y-113394233D01*
X111373523Y-113389251D01*
X111242198Y-113201700D01*
X111080300Y-113039802D01*
X111075792Y-113036645D01*
X111075789Y-113036643D01*
X110997611Y-112981902D01*
X110892749Y-112908477D01*
X110887767Y-112906154D01*
X110887762Y-112906151D01*
X110690225Y-112814039D01*
X110690224Y-112814039D01*
X110685243Y-112811716D01*
X110679935Y-112810294D01*
X110679933Y-112810293D01*
X110469402Y-112753881D01*
X110469400Y-112753881D01*
X110464087Y-112752457D01*
X110236000Y-112732502D01*
X110007913Y-112752457D01*
X110002600Y-112753881D01*
X110002598Y-112753881D01*
X109792067Y-112810293D01*
X109792065Y-112810294D01*
X109786757Y-112811716D01*
X109781776Y-112814039D01*
X109781775Y-112814039D01*
X109584238Y-112906151D01*
X109584233Y-112906154D01*
X109579251Y-112908477D01*
X109474389Y-112981902D01*
X109396211Y-113036643D01*
X109396208Y-113036645D01*
X109391700Y-113039802D01*
X109229802Y-113201700D01*
X109098477Y-113389251D01*
X109096154Y-113394233D01*
X109096151Y-113394238D01*
X109026197Y-113544256D01*
X109001716Y-113596757D01*
X109000294Y-113602065D01*
X109000293Y-113602067D01*
X108986590Y-113653207D01*
X108942457Y-113817913D01*
X108922502Y-114046000D01*
X107308500Y-114046000D01*
X107308500Y-111334500D01*
X107328502Y-111266379D01*
X107382158Y-111219886D01*
X107434500Y-111208500D01*
X126165500Y-111208500D01*
X126233621Y-111228502D01*
G37*
G04 #@! TD.AperFunction*
G04 #@! TA.AperFunction,Conductor*
G36*
X122994959Y-134179339D02*
G01*
X123040195Y-134231543D01*
X123056151Y-134265762D01*
X123056154Y-134265767D01*
X123058477Y-134270749D01*
X123189802Y-134458300D01*
X123351700Y-134620198D01*
X123393771Y-134649657D01*
X123438099Y-134705112D01*
X123447500Y-134752869D01*
X123447500Y-135395233D01*
X123427498Y-135463354D01*
X123410595Y-135484328D01*
X123276699Y-135618224D01*
X123155411Y-135791442D01*
X123153090Y-135796420D01*
X123153088Y-135796423D01*
X123069919Y-135974781D01*
X123023002Y-136028066D01*
X122954725Y-136047527D01*
X122886765Y-136026985D01*
X122841529Y-135974780D01*
X122758479Y-135796677D01*
X122753001Y-135787189D01*
X122731689Y-135756752D01*
X122721212Y-135748377D01*
X122707764Y-135755446D01*
X121062724Y-137400486D01*
X121056294Y-137412261D01*
X121065590Y-137424276D01*
X121095189Y-137445001D01*
X121104677Y-137450479D01*
X121286277Y-137535159D01*
X121296571Y-137538907D01*
X121490122Y-137590769D01*
X121500909Y-137592671D01*
X121634252Y-137604337D01*
X121700371Y-137630200D01*
X121742010Y-137687704D01*
X121745951Y-137758591D01*
X121712366Y-137818953D01*
X119176724Y-140354595D01*
X119114412Y-140388621D01*
X119087629Y-140391500D01*
X117905099Y-140391500D01*
X117836978Y-140371498D01*
X117790485Y-140317842D01*
X117780381Y-140247568D01*
X117790904Y-140212251D01*
X117817959Y-140154230D01*
X117817961Y-140154225D01*
X117820284Y-140149243D01*
X117879543Y-139928087D01*
X117899498Y-139700000D01*
X117885245Y-139537087D01*
X117899234Y-139467482D01*
X117921671Y-139437010D01*
X120432732Y-136925949D01*
X120495044Y-136891923D01*
X120565859Y-136896988D01*
X120622695Y-136939535D01*
X120636022Y-136961796D01*
X120653519Y-136999319D01*
X120658999Y-137008811D01*
X120680311Y-137039248D01*
X120690788Y-137047623D01*
X120704236Y-137040554D01*
X122349276Y-135395514D01*
X122355706Y-135383739D01*
X122346410Y-135371724D01*
X122316811Y-135350999D01*
X122307323Y-135345521D01*
X122125723Y-135260841D01*
X122115429Y-135257093D01*
X121921878Y-135205231D01*
X121911091Y-135203329D01*
X121711475Y-135185865D01*
X121700525Y-135185865D01*
X121500909Y-135203329D01*
X121490119Y-135205231D01*
X121462578Y-135212611D01*
X121391602Y-135210921D01*
X121332806Y-135171127D01*
X121304858Y-135105863D01*
X121316631Y-135035849D01*
X121340872Y-135001809D01*
X121393010Y-134949671D01*
X121455322Y-134915645D01*
X121493087Y-134913245D01*
X121650525Y-134927019D01*
X121656000Y-134927498D01*
X121884087Y-134907543D01*
X121889400Y-134906119D01*
X121889402Y-134906119D01*
X122099933Y-134849707D01*
X122099935Y-134849706D01*
X122105243Y-134848284D01*
X122110225Y-134845961D01*
X122307762Y-134753849D01*
X122307767Y-134753846D01*
X122312749Y-134751523D01*
X122478231Y-134635651D01*
X122495789Y-134623357D01*
X122495792Y-134623355D01*
X122500300Y-134620198D01*
X122662198Y-134458300D01*
X122793523Y-134270749D01*
X122795846Y-134265767D01*
X122795849Y-134265762D01*
X122811805Y-134231543D01*
X122858722Y-134178258D01*
X122926999Y-134158797D01*
X122994959Y-134179339D01*
G37*
G04 #@! TD.AperFunction*
M02*
