G04 #@! TF.GenerationSoftware,KiCad,Pcbnew,6.0.11-2627ca5db0~126~ubuntu20.04.1*
G04 #@! TF.CreationDate,2023-10-24T11:05:38+02:00*
G04 #@! TF.ProjectId,attiny85_I2C_RGB_LED_v21,61747469-6e79-4383-955f-4932435f5247,2.0*
G04 #@! TF.SameCoordinates,Original*
G04 #@! TF.FileFunction,Legend,Top*
G04 #@! TF.FilePolarity,Positive*
%FSLAX46Y46*%
G04 Gerber Fmt 4.6, Leading zero omitted, Abs format (unit mm)*
G04 Created by KiCad (PCBNEW 6.0.11-2627ca5db0~126~ubuntu20.04.1) date 2023-10-24 11:05:38*
%MOMM*%
%LPD*%
G01*
G04 APERTURE LIST*
G04 Aperture macros list*
%AMRoundRect*
0 Rectangle with rounded corners*
0 $1 Rounding radius*
0 $2 $3 $4 $5 $6 $7 $8 $9 X,Y pos of 4 corners*
0 Add a 4 corners polygon primitive as box body*
4,1,4,$2,$3,$4,$5,$6,$7,$8,$9,$2,$3,0*
0 Add four circle primitives for the rounded corners*
1,1,$1+$1,$2,$3*
1,1,$1+$1,$4,$5*
1,1,$1+$1,$6,$7*
1,1,$1+$1,$8,$9*
0 Add four rect primitives between the rounded corners*
20,1,$1+$1,$2,$3,$4,$5,0*
20,1,$1+$1,$4,$5,$6,$7,0*
20,1,$1+$1,$6,$7,$8,$9,0*
20,1,$1+$1,$8,$9,$2,$3,0*%
%AMFreePoly0*
4,1,37,0.536062,0.786062,0.551000,0.750000,0.551000,-0.750000,0.536062,-0.786062,0.500000,-0.801000,0.000000,-0.801000,-0.012525,-0.795812,-0.080875,-0.794559,-0.095149,-0.792248,-0.230464,-0.749973,-0.243516,-0.743747,-0.361526,-0.665192,-0.372306,-0.655554,-0.463526,-0.547035,-0.471167,-0.534759,-0.528262,-0.405000,-0.532150,-0.391073,-0.549733,-0.256613,-0.548336,-0.256430,-0.551000,-0.250000,
-0.551000,0.250000,-0.550512,0.251179,-0.550356,0.263956,-0.528545,0.404033,-0.524317,0.417860,-0.464069,0.546185,-0.456130,0.558271,-0.362286,0.664529,-0.351274,0.673901,-0.231379,0.749549,-0.218180,0.755454,-0.081873,0.794411,-0.067546,0.796373,-0.011990,0.796033,0.000000,0.801000,0.500000,0.801000,0.536062,0.786062,0.536062,0.786062,$1*%
%AMFreePoly1*
4,1,37,0.012349,0.795885,0.074216,0.795507,0.088518,0.793370,0.224339,0.752751,0.237465,0.746685,0.356427,0.669578,0.367324,0.660073,0.459862,0.552676,0.467652,0.540494,0.526329,0.411442,0.530388,0.397563,0.550485,0.257230,0.551000,0.250000,0.551000,-0.250000,0.550996,-0.250622,0.550847,-0.262838,0.550144,-0.270677,0.526624,-0.410478,0.522228,-0.424254,0.460416,-0.551833,
0.452330,-0.563821,0.357195,-0.668925,0.346069,-0.678161,0.225259,-0.752338,0.211989,-0.758081,0.075216,-0.795370,0.060866,-0.797157,0.011464,-0.796251,0.000000,-0.801000,-0.500000,-0.801000,-0.536062,-0.786062,-0.551000,-0.750000,-0.551000,0.750000,-0.536062,0.786062,-0.500000,0.801000,0.000000,0.801000,0.012349,0.795885,0.012349,0.795885,$1*%
G04 Aperture macros list end*
%ADD10C,0.600000*%
%ADD11C,0.150000*%
%ADD12C,0.120000*%
%ADD13C,0.010000*%
%ADD14C,1.702000*%
%ADD15O,1.702000X1.702000*%
%ADD16RoundRect,0.051000X-0.800000X0.800000X-0.800000X-0.800000X0.800000X-0.800000X0.800000X0.800000X0*%
%ADD17C,1.502000*%
%ADD18RoundRect,0.051000X0.900000X-0.535000X0.900000X0.535000X-0.900000X0.535000X-0.900000X-0.535000X0*%
%ADD19O,1.902000X1.172000*%
%ADD20RoundRect,0.051000X0.850000X0.850000X-0.850000X0.850000X-0.850000X-0.850000X0.850000X-0.850000X0*%
%ADD21O,1.802000X1.802000*%
%ADD22FreePoly0,180.000000*%
%ADD23FreePoly1,180.000000*%
G04 APERTURE END LIST*
D10*
X126125421Y-125984000D02*
G75*
G03*
X126125421Y-125984000I-141421J0D01*
G01*
D11*
X108795523Y-145141904D02*
X108795523Y-144341904D01*
X108986000Y-144341904D01*
X109100285Y-144380000D01*
X109176476Y-144456190D01*
X109214571Y-144532380D01*
X109252666Y-144684761D01*
X109252666Y-144799047D01*
X109214571Y-144951428D01*
X109176476Y-145027619D01*
X109100285Y-145103809D01*
X108986000Y-145141904D01*
X108795523Y-145141904D01*
X109900285Y-145103809D02*
X109824095Y-145141904D01*
X109671714Y-145141904D01*
X109595523Y-145103809D01*
X109557428Y-145027619D01*
X109557428Y-144722857D01*
X109595523Y-144646666D01*
X109671714Y-144608571D01*
X109824095Y-144608571D01*
X109900285Y-144646666D01*
X109938380Y-144722857D01*
X109938380Y-144799047D01*
X109557428Y-144875238D01*
X110243142Y-145103809D02*
X110319333Y-145141904D01*
X110471714Y-145141904D01*
X110547904Y-145103809D01*
X110586000Y-145027619D01*
X110586000Y-144989523D01*
X110547904Y-144913333D01*
X110471714Y-144875238D01*
X110357428Y-144875238D01*
X110281238Y-144837142D01*
X110243142Y-144760952D01*
X110243142Y-144722857D01*
X110281238Y-144646666D01*
X110357428Y-144608571D01*
X110471714Y-144608571D01*
X110547904Y-144646666D01*
X110928857Y-145141904D02*
X110928857Y-144608571D01*
X110928857Y-144341904D02*
X110890761Y-144380000D01*
X110928857Y-144418095D01*
X110966952Y-144380000D01*
X110928857Y-144341904D01*
X110928857Y-144418095D01*
X111652666Y-144608571D02*
X111652666Y-145256190D01*
X111614571Y-145332380D01*
X111576476Y-145370476D01*
X111500285Y-145408571D01*
X111386000Y-145408571D01*
X111309809Y-145370476D01*
X111652666Y-145103809D02*
X111576476Y-145141904D01*
X111424095Y-145141904D01*
X111347904Y-145103809D01*
X111309809Y-145065714D01*
X111271714Y-144989523D01*
X111271714Y-144760952D01*
X111309809Y-144684761D01*
X111347904Y-144646666D01*
X111424095Y-144608571D01*
X111576476Y-144608571D01*
X111652666Y-144646666D01*
X112033619Y-144608571D02*
X112033619Y-145141904D01*
X112033619Y-144684761D02*
X112071714Y-144646666D01*
X112147904Y-144608571D01*
X112262190Y-144608571D01*
X112338380Y-144646666D01*
X112376476Y-144722857D01*
X112376476Y-145141904D01*
X113062190Y-145103809D02*
X112986000Y-145141904D01*
X112833619Y-145141904D01*
X112757428Y-145103809D01*
X112719333Y-145027619D01*
X112719333Y-144722857D01*
X112757428Y-144646666D01*
X112833619Y-144608571D01*
X112986000Y-144608571D01*
X113062190Y-144646666D01*
X113100285Y-144722857D01*
X113100285Y-144799047D01*
X112719333Y-144875238D01*
X113786000Y-145141904D02*
X113786000Y-144341904D01*
X113786000Y-145103809D02*
X113709809Y-145141904D01*
X113557428Y-145141904D01*
X113481238Y-145103809D01*
X113443142Y-145065714D01*
X113405047Y-144989523D01*
X113405047Y-144760952D01*
X113443142Y-144684761D01*
X113481238Y-144646666D01*
X113557428Y-144608571D01*
X113709809Y-144608571D01*
X113786000Y-144646666D01*
X114776476Y-145141904D02*
X114776476Y-144341904D01*
X114776476Y-144646666D02*
X114852666Y-144608571D01*
X115005047Y-144608571D01*
X115081238Y-144646666D01*
X115119333Y-144684761D01*
X115157428Y-144760952D01*
X115157428Y-144989523D01*
X115119333Y-145065714D01*
X115081238Y-145103809D01*
X115005047Y-145141904D01*
X114852666Y-145141904D01*
X114776476Y-145103809D01*
X115424095Y-144608571D02*
X115614571Y-145141904D01*
X115805047Y-144608571D02*
X115614571Y-145141904D01*
X115538380Y-145332380D01*
X115500285Y-145370476D01*
X115424095Y-145408571D01*
X117176476Y-145141904D02*
X116909809Y-144760952D01*
X116719333Y-145141904D02*
X116719333Y-144341904D01*
X117024095Y-144341904D01*
X117100285Y-144380000D01*
X117138380Y-144418095D01*
X117176476Y-144494285D01*
X117176476Y-144608571D01*
X117138380Y-144684761D01*
X117100285Y-144722857D01*
X117024095Y-144760952D01*
X116719333Y-144760952D01*
X117633619Y-145141904D02*
X117557428Y-145103809D01*
X117519333Y-145065714D01*
X117481238Y-144989523D01*
X117481238Y-144760952D01*
X117519333Y-144684761D01*
X117557428Y-144646666D01*
X117633619Y-144608571D01*
X117747904Y-144608571D01*
X117824095Y-144646666D01*
X117862190Y-144684761D01*
X117900285Y-144760952D01*
X117900285Y-144989523D01*
X117862190Y-145065714D01*
X117824095Y-145103809D01*
X117747904Y-145141904D01*
X117633619Y-145141904D01*
X118243142Y-145141904D02*
X118243142Y-144341904D01*
X118243142Y-144646666D02*
X118319333Y-144608571D01*
X118471714Y-144608571D01*
X118547904Y-144646666D01*
X118586000Y-144684761D01*
X118624095Y-144760952D01*
X118624095Y-144989523D01*
X118586000Y-145065714D01*
X118547904Y-145103809D01*
X118471714Y-145141904D01*
X118319333Y-145141904D01*
X118243142Y-145103809D01*
X119271714Y-145103809D02*
X119195523Y-145141904D01*
X119043142Y-145141904D01*
X118966952Y-145103809D01*
X118928857Y-145027619D01*
X118928857Y-144722857D01*
X118966952Y-144646666D01*
X119043142Y-144608571D01*
X119195523Y-144608571D01*
X119271714Y-144646666D01*
X119309809Y-144722857D01*
X119309809Y-144799047D01*
X118928857Y-144875238D01*
X119652666Y-145141904D02*
X119652666Y-144608571D01*
X119652666Y-144760952D02*
X119690761Y-144684761D01*
X119728857Y-144646666D01*
X119805047Y-144608571D01*
X119881238Y-144608571D01*
X120033619Y-144608571D02*
X120338380Y-144608571D01*
X120147904Y-144341904D02*
X120147904Y-145027619D01*
X120186000Y-145103809D01*
X120262190Y-145141904D01*
X120338380Y-145141904D01*
X121176476Y-145103809D02*
X121290761Y-145141904D01*
X121481238Y-145141904D01*
X121557428Y-145103809D01*
X121595523Y-145065714D01*
X121633619Y-144989523D01*
X121633619Y-144913333D01*
X121595523Y-144837142D01*
X121557428Y-144799047D01*
X121481238Y-144760952D01*
X121328857Y-144722857D01*
X121252666Y-144684761D01*
X121214571Y-144646666D01*
X121176476Y-144570476D01*
X121176476Y-144494285D01*
X121214571Y-144418095D01*
X121252666Y-144380000D01*
X121328857Y-144341904D01*
X121519333Y-144341904D01*
X121633619Y-144380000D01*
X122281238Y-145103809D02*
X122205047Y-145141904D01*
X122052666Y-145141904D01*
X121976476Y-145103809D01*
X121938380Y-145027619D01*
X121938380Y-144722857D01*
X121976476Y-144646666D01*
X122052666Y-144608571D01*
X122205047Y-144608571D01*
X122281238Y-144646666D01*
X122319333Y-144722857D01*
X122319333Y-144799047D01*
X121938380Y-144875238D01*
X123005047Y-145141904D02*
X123005047Y-144341904D01*
X123005047Y-145103809D02*
X122928857Y-145141904D01*
X122776476Y-145141904D01*
X122700285Y-145103809D01*
X122662190Y-145065714D01*
X122624095Y-144989523D01*
X122624095Y-144760952D01*
X122662190Y-144684761D01*
X122700285Y-144646666D01*
X122776476Y-144608571D01*
X122928857Y-144608571D01*
X123005047Y-144646666D01*
X123728857Y-145141904D02*
X123728857Y-144722857D01*
X123690761Y-144646666D01*
X123614571Y-144608571D01*
X123462190Y-144608571D01*
X123385999Y-144646666D01*
X123728857Y-145103809D02*
X123652666Y-145141904D01*
X123462190Y-145141904D01*
X123385999Y-145103809D01*
X123347904Y-145027619D01*
X123347904Y-144951428D01*
X123385999Y-144875238D01*
X123462190Y-144837142D01*
X123652666Y-144837142D01*
X123728857Y-144799047D01*
X124109809Y-145141904D02*
X124109809Y-144341904D01*
X124185999Y-144837142D02*
X124414571Y-145141904D01*
X124414571Y-144608571D02*
X124109809Y-144913333D01*
X112471333Y-132403904D02*
X112738000Y-133203904D01*
X113004666Y-132403904D01*
X113728476Y-133127714D02*
X113690380Y-133165809D01*
X113576095Y-133203904D01*
X113499904Y-133203904D01*
X113385619Y-133165809D01*
X113309428Y-133089619D01*
X113271333Y-133013428D01*
X113233238Y-132861047D01*
X113233238Y-132746761D01*
X113271333Y-132594380D01*
X113309428Y-132518190D01*
X113385619Y-132442000D01*
X113499904Y-132403904D01*
X113576095Y-132403904D01*
X113690380Y-132442000D01*
X113728476Y-132480095D01*
X114528476Y-133127714D02*
X114490380Y-133165809D01*
X114376095Y-133203904D01*
X114299904Y-133203904D01*
X114185619Y-133165809D01*
X114109428Y-133089619D01*
X114071333Y-133013428D01*
X114033238Y-132861047D01*
X114033238Y-132746761D01*
X114071333Y-132594380D01*
X114109428Y-132518190D01*
X114185619Y-132442000D01*
X114299904Y-132403904D01*
X114376095Y-132403904D01*
X114490380Y-132442000D01*
X114528476Y-132480095D01*
X118084676Y-123298000D02*
X118008485Y-123259904D01*
X117894200Y-123259904D01*
X117779914Y-123298000D01*
X117703723Y-123374190D01*
X117665628Y-123450380D01*
X117627533Y-123602761D01*
X117627533Y-123717047D01*
X117665628Y-123869428D01*
X117703723Y-123945619D01*
X117779914Y-124021809D01*
X117894200Y-124059904D01*
X117970390Y-124059904D01*
X118084676Y-124021809D01*
X118122771Y-123983714D01*
X118122771Y-123717047D01*
X117970390Y-123717047D01*
X118465628Y-124059904D02*
X118465628Y-123259904D01*
X118922771Y-124059904D01*
X118922771Y-123259904D01*
X119303723Y-124059904D02*
X119303723Y-123259904D01*
X119494200Y-123259904D01*
X119608485Y-123298000D01*
X119684676Y-123374190D01*
X119722771Y-123450380D01*
X119760866Y-123602761D01*
X119760866Y-123717047D01*
X119722771Y-123869428D01*
X119684676Y-123945619D01*
X119608485Y-124021809D01*
X119494200Y-124059904D01*
X119303723Y-124059904D01*
X123139333Y-123259904D02*
X123406000Y-124059904D01*
X123672666Y-123259904D01*
X124396476Y-123983714D02*
X124358380Y-124021809D01*
X124244095Y-124059904D01*
X124167904Y-124059904D01*
X124053619Y-124021809D01*
X123977428Y-123945619D01*
X123939333Y-123869428D01*
X123901238Y-123717047D01*
X123901238Y-123602761D01*
X123939333Y-123450380D01*
X123977428Y-123374190D01*
X124053619Y-123298000D01*
X124167904Y-123259904D01*
X124244095Y-123259904D01*
X124358380Y-123298000D01*
X124396476Y-123336095D01*
X125196476Y-123983714D02*
X125158380Y-124021809D01*
X125044095Y-124059904D01*
X124967904Y-124059904D01*
X124853619Y-124021809D01*
X124777428Y-123945619D01*
X124739333Y-123869428D01*
X124701238Y-123717047D01*
X124701238Y-123602761D01*
X124739333Y-123450380D01*
X124777428Y-123374190D01*
X124853619Y-123298000D01*
X124967904Y-123259904D01*
X125044095Y-123259904D01*
X125158380Y-123298000D01*
X125196476Y-123336095D01*
X120834228Y-123983714D02*
X120796133Y-124021809D01*
X120681847Y-124059904D01*
X120605657Y-124059904D01*
X120491371Y-124021809D01*
X120415180Y-123945619D01*
X120377085Y-123869428D01*
X120338990Y-123717047D01*
X120338990Y-123602761D01*
X120377085Y-123450380D01*
X120415180Y-123374190D01*
X120491371Y-123298000D01*
X120605657Y-123259904D01*
X120681847Y-123259904D01*
X120796133Y-123298000D01*
X120834228Y-123336095D01*
X121329466Y-123259904D02*
X121481847Y-123259904D01*
X121558038Y-123298000D01*
X121634228Y-123374190D01*
X121672323Y-123526571D01*
X121672323Y-123793238D01*
X121634228Y-123945619D01*
X121558038Y-124021809D01*
X121481847Y-124059904D01*
X121329466Y-124059904D01*
X121253276Y-124021809D01*
X121177085Y-123945619D01*
X121138990Y-123793238D01*
X121138990Y-123526571D01*
X121177085Y-123374190D01*
X121253276Y-123298000D01*
X121329466Y-123259904D01*
X122015180Y-124059904D02*
X122015180Y-123259904D01*
X122281847Y-123831333D01*
X122548514Y-123259904D01*
X122548514Y-124059904D01*
X107380952Y-112061904D02*
X107380952Y-111261904D01*
X107571428Y-111261904D01*
X107685714Y-111300000D01*
X107761904Y-111376190D01*
X107800000Y-111452380D01*
X107838095Y-111604761D01*
X107838095Y-111719047D01*
X107800000Y-111871428D01*
X107761904Y-111947619D01*
X107685714Y-112023809D01*
X107571428Y-112061904D01*
X107380952Y-112061904D01*
X108485714Y-112023809D02*
X108409523Y-112061904D01*
X108257142Y-112061904D01*
X108180952Y-112023809D01*
X108142857Y-111947619D01*
X108142857Y-111642857D01*
X108180952Y-111566666D01*
X108257142Y-111528571D01*
X108409523Y-111528571D01*
X108485714Y-111566666D01*
X108523809Y-111642857D01*
X108523809Y-111719047D01*
X108142857Y-111795238D01*
X108828571Y-112023809D02*
X108904761Y-112061904D01*
X109057142Y-112061904D01*
X109133333Y-112023809D01*
X109171428Y-111947619D01*
X109171428Y-111909523D01*
X109133333Y-111833333D01*
X109057142Y-111795238D01*
X108942857Y-111795238D01*
X108866666Y-111757142D01*
X108828571Y-111680952D01*
X108828571Y-111642857D01*
X108866666Y-111566666D01*
X108942857Y-111528571D01*
X109057142Y-111528571D01*
X109133333Y-111566666D01*
X109514285Y-112061904D02*
X109514285Y-111528571D01*
X109514285Y-111261904D02*
X109476190Y-111300000D01*
X109514285Y-111338095D01*
X109552380Y-111300000D01*
X109514285Y-111261904D01*
X109514285Y-111338095D01*
X110238095Y-111528571D02*
X110238095Y-112176190D01*
X110200000Y-112252380D01*
X110161904Y-112290476D01*
X110085714Y-112328571D01*
X109971428Y-112328571D01*
X109895238Y-112290476D01*
X110238095Y-112023809D02*
X110161904Y-112061904D01*
X110009523Y-112061904D01*
X109933333Y-112023809D01*
X109895238Y-111985714D01*
X109857142Y-111909523D01*
X109857142Y-111680952D01*
X109895238Y-111604761D01*
X109933333Y-111566666D01*
X110009523Y-111528571D01*
X110161904Y-111528571D01*
X110238095Y-111566666D01*
X110619047Y-111528571D02*
X110619047Y-112061904D01*
X110619047Y-111604761D02*
X110657142Y-111566666D01*
X110733333Y-111528571D01*
X110847619Y-111528571D01*
X110923809Y-111566666D01*
X110961904Y-111642857D01*
X110961904Y-112061904D01*
X111647619Y-112023809D02*
X111571428Y-112061904D01*
X111419047Y-112061904D01*
X111342857Y-112023809D01*
X111304761Y-111947619D01*
X111304761Y-111642857D01*
X111342857Y-111566666D01*
X111419047Y-111528571D01*
X111571428Y-111528571D01*
X111647619Y-111566666D01*
X111685714Y-111642857D01*
X111685714Y-111719047D01*
X111304761Y-111795238D01*
X112371428Y-112061904D02*
X112371428Y-111261904D01*
X112371428Y-112023809D02*
X112295238Y-112061904D01*
X112142857Y-112061904D01*
X112066666Y-112023809D01*
X112028571Y-111985714D01*
X111990476Y-111909523D01*
X111990476Y-111680952D01*
X112028571Y-111604761D01*
X112066666Y-111566666D01*
X112142857Y-111528571D01*
X112295238Y-111528571D01*
X112371428Y-111566666D01*
X113285714Y-111528571D02*
X113438095Y-112061904D01*
X113590476Y-111680952D01*
X113742857Y-112061904D01*
X113895238Y-111528571D01*
X114200000Y-112061904D02*
X114200000Y-111528571D01*
X114200000Y-111261904D02*
X114161904Y-111300000D01*
X114200000Y-111338095D01*
X114238095Y-111300000D01*
X114200000Y-111261904D01*
X114200000Y-111338095D01*
X114466666Y-111528571D02*
X114771428Y-111528571D01*
X114580952Y-111261904D02*
X114580952Y-111947619D01*
X114619047Y-112023809D01*
X114695238Y-112061904D01*
X114771428Y-112061904D01*
X115038095Y-112061904D02*
X115038095Y-111261904D01*
X115380952Y-112061904D02*
X115380952Y-111642857D01*
X115342857Y-111566666D01*
X115266666Y-111528571D01*
X115152380Y-111528571D01*
X115076190Y-111566666D01*
X115038095Y-111604761D01*
X116371428Y-112061904D02*
X116371428Y-111261904D01*
X116828571Y-112061904D02*
X116485714Y-111604761D01*
X116828571Y-111261904D02*
X116371428Y-111719047D01*
X117171428Y-112061904D02*
X117171428Y-111528571D01*
X117171428Y-111261904D02*
X117133333Y-111300000D01*
X117171428Y-111338095D01*
X117209523Y-111300000D01*
X117171428Y-111261904D01*
X117171428Y-111338095D01*
X118009523Y-111985714D02*
X117971428Y-112023809D01*
X117857142Y-112061904D01*
X117780952Y-112061904D01*
X117666666Y-112023809D01*
X117590476Y-111947619D01*
X117552380Y-111871428D01*
X117514285Y-111719047D01*
X117514285Y-111604761D01*
X117552380Y-111452380D01*
X117590476Y-111376190D01*
X117666666Y-111300000D01*
X117780952Y-111261904D01*
X117857142Y-111261904D01*
X117971428Y-111300000D01*
X118009523Y-111338095D01*
X118695238Y-112061904D02*
X118695238Y-111642857D01*
X118657142Y-111566666D01*
X118580952Y-111528571D01*
X118428571Y-111528571D01*
X118352380Y-111566666D01*
X118695238Y-112023809D02*
X118619047Y-112061904D01*
X118428571Y-112061904D01*
X118352380Y-112023809D01*
X118314285Y-111947619D01*
X118314285Y-111871428D01*
X118352380Y-111795238D01*
X118428571Y-111757142D01*
X118619047Y-111757142D01*
X118695238Y-111719047D01*
X119419047Y-112061904D02*
X119419047Y-111261904D01*
X119419047Y-112023809D02*
X119342857Y-112061904D01*
X119190476Y-112061904D01*
X119114285Y-112023809D01*
X119076190Y-111985714D01*
X119038095Y-111909523D01*
X119038095Y-111680952D01*
X119076190Y-111604761D01*
X119114285Y-111566666D01*
X119190476Y-111528571D01*
X119342857Y-111528571D01*
X119419047Y-111566666D01*
X112331619Y-127577809D02*
X112445904Y-127615904D01*
X112636380Y-127615904D01*
X112712571Y-127577809D01*
X112750666Y-127539714D01*
X112788761Y-127463523D01*
X112788761Y-127387333D01*
X112750666Y-127311142D01*
X112712571Y-127273047D01*
X112636380Y-127234952D01*
X112484000Y-127196857D01*
X112407809Y-127158761D01*
X112369714Y-127120666D01*
X112331619Y-127044476D01*
X112331619Y-126968285D01*
X112369714Y-126892095D01*
X112407809Y-126854000D01*
X112484000Y-126815904D01*
X112674476Y-126815904D01*
X112788761Y-126854000D01*
X113588761Y-127539714D02*
X113550666Y-127577809D01*
X113436380Y-127615904D01*
X113360190Y-127615904D01*
X113245904Y-127577809D01*
X113169714Y-127501619D01*
X113131619Y-127425428D01*
X113093523Y-127273047D01*
X113093523Y-127158761D01*
X113131619Y-127006380D01*
X113169714Y-126930190D01*
X113245904Y-126854000D01*
X113360190Y-126815904D01*
X113436380Y-126815904D01*
X113550666Y-126854000D01*
X113588761Y-126892095D01*
X114312571Y-127615904D02*
X113931619Y-127615904D01*
X113931619Y-126815904D01*
X112674476Y-129648000D02*
X112598285Y-129609904D01*
X112484000Y-129609904D01*
X112369714Y-129648000D01*
X112293523Y-129724190D01*
X112255428Y-129800380D01*
X112217333Y-129952761D01*
X112217333Y-130067047D01*
X112255428Y-130219428D01*
X112293523Y-130295619D01*
X112369714Y-130371809D01*
X112484000Y-130409904D01*
X112560190Y-130409904D01*
X112674476Y-130371809D01*
X112712571Y-130333714D01*
X112712571Y-130067047D01*
X112560190Y-130067047D01*
X113055428Y-130409904D02*
X113055428Y-129609904D01*
X113512571Y-130409904D01*
X113512571Y-129609904D01*
X113893523Y-130409904D02*
X113893523Y-129609904D01*
X114084000Y-129609904D01*
X114198285Y-129648000D01*
X114274476Y-129724190D01*
X114312571Y-129800380D01*
X114350666Y-129952761D01*
X114350666Y-130067047D01*
X114312571Y-130219428D01*
X114274476Y-130295619D01*
X114198285Y-130371809D01*
X114084000Y-130409904D01*
X113893523Y-130409904D01*
X108509809Y-146437333D02*
X108890761Y-146437333D01*
X108433619Y-146665904D02*
X108700285Y-145865904D01*
X108966952Y-146665904D01*
X109119333Y-145865904D02*
X109576476Y-145865904D01*
X109347904Y-146665904D02*
X109347904Y-145865904D01*
X109728857Y-146132571D02*
X110033619Y-146132571D01*
X109843142Y-145865904D02*
X109843142Y-146551619D01*
X109881238Y-146627809D01*
X109957428Y-146665904D01*
X110033619Y-146665904D01*
X110300285Y-146665904D02*
X110300285Y-146132571D01*
X110300285Y-145865904D02*
X110262190Y-145904000D01*
X110300285Y-145942095D01*
X110338380Y-145904000D01*
X110300285Y-145865904D01*
X110300285Y-145942095D01*
X110681238Y-146132571D02*
X110681238Y-146665904D01*
X110681238Y-146208761D02*
X110719333Y-146170666D01*
X110795523Y-146132571D01*
X110909809Y-146132571D01*
X110986000Y-146170666D01*
X111024095Y-146246857D01*
X111024095Y-146665904D01*
X111328857Y-146132571D02*
X111519333Y-146665904D01*
X111709809Y-146132571D02*
X111519333Y-146665904D01*
X111443142Y-146856380D01*
X111405047Y-146894476D01*
X111328857Y-146932571D01*
X112128857Y-146208761D02*
X112052666Y-146170666D01*
X112014571Y-146132571D01*
X111976476Y-146056380D01*
X111976476Y-146018285D01*
X112014571Y-145942095D01*
X112052666Y-145904000D01*
X112128857Y-145865904D01*
X112281238Y-145865904D01*
X112357428Y-145904000D01*
X112395523Y-145942095D01*
X112433619Y-146018285D01*
X112433619Y-146056380D01*
X112395523Y-146132571D01*
X112357428Y-146170666D01*
X112281238Y-146208761D01*
X112128857Y-146208761D01*
X112052666Y-146246857D01*
X112014571Y-146284952D01*
X111976476Y-146361142D01*
X111976476Y-146513523D01*
X112014571Y-146589714D01*
X112052666Y-146627809D01*
X112128857Y-146665904D01*
X112281238Y-146665904D01*
X112357428Y-146627809D01*
X112395523Y-146589714D01*
X112433619Y-146513523D01*
X112433619Y-146361142D01*
X112395523Y-146284952D01*
X112357428Y-146246857D01*
X112281238Y-146208761D01*
X113157428Y-145865904D02*
X112776476Y-145865904D01*
X112738380Y-146246857D01*
X112776476Y-146208761D01*
X112852666Y-146170666D01*
X113043142Y-146170666D01*
X113119333Y-146208761D01*
X113157428Y-146246857D01*
X113195523Y-146323047D01*
X113195523Y-146513523D01*
X113157428Y-146589714D01*
X113119333Y-146627809D01*
X113043142Y-146665904D01*
X112852666Y-146665904D01*
X112776476Y-146627809D01*
X112738380Y-146589714D01*
X114147904Y-146665904D02*
X114147904Y-145865904D01*
X114490761Y-145942095D02*
X114528857Y-145904000D01*
X114605047Y-145865904D01*
X114795523Y-145865904D01*
X114871714Y-145904000D01*
X114909809Y-145942095D01*
X114947904Y-146018285D01*
X114947904Y-146094476D01*
X114909809Y-146208761D01*
X114452666Y-146665904D01*
X114947904Y-146665904D01*
X115747904Y-146589714D02*
X115709809Y-146627809D01*
X115595523Y-146665904D01*
X115519333Y-146665904D01*
X115405047Y-146627809D01*
X115328857Y-146551619D01*
X115290761Y-146475428D01*
X115252666Y-146323047D01*
X115252666Y-146208761D01*
X115290761Y-146056380D01*
X115328857Y-145980190D01*
X115405047Y-145904000D01*
X115519333Y-145865904D01*
X115595523Y-145865904D01*
X115709809Y-145904000D01*
X115747904Y-145942095D01*
X117157428Y-146665904D02*
X116890761Y-146284952D01*
X116700285Y-146665904D02*
X116700285Y-145865904D01*
X117005047Y-145865904D01*
X117081238Y-145904000D01*
X117119333Y-145942095D01*
X117157428Y-146018285D01*
X117157428Y-146132571D01*
X117119333Y-146208761D01*
X117081238Y-146246857D01*
X117005047Y-146284952D01*
X116700285Y-146284952D01*
X117919333Y-145904000D02*
X117843142Y-145865904D01*
X117728857Y-145865904D01*
X117614571Y-145904000D01*
X117538380Y-145980190D01*
X117500285Y-146056380D01*
X117462190Y-146208761D01*
X117462190Y-146323047D01*
X117500285Y-146475428D01*
X117538380Y-146551619D01*
X117614571Y-146627809D01*
X117728857Y-146665904D01*
X117805047Y-146665904D01*
X117919333Y-146627809D01*
X117957428Y-146589714D01*
X117957428Y-146323047D01*
X117805047Y-146323047D01*
X118566952Y-146246857D02*
X118681238Y-146284952D01*
X118719333Y-146323047D01*
X118757428Y-146399238D01*
X118757428Y-146513523D01*
X118719333Y-146589714D01*
X118681238Y-146627809D01*
X118605047Y-146665904D01*
X118300285Y-146665904D01*
X118300285Y-145865904D01*
X118566952Y-145865904D01*
X118643142Y-145904000D01*
X118681238Y-145942095D01*
X118719333Y-146018285D01*
X118719333Y-146094476D01*
X118681238Y-146170666D01*
X118643142Y-146208761D01*
X118566952Y-146246857D01*
X118300285Y-146246857D01*
X120090761Y-146665904D02*
X119709809Y-146665904D01*
X119709809Y-145865904D01*
X120357428Y-146246857D02*
X120624095Y-146246857D01*
X120738380Y-146665904D02*
X120357428Y-146665904D01*
X120357428Y-145865904D01*
X120738380Y-145865904D01*
X121081238Y-146665904D02*
X121081238Y-145865904D01*
X121271714Y-145865904D01*
X121386000Y-145904000D01*
X121462190Y-145980190D01*
X121500285Y-146056380D01*
X121538380Y-146208761D01*
X121538380Y-146323047D01*
X121500285Y-146475428D01*
X121462190Y-146551619D01*
X121386000Y-146627809D01*
X121271714Y-146665904D01*
X121081238Y-146665904D01*
X122414571Y-146132571D02*
X122605047Y-146665904D01*
X122795523Y-146132571D01*
X123062190Y-145942095D02*
X123100285Y-145904000D01*
X123176476Y-145865904D01*
X123366952Y-145865904D01*
X123443142Y-145904000D01*
X123481238Y-145942095D01*
X123519333Y-146018285D01*
X123519333Y-146094476D01*
X123481238Y-146208761D01*
X123024095Y-146665904D01*
X123519333Y-146665904D01*
X123862190Y-146589714D02*
X123900285Y-146627809D01*
X123862190Y-146665904D01*
X123824095Y-146627809D01*
X123862190Y-146589714D01*
X123862190Y-146665904D01*
X124662190Y-146665904D02*
X124205047Y-146665904D01*
X124433619Y-146665904D02*
X124433619Y-145865904D01*
X124357428Y-145980190D01*
X124281238Y-146056380D01*
X124205047Y-146094476D01*
X112312571Y-125291809D02*
X112426857Y-125329904D01*
X112617333Y-125329904D01*
X112693523Y-125291809D01*
X112731619Y-125253714D01*
X112769714Y-125177523D01*
X112769714Y-125101333D01*
X112731619Y-125025142D01*
X112693523Y-124987047D01*
X112617333Y-124948952D01*
X112464952Y-124910857D01*
X112388761Y-124872761D01*
X112350666Y-124834666D01*
X112312571Y-124758476D01*
X112312571Y-124682285D01*
X112350666Y-124606095D01*
X112388761Y-124568000D01*
X112464952Y-124529904D01*
X112655428Y-124529904D01*
X112769714Y-124568000D01*
X113112571Y-125329904D02*
X113112571Y-124529904D01*
X113303047Y-124529904D01*
X113417333Y-124568000D01*
X113493523Y-124644190D01*
X113531619Y-124720380D01*
X113569714Y-124872761D01*
X113569714Y-124987047D01*
X113531619Y-125139428D01*
X113493523Y-125215619D01*
X113417333Y-125291809D01*
X113303047Y-125329904D01*
X113112571Y-125329904D01*
X113874476Y-125101333D02*
X114255428Y-125101333D01*
X113798285Y-125329904D02*
X114064952Y-124529904D01*
X114331619Y-125329904D01*
X113736380Y-118022666D02*
X113260190Y-118356000D01*
X113736380Y-118594095D02*
X112736380Y-118594095D01*
X112736380Y-118213142D01*
X112784000Y-118117904D01*
X112831619Y-118070285D01*
X112926857Y-118022666D01*
X113069714Y-118022666D01*
X113164952Y-118070285D01*
X113212571Y-118117904D01*
X113260190Y-118213142D01*
X113260190Y-118594095D01*
X112736380Y-117689333D02*
X112736380Y-117070285D01*
X113117333Y-117403619D01*
X113117333Y-117260761D01*
X113164952Y-117165523D01*
X113212571Y-117117904D01*
X113307809Y-117070285D01*
X113545904Y-117070285D01*
X113641142Y-117117904D01*
X113688761Y-117165523D01*
X113736380Y-117260761D01*
X113736380Y-117546476D01*
X113688761Y-117641714D01*
X113641142Y-117689333D01*
X116784380Y-118022666D02*
X116308190Y-118356000D01*
X116784380Y-118594095D02*
X115784380Y-118594095D01*
X115784380Y-118213142D01*
X115832000Y-118117904D01*
X115879619Y-118070285D01*
X115974857Y-118022666D01*
X116117714Y-118022666D01*
X116212952Y-118070285D01*
X116260571Y-118117904D01*
X116308190Y-118213142D01*
X116308190Y-118594095D01*
X115879619Y-117641714D02*
X115832000Y-117594095D01*
X115784380Y-117498857D01*
X115784380Y-117260761D01*
X115832000Y-117165523D01*
X115879619Y-117117904D01*
X115974857Y-117070285D01*
X116070095Y-117070285D01*
X116212952Y-117117904D01*
X116784380Y-117689333D01*
X116784380Y-117070285D01*
X110688380Y-118022666D02*
X110212190Y-118356000D01*
X110688380Y-118594095D02*
X109688380Y-118594095D01*
X109688380Y-118213142D01*
X109736000Y-118117904D01*
X109783619Y-118070285D01*
X109878857Y-118022666D01*
X110021714Y-118022666D01*
X110116952Y-118070285D01*
X110164571Y-118117904D01*
X110212190Y-118213142D01*
X110212190Y-118594095D01*
X110688380Y-117070285D02*
X110688380Y-117641714D01*
X110688380Y-117356000D02*
X109688380Y-117356000D01*
X109831238Y-117451238D01*
X109926476Y-117546476D01*
X109974095Y-117641714D01*
X120004095Y-128086380D02*
X120004095Y-128895904D01*
X120051714Y-128991142D01*
X120099333Y-129038761D01*
X120194571Y-129086380D01*
X120385047Y-129086380D01*
X120480285Y-129038761D01*
X120527904Y-128991142D01*
X120575523Y-128895904D01*
X120575523Y-128086380D01*
X121575523Y-129086380D02*
X121004095Y-129086380D01*
X121289809Y-129086380D02*
X121289809Y-128086380D01*
X121194571Y-128229238D01*
X121099333Y-128324476D01*
X121004095Y-128372095D01*
X119663142Y-136564666D02*
X119710761Y-136612285D01*
X119758380Y-136755142D01*
X119758380Y-136850380D01*
X119710761Y-136993238D01*
X119615523Y-137088476D01*
X119520285Y-137136095D01*
X119329809Y-137183714D01*
X119186952Y-137183714D01*
X118996476Y-137136095D01*
X118901238Y-137088476D01*
X118806000Y-136993238D01*
X118758380Y-136850380D01*
X118758380Y-136755142D01*
X118806000Y-136612285D01*
X118853619Y-136564666D01*
X119758380Y-135612285D02*
X119758380Y-136183714D01*
X119758380Y-135898000D02*
X118758380Y-135898000D01*
X118901238Y-135993238D01*
X118996476Y-136088476D01*
X119044095Y-136183714D01*
X123467904Y-112508380D02*
X123467904Y-111508380D01*
X123706000Y-111508380D01*
X123848857Y-111556000D01*
X123944095Y-111651238D01*
X123991714Y-111746476D01*
X124039333Y-111936952D01*
X124039333Y-112079809D01*
X123991714Y-112270285D01*
X123944095Y-112365523D01*
X123848857Y-112460761D01*
X123706000Y-112508380D01*
X123467904Y-112508380D01*
X124991714Y-112508380D02*
X124420285Y-112508380D01*
X124706000Y-112508380D02*
X124706000Y-111508380D01*
X124610761Y-111651238D01*
X124515523Y-111746476D01*
X124420285Y-111794095D01*
X107870666Y-134222380D02*
X107870666Y-134936666D01*
X107823047Y-135079523D01*
X107727809Y-135174761D01*
X107584952Y-135222380D01*
X107489714Y-135222380D01*
X108870666Y-135222380D02*
X108299238Y-135222380D01*
X108584952Y-135222380D02*
X108584952Y-134222380D01*
X108489714Y-134365238D01*
X108394476Y-134460476D01*
X108299238Y-134508095D01*
X112710933Y-137104380D02*
X112377600Y-136628190D01*
X112139504Y-137104380D02*
X112139504Y-136104380D01*
X112520457Y-136104380D01*
X112615695Y-136152000D01*
X112663314Y-136199619D01*
X112710933Y-136294857D01*
X112710933Y-136437714D01*
X112663314Y-136532952D01*
X112615695Y-136580571D01*
X112520457Y-136628190D01*
X112139504Y-136628190D01*
X113568076Y-136437714D02*
X113568076Y-137104380D01*
X113329980Y-136056761D02*
X113091885Y-136771047D01*
X113710933Y-136771047D01*
X112710933Y-140152380D02*
X112377600Y-139676190D01*
X112139504Y-140152380D02*
X112139504Y-139152380D01*
X112520457Y-139152380D01*
X112615695Y-139200000D01*
X112663314Y-139247619D01*
X112710933Y-139342857D01*
X112710933Y-139485714D01*
X112663314Y-139580952D01*
X112615695Y-139628571D01*
X112520457Y-139676190D01*
X112139504Y-139676190D01*
X113615695Y-139152380D02*
X113139504Y-139152380D01*
X113091885Y-139628571D01*
X113139504Y-139580952D01*
X113234742Y-139533333D01*
X113472838Y-139533333D01*
X113568076Y-139580952D01*
X113615695Y-139628571D01*
X113663314Y-139723809D01*
X113663314Y-139961904D01*
X113615695Y-140057142D01*
X113568076Y-140104761D01*
X113472838Y-140152380D01*
X113234742Y-140152380D01*
X113139504Y-140104761D01*
X113091885Y-140057142D01*
X122610666Y-119318380D02*
X122610666Y-120032666D01*
X122563047Y-120175523D01*
X122467809Y-120270761D01*
X122324952Y-120318380D01*
X122229714Y-120318380D01*
X123086857Y-120318380D02*
X123086857Y-119318380D01*
X123467809Y-119318380D01*
X123563047Y-119366000D01*
X123610666Y-119413619D01*
X123658285Y-119508857D01*
X123658285Y-119651714D01*
X123610666Y-119746952D01*
X123563047Y-119794571D01*
X123467809Y-119842190D01*
X123086857Y-119842190D01*
X124610666Y-120318380D02*
X124039238Y-120318380D01*
X124324952Y-120318380D02*
X124324952Y-119318380D01*
X124229714Y-119461238D01*
X124134476Y-119556476D01*
X124039238Y-119604095D01*
X119272866Y-119318380D02*
X119272866Y-120032666D01*
X119225247Y-120175523D01*
X119130009Y-120270761D01*
X118987152Y-120318380D01*
X118891914Y-120318380D01*
X119749057Y-120318380D02*
X119749057Y-119318380D01*
X120130009Y-119318380D01*
X120225247Y-119366000D01*
X120272866Y-119413619D01*
X120320485Y-119508857D01*
X120320485Y-119651714D01*
X120272866Y-119746952D01*
X120225247Y-119794571D01*
X120130009Y-119842190D01*
X119749057Y-119842190D01*
X120701438Y-119413619D02*
X120749057Y-119366000D01*
X120844295Y-119318380D01*
X121082390Y-119318380D01*
X121177628Y-119366000D01*
X121225247Y-119413619D01*
X121272866Y-119508857D01*
X121272866Y-119604095D01*
X121225247Y-119746952D01*
X120653819Y-120318380D01*
X121272866Y-120318380D01*
D12*
X112244000Y-114586000D02*
X111914000Y-114586000D01*
X111914000Y-121126000D02*
X112244000Y-121126000D01*
X111914000Y-114586000D02*
X111914000Y-121126000D01*
X114654000Y-121126000D02*
X114324000Y-121126000D01*
X114654000Y-114586000D02*
X114654000Y-121126000D01*
X114324000Y-114586000D02*
X114654000Y-114586000D01*
X115292000Y-114586000D02*
X114962000Y-114586000D01*
X114962000Y-114586000D02*
X114962000Y-121126000D01*
X114962000Y-121126000D02*
X115292000Y-121126000D01*
X117372000Y-114586000D02*
X117702000Y-114586000D01*
X117702000Y-121126000D02*
X117372000Y-121126000D01*
X117702000Y-114586000D02*
X117702000Y-121126000D01*
X111276000Y-114586000D02*
X111606000Y-114586000D01*
X111606000Y-121126000D02*
X111276000Y-121126000D01*
X109196000Y-114586000D02*
X108866000Y-114586000D01*
X108866000Y-121126000D02*
X109196000Y-121126000D01*
X108866000Y-114586000D02*
X108866000Y-121126000D01*
X111606000Y-114586000D02*
X111606000Y-121126000D01*
X125526000Y-127154000D02*
X115246000Y-127154000D01*
X115246000Y-132454000D02*
X125526000Y-132454000D01*
X125526000Y-128804000D02*
X125526000Y-127154000D01*
X115246000Y-127154000D02*
X115246000Y-132454000D01*
X125526000Y-132454000D02*
X125526000Y-130804000D01*
X125526000Y-128804000D02*
G75*
G03*
X125526000Y-130804000I0J-1000000D01*
G01*
X120536000Y-137518000D02*
X120536000Y-135278000D01*
X125376000Y-137518000D02*
X120536000Y-137518000D01*
X125376000Y-135278000D02*
X120536000Y-135278000D01*
X125376000Y-137518000D02*
X125376000Y-135278000D01*
X122746000Y-118511000D02*
X123211000Y-118511000D01*
X120121000Y-118511000D02*
X120586000Y-118511000D01*
X120585173Y-113163185D02*
G75*
G03*
X120121170Y-118511000I1080827J-2787815D01*
G01*
X123210830Y-118511000D02*
G75*
G03*
X122746827Y-113163185I-1544830J2560000D01*
G01*
X120585571Y-113696521D02*
G75*
G03*
X120586000Y-118205684I1080429J-2254479D01*
G01*
X122746000Y-118205684D02*
G75*
G03*
X122746429Y-113696521I-1080000J2254684D01*
G01*
X109304000Y-123550000D02*
X106644000Y-123550000D01*
X109701071Y-127800000D02*
X109304000Y-127800000D01*
X106644000Y-132340000D02*
X100644000Y-132340000D01*
X106644000Y-132220000D02*
X100644000Y-132220000D01*
X109701071Y-125260000D02*
X109304000Y-125260000D01*
X109701071Y-124500000D02*
X109304000Y-124500000D01*
X100644000Y-127800000D02*
X100644000Y-127040000D01*
X109634000Y-132120000D02*
X109304000Y-132120000D01*
X106644000Y-125260000D02*
X100644000Y-125260000D01*
X109701071Y-129580000D02*
X109304000Y-129580000D01*
X106644000Y-130340000D02*
X100644000Y-130340000D01*
X109634000Y-132880000D02*
X109304000Y-132880000D01*
X106644000Y-123550000D02*
X106644000Y-133830000D01*
X112014000Y-132500000D02*
X112014000Y-133770000D01*
X109701071Y-127040000D02*
X109304000Y-127040000D01*
X106644000Y-132700000D02*
X100644000Y-132700000D01*
X112014000Y-133770000D02*
X110744000Y-133770000D01*
X109304000Y-131230000D02*
X106644000Y-131230000D01*
X106644000Y-132460000D02*
X100644000Y-132460000D01*
X106644000Y-127800000D02*
X100644000Y-127800000D01*
X100644000Y-132880000D02*
X100644000Y-132120000D01*
X100644000Y-129580000D02*
X106644000Y-129580000D01*
X106644000Y-132880000D02*
X100644000Y-132880000D01*
X100644000Y-130340000D02*
X100644000Y-129580000D01*
X109304000Y-126150000D02*
X106644000Y-126150000D01*
X109701071Y-130340000D02*
X109304000Y-130340000D01*
X106644000Y-132820000D02*
X100644000Y-132820000D01*
X100644000Y-124500000D02*
X106644000Y-124500000D01*
X100644000Y-127040000D02*
X106644000Y-127040000D01*
X100644000Y-125260000D02*
X100644000Y-124500000D01*
X109304000Y-133830000D02*
X109304000Y-123550000D01*
X109304000Y-128690000D02*
X106644000Y-128690000D01*
X100644000Y-132120000D02*
X106644000Y-132120000D01*
X106644000Y-132580000D02*
X100644000Y-132580000D01*
X106644000Y-133830000D02*
X109304000Y-133830000D01*
X116046000Y-135612000D02*
X116046000Y-135282000D01*
X109506000Y-138022000D02*
X109506000Y-137692000D01*
X116046000Y-138022000D02*
X109506000Y-138022000D01*
X116046000Y-137692000D02*
X116046000Y-138022000D01*
X109506000Y-135282000D02*
X109506000Y-135612000D01*
X116046000Y-135282000D02*
X109506000Y-135282000D01*
X109506000Y-138330000D02*
X109506000Y-138660000D01*
X116046000Y-141070000D02*
X109506000Y-141070000D01*
X109506000Y-141070000D02*
X109506000Y-140740000D01*
X116046000Y-138660000D02*
X116046000Y-138330000D01*
X116046000Y-140740000D02*
X116046000Y-141070000D01*
X116046000Y-138330000D02*
X109506000Y-138330000D01*
X124144000Y-122666000D02*
X122744000Y-122666000D01*
X124844000Y-121366000D02*
X124844000Y-121966000D01*
X122044000Y-121966000D02*
X122044000Y-121366000D01*
X122744000Y-120666000D02*
X124144000Y-120666000D01*
X124844000Y-121366000D02*
G75*
G03*
X124144000Y-120666000I-699999J1D01*
G01*
X124144000Y-122666000D02*
G75*
G03*
X124844000Y-121966000I1J699999D01*
G01*
X122044000Y-121966000D02*
G75*
G03*
X122744000Y-122666000I700000J0D01*
G01*
X122744000Y-120666000D02*
G75*
G03*
X122044000Y-121366000I0J-700000D01*
G01*
X118706200Y-121966000D02*
X118706200Y-121366000D01*
X120806200Y-122666000D02*
X119406200Y-122666000D01*
X119406200Y-120666000D02*
X120806200Y-120666000D01*
X121506200Y-121366000D02*
X121506200Y-121966000D01*
X121506200Y-121366000D02*
G75*
G03*
X120806200Y-120666000I-699999J1D01*
G01*
X119406200Y-120666000D02*
G75*
G03*
X118706200Y-121366000I0J-700000D01*
G01*
X118706200Y-121966000D02*
G75*
G03*
X119406200Y-122666000I700000J0D01*
G01*
X120806200Y-122666000D02*
G75*
G03*
X121506200Y-121966000I1J699999D01*
G01*
G36*
X123445833Y-142928663D02*
G01*
X123448048Y-142966850D01*
X123449784Y-143024886D01*
X123450899Y-143098180D01*
X123451257Y-143175055D01*
X123451257Y-143435196D01*
X123405326Y-143481127D01*
X123373675Y-143509429D01*
X123345890Y-143520893D01*
X123307915Y-143520168D01*
X123292840Y-143518321D01*
X123245726Y-143512948D01*
X123206756Y-143509869D01*
X123197257Y-143509585D01*
X123165233Y-143511445D01*
X123119432Y-143516114D01*
X123101674Y-143518321D01*
X123058057Y-143521735D01*
X123028745Y-143514320D01*
X122999680Y-143491427D01*
X122989188Y-143481127D01*
X122943257Y-143435196D01*
X122943257Y-142948602D01*
X122980226Y-142931758D01*
X123012059Y-142919282D01*
X123030683Y-142914914D01*
X123035458Y-142928718D01*
X123039921Y-142967286D01*
X123043775Y-143026356D01*
X123046722Y-143101663D01*
X123048143Y-143165286D01*
X123052114Y-143415657D01*
X123086759Y-143420556D01*
X123118268Y-143417131D01*
X123133708Y-143406041D01*
X123138023Y-143385308D01*
X123141708Y-143341145D01*
X123144469Y-143279146D01*
X123146012Y-143204909D01*
X123146235Y-143166706D01*
X123146457Y-142946783D01*
X123192166Y-142930849D01*
X123224518Y-142920015D01*
X123242115Y-142914962D01*
X123242623Y-142914914D01*
X123244388Y-142928648D01*
X123246329Y-142966730D01*
X123248282Y-143024482D01*
X123250084Y-143097227D01*
X123251343Y-143165286D01*
X123255314Y-143415657D01*
X123342400Y-143415657D01*
X123346396Y-143187240D01*
X123350392Y-142958822D01*
X123392847Y-142936868D01*
X123424192Y-142921793D01*
X123442744Y-142914951D01*
X123443279Y-142914914D01*
X123445833Y-142928663D01*
G37*
D13*
X123445833Y-142928663D02*
X123448048Y-142966850D01*
X123449784Y-143024886D01*
X123450899Y-143098180D01*
X123451257Y-143175055D01*
X123451257Y-143435196D01*
X123405326Y-143481127D01*
X123373675Y-143509429D01*
X123345890Y-143520893D01*
X123307915Y-143520168D01*
X123292840Y-143518321D01*
X123245726Y-143512948D01*
X123206756Y-143509869D01*
X123197257Y-143509585D01*
X123165233Y-143511445D01*
X123119432Y-143516114D01*
X123101674Y-143518321D01*
X123058057Y-143521735D01*
X123028745Y-143514320D01*
X122999680Y-143491427D01*
X122989188Y-143481127D01*
X122943257Y-143435196D01*
X122943257Y-142948602D01*
X122980226Y-142931758D01*
X123012059Y-142919282D01*
X123030683Y-142914914D01*
X123035458Y-142928718D01*
X123039921Y-142967286D01*
X123043775Y-143026356D01*
X123046722Y-143101663D01*
X123048143Y-143165286D01*
X123052114Y-143415657D01*
X123086759Y-143420556D01*
X123118268Y-143417131D01*
X123133708Y-143406041D01*
X123138023Y-143385308D01*
X123141708Y-143341145D01*
X123144469Y-143279146D01*
X123146012Y-143204909D01*
X123146235Y-143166706D01*
X123146457Y-142946783D01*
X123192166Y-142930849D01*
X123224518Y-142920015D01*
X123242115Y-142914962D01*
X123242623Y-142914914D01*
X123244388Y-142928648D01*
X123246329Y-142966730D01*
X123248282Y-143024482D01*
X123250084Y-143097227D01*
X123251343Y-143165286D01*
X123255314Y-143415657D01*
X123342400Y-143415657D01*
X123346396Y-143187240D01*
X123350392Y-142958822D01*
X123392847Y-142936868D01*
X123424192Y-142921793D01*
X123442744Y-142914951D01*
X123443279Y-142914914D01*
X123445833Y-142928663D01*
G36*
X118959677Y-143120333D02*
G01*
X118962450Y-143072958D01*
X118966388Y-143039290D01*
X118971849Y-143015498D01*
X118979192Y-142997753D01*
X118988777Y-142982224D01*
X118992887Y-142976381D01*
X119047405Y-142921185D01*
X119116336Y-142889890D01*
X119196072Y-142881165D01*
X119265744Y-142889918D01*
X119321201Y-142917568D01*
X119370148Y-142968480D01*
X119383629Y-142987338D01*
X119398314Y-143012015D01*
X119407842Y-143038816D01*
X119413293Y-143074587D01*
X119415747Y-143126169D01*
X119416286Y-143194267D01*
X119413852Y-143287588D01*
X119405394Y-143357657D01*
X119389174Y-143409931D01*
X119363454Y-143449869D01*
X119326497Y-143482929D01*
X119323782Y-143484886D01*
X119287360Y-143504908D01*
X119243502Y-143514815D01*
X119187724Y-143517257D01*
X119097048Y-143517257D01*
X119097010Y-143605283D01*
X119096166Y-143654308D01*
X119091024Y-143683065D01*
X119077587Y-143700311D01*
X119051858Y-143714808D01*
X119045679Y-143717769D01*
X119016764Y-143731648D01*
X118994376Y-143740414D01*
X118977729Y-143741171D01*
X118966036Y-143731023D01*
X118958510Y-143707073D01*
X118954366Y-143666426D01*
X118952815Y-143606186D01*
X118953071Y-143523455D01*
X118954349Y-143415339D01*
X118954748Y-143383000D01*
X118956185Y-143271524D01*
X118957472Y-143198603D01*
X119096971Y-143198603D01*
X119097755Y-143260499D01*
X119101240Y-143300997D01*
X119109124Y-143327708D01*
X119123105Y-143348244D01*
X119132597Y-143358260D01*
X119171404Y-143387567D01*
X119205763Y-143389952D01*
X119241216Y-143365750D01*
X119242114Y-143364857D01*
X119256539Y-143346153D01*
X119265313Y-143320732D01*
X119269739Y-143281584D01*
X119271118Y-143221697D01*
X119271143Y-143208430D01*
X119267812Y-143125901D01*
X119256969Y-143068691D01*
X119237340Y-143033766D01*
X119207650Y-143018094D01*
X119190491Y-143016514D01*
X119149766Y-143023926D01*
X119121832Y-143048330D01*
X119105017Y-143092980D01*
X119097650Y-143161130D01*
X119096971Y-143198603D01*
X118957472Y-143198603D01*
X118957708Y-143185245D01*
X118959677Y-143120333D01*
G37*
X118959677Y-143120333D02*
X118962450Y-143072958D01*
X118966388Y-143039290D01*
X118971849Y-143015498D01*
X118979192Y-142997753D01*
X118988777Y-142982224D01*
X118992887Y-142976381D01*
X119047405Y-142921185D01*
X119116336Y-142889890D01*
X119196072Y-142881165D01*
X119265744Y-142889918D01*
X119321201Y-142917568D01*
X119370148Y-142968480D01*
X119383629Y-142987338D01*
X119398314Y-143012015D01*
X119407842Y-143038816D01*
X119413293Y-143074587D01*
X119415747Y-143126169D01*
X119416286Y-143194267D01*
X119413852Y-143287588D01*
X119405394Y-143357657D01*
X119389174Y-143409931D01*
X119363454Y-143449869D01*
X119326497Y-143482929D01*
X119323782Y-143484886D01*
X119287360Y-143504908D01*
X119243502Y-143514815D01*
X119187724Y-143517257D01*
X119097048Y-143517257D01*
X119097010Y-143605283D01*
X119096166Y-143654308D01*
X119091024Y-143683065D01*
X119077587Y-143700311D01*
X119051858Y-143714808D01*
X119045679Y-143717769D01*
X119016764Y-143731648D01*
X118994376Y-143740414D01*
X118977729Y-143741171D01*
X118966036Y-143731023D01*
X118958510Y-143707073D01*
X118954366Y-143666426D01*
X118952815Y-143606186D01*
X118953071Y-143523455D01*
X118954349Y-143415339D01*
X118954748Y-143383000D01*
X118956185Y-143271524D01*
X118957472Y-143198603D01*
X119096971Y-143198603D01*
X119097755Y-143260499D01*
X119101240Y-143300997D01*
X119109124Y-143327708D01*
X119123105Y-143348244D01*
X119132597Y-143358260D01*
X119171404Y-143387567D01*
X119205763Y-143389952D01*
X119241216Y-143365750D01*
X119242114Y-143364857D01*
X119256539Y-143346153D01*
X119265313Y-143320732D01*
X119269739Y-143281584D01*
X119271118Y-143221697D01*
X119271143Y-143208430D01*
X119267812Y-143125901D01*
X119256969Y-143068691D01*
X119237340Y-143033766D01*
X119207650Y-143018094D01*
X119190491Y-143016514D01*
X119149766Y-143023926D01*
X119121832Y-143048330D01*
X119105017Y-143092980D01*
X119097650Y-143161130D01*
X119096971Y-143198603D01*
X118957472Y-143198603D01*
X118957708Y-143185245D01*
X118959677Y-143120333D01*
G36*
X120382093Y-142897780D02*
G01*
X120428672Y-142924723D01*
X120461057Y-142951466D01*
X120484742Y-142979484D01*
X120501059Y-143013748D01*
X120511339Y-143059227D01*
X120516914Y-143120892D01*
X120519116Y-143203711D01*
X120519371Y-143263246D01*
X120519371Y-143482391D01*
X120457686Y-143510044D01*
X120396000Y-143537697D01*
X120388743Y-143297670D01*
X120385744Y-143208028D01*
X120382598Y-143142962D01*
X120378701Y-143098026D01*
X120373447Y-143068770D01*
X120366231Y-143050748D01*
X120356450Y-143039511D01*
X120353312Y-143037079D01*
X120305761Y-143018083D01*
X120257697Y-143025600D01*
X120229086Y-143045543D01*
X120217447Y-143059675D01*
X120209391Y-143078220D01*
X120204271Y-143106334D01*
X120201441Y-143149173D01*
X120200256Y-143211895D01*
X120200057Y-143277261D01*
X120200018Y-143359268D01*
X120198614Y-143417316D01*
X120193914Y-143456465D01*
X120183987Y-143481780D01*
X120166903Y-143498323D01*
X120140732Y-143511156D01*
X120105775Y-143524491D01*
X120067596Y-143539007D01*
X120072141Y-143281389D01*
X120073971Y-143188519D01*
X120076112Y-143119889D01*
X120079181Y-143070711D01*
X120083794Y-143036198D01*
X120090568Y-143011562D01*
X120100119Y-142992016D01*
X120111634Y-142974770D01*
X120167190Y-142919680D01*
X120234980Y-142887822D01*
X120308713Y-142880191D01*
X120382093Y-142897780D01*
G37*
X120382093Y-142897780D02*
X120428672Y-142924723D01*
X120461057Y-142951466D01*
X120484742Y-142979484D01*
X120501059Y-143013748D01*
X120511339Y-143059227D01*
X120516914Y-143120892D01*
X120519116Y-143203711D01*
X120519371Y-143263246D01*
X120519371Y-143482391D01*
X120457686Y-143510044D01*
X120396000Y-143537697D01*
X120388743Y-143297670D01*
X120385744Y-143208028D01*
X120382598Y-143142962D01*
X120378701Y-143098026D01*
X120373447Y-143068770D01*
X120366231Y-143050748D01*
X120356450Y-143039511D01*
X120353312Y-143037079D01*
X120305761Y-143018083D01*
X120257697Y-143025600D01*
X120229086Y-143045543D01*
X120217447Y-143059675D01*
X120209391Y-143078220D01*
X120204271Y-143106334D01*
X120201441Y-143149173D01*
X120200256Y-143211895D01*
X120200057Y-143277261D01*
X120200018Y-143359268D01*
X120198614Y-143417316D01*
X120193914Y-143456465D01*
X120183987Y-143481780D01*
X120166903Y-143498323D01*
X120140732Y-143511156D01*
X120105775Y-143524491D01*
X120067596Y-143539007D01*
X120072141Y-143281389D01*
X120073971Y-143188519D01*
X120076112Y-143119889D01*
X120079181Y-143070711D01*
X120083794Y-143036198D01*
X120090568Y-143011562D01*
X120100119Y-142992016D01*
X120111634Y-142974770D01*
X120167190Y-142919680D01*
X120234980Y-142887822D01*
X120308713Y-142880191D01*
X120382093Y-142897780D01*
G36*
X122195926Y-142919755D02*
G01*
X122261858Y-142944084D01*
X122315273Y-142987117D01*
X122336164Y-143017409D01*
X122358939Y-143072994D01*
X122358466Y-143113186D01*
X122334562Y-143140217D01*
X122325717Y-143144813D01*
X122287530Y-143159144D01*
X122268028Y-143155472D01*
X122261422Y-143131407D01*
X122261086Y-143118114D01*
X122248992Y-143069210D01*
X122217471Y-143034999D01*
X122173659Y-143018476D01*
X122124695Y-143022634D01*
X122084894Y-143044227D01*
X122071450Y-143056544D01*
X122061921Y-143071487D01*
X122055485Y-143094075D01*
X122051317Y-143129328D01*
X122048597Y-143182266D01*
X122046502Y-143257907D01*
X122045960Y-143281857D01*
X122043981Y-143363790D01*
X122041731Y-143421455D01*
X122038357Y-143459608D01*
X122033006Y-143483004D01*
X122024824Y-143496398D01*
X122012959Y-143504545D01*
X122005362Y-143508144D01*
X121973102Y-143520452D01*
X121954111Y-143524514D01*
X121947836Y-143510948D01*
X121944006Y-143469934D01*
X121942600Y-143400999D01*
X121943598Y-143303669D01*
X121943908Y-143288657D01*
X121946101Y-143199859D01*
X121948693Y-143135019D01*
X121952382Y-143089067D01*
X121957864Y-143056935D01*
X121965835Y-143033553D01*
X121976993Y-143013852D01*
X121982830Y-143005410D01*
X122016296Y-142968057D01*
X122053727Y-142939003D01*
X122058309Y-142936467D01*
X122125426Y-142916443D01*
X122195926Y-142919755D01*
G37*
X122195926Y-142919755D02*
X122261858Y-142944084D01*
X122315273Y-142987117D01*
X122336164Y-143017409D01*
X122358939Y-143072994D01*
X122358466Y-143113186D01*
X122334562Y-143140217D01*
X122325717Y-143144813D01*
X122287530Y-143159144D01*
X122268028Y-143155472D01*
X122261422Y-143131407D01*
X122261086Y-143118114D01*
X122248992Y-143069210D01*
X122217471Y-143034999D01*
X122173659Y-143018476D01*
X122124695Y-143022634D01*
X122084894Y-143044227D01*
X122071450Y-143056544D01*
X122061921Y-143071487D01*
X122055485Y-143094075D01*
X122051317Y-143129328D01*
X122048597Y-143182266D01*
X122046502Y-143257907D01*
X122045960Y-143281857D01*
X122043981Y-143363790D01*
X122041731Y-143421455D01*
X122038357Y-143459608D01*
X122033006Y-143483004D01*
X122024824Y-143496398D01*
X122012959Y-143504545D01*
X122005362Y-143508144D01*
X121973102Y-143520452D01*
X121954111Y-143524514D01*
X121947836Y-143510948D01*
X121944006Y-143469934D01*
X121942600Y-143400999D01*
X121943598Y-143303669D01*
X121943908Y-143288657D01*
X121946101Y-143199859D01*
X121948693Y-143135019D01*
X121952382Y-143089067D01*
X121957864Y-143056935D01*
X121965835Y-143033553D01*
X121976993Y-143013852D01*
X121982830Y-143005410D01*
X122016296Y-142968057D01*
X122053727Y-142939003D01*
X122058309Y-142936467D01*
X122125426Y-142916443D01*
X122195926Y-142919755D01*
G36*
X124534196Y-143065384D02*
G01*
X124547884Y-143016695D01*
X124570096Y-142980849D01*
X124602574Y-142952513D01*
X124616733Y-142943355D01*
X124681053Y-142919507D01*
X124751473Y-142918006D01*
X124819595Y-142936966D01*
X124877021Y-142974497D01*
X124904719Y-143008096D01*
X124926662Y-143069064D01*
X124928405Y-143117308D01*
X124924457Y-143181816D01*
X124775686Y-143246934D01*
X124703349Y-143280202D01*
X124656084Y-143306964D01*
X124631507Y-143330144D01*
X124627237Y-143352667D01*
X124640889Y-143377455D01*
X124655943Y-143393886D01*
X124699746Y-143420235D01*
X124747389Y-143422081D01*
X124791145Y-143401546D01*
X124823289Y-143360752D01*
X124829038Y-143346347D01*
X124856576Y-143301356D01*
X124888258Y-143282182D01*
X124931714Y-143265779D01*
X124931714Y-143327966D01*
X124927872Y-143370283D01*
X124912823Y-143405969D01*
X124881280Y-143446943D01*
X124876592Y-143452267D01*
X124841506Y-143488720D01*
X124811347Y-143508283D01*
X124773615Y-143517283D01*
X124742335Y-143520230D01*
X124686385Y-143520965D01*
X124646555Y-143511660D01*
X124621708Y-143497846D01*
X124582656Y-143467467D01*
X124555625Y-143434613D01*
X124538517Y-143393294D01*
X124529238Y-143337521D01*
X124525693Y-143261305D01*
X124525410Y-143222622D01*
X124526372Y-143176247D01*
X124614007Y-143176247D01*
X124615023Y-143201126D01*
X124617556Y-143205200D01*
X124634274Y-143199665D01*
X124670249Y-143185017D01*
X124718331Y-143164190D01*
X124728386Y-143159714D01*
X124789152Y-143128814D01*
X124822632Y-143101657D01*
X124829990Y-143076220D01*
X124812391Y-143050481D01*
X124797856Y-143039109D01*
X124745410Y-143016364D01*
X124696322Y-143020122D01*
X124655227Y-143047884D01*
X124626758Y-143097152D01*
X124617631Y-143136257D01*
X124614007Y-143176247D01*
X124526372Y-143176247D01*
X124527285Y-143132249D01*
X124534196Y-143065384D01*
G37*
X124534196Y-143065384D02*
X124547884Y-143016695D01*
X124570096Y-142980849D01*
X124602574Y-142952513D01*
X124616733Y-142943355D01*
X124681053Y-142919507D01*
X124751473Y-142918006D01*
X124819595Y-142936966D01*
X124877021Y-142974497D01*
X124904719Y-143008096D01*
X124926662Y-143069064D01*
X124928405Y-143117308D01*
X124924457Y-143181816D01*
X124775686Y-143246934D01*
X124703349Y-143280202D01*
X124656084Y-143306964D01*
X124631507Y-143330144D01*
X124627237Y-143352667D01*
X124640889Y-143377455D01*
X124655943Y-143393886D01*
X124699746Y-143420235D01*
X124747389Y-143422081D01*
X124791145Y-143401546D01*
X124823289Y-143360752D01*
X124829038Y-143346347D01*
X124856576Y-143301356D01*
X124888258Y-143282182D01*
X124931714Y-143265779D01*
X124931714Y-143327966D01*
X124927872Y-143370283D01*
X124912823Y-143405969D01*
X124881280Y-143446943D01*
X124876592Y-143452267D01*
X124841506Y-143488720D01*
X124811347Y-143508283D01*
X124773615Y-143517283D01*
X124742335Y-143520230D01*
X124686385Y-143520965D01*
X124646555Y-143511660D01*
X124621708Y-143497846D01*
X124582656Y-143467467D01*
X124555625Y-143434613D01*
X124538517Y-143393294D01*
X124529238Y-143337521D01*
X124525693Y-143261305D01*
X124525410Y-143222622D01*
X124526372Y-143176247D01*
X124614007Y-143176247D01*
X124615023Y-143201126D01*
X124617556Y-143205200D01*
X124634274Y-143199665D01*
X124670249Y-143185017D01*
X124718331Y-143164190D01*
X124728386Y-143159714D01*
X124789152Y-143128814D01*
X124822632Y-143101657D01*
X124829990Y-143076220D01*
X124812391Y-143050481D01*
X124797856Y-143039109D01*
X124745410Y-143016364D01*
X124696322Y-143020122D01*
X124655227Y-143047884D01*
X124626758Y-143097152D01*
X124617631Y-143136257D01*
X124614007Y-143176247D01*
X124526372Y-143176247D01*
X124527285Y-143132249D01*
X124534196Y-143065384D01*
G36*
X121769910Y-138212348D02*
G01*
X121848454Y-138212778D01*
X121905298Y-138213942D01*
X121944105Y-138216207D01*
X121968538Y-138219940D01*
X121982262Y-138225506D01*
X121988940Y-138233273D01*
X121992236Y-138243605D01*
X121992556Y-138244943D01*
X121997562Y-138269079D01*
X122006829Y-138316701D01*
X122019392Y-138382741D01*
X122034287Y-138462128D01*
X122050551Y-138549796D01*
X122051119Y-138552875D01*
X122067410Y-138638789D01*
X122082652Y-138714696D01*
X122095861Y-138776045D01*
X122106054Y-138818282D01*
X122112248Y-138836855D01*
X122112543Y-138837184D01*
X122130788Y-138846253D01*
X122168405Y-138861367D01*
X122217271Y-138879262D01*
X122217543Y-138879358D01*
X122279093Y-138902493D01*
X122351657Y-138931965D01*
X122420057Y-138961597D01*
X122423294Y-138963062D01*
X122534702Y-139013626D01*
X122781399Y-138845160D01*
X122857077Y-138793803D01*
X122925631Y-138747889D01*
X122983088Y-138710030D01*
X123025476Y-138682837D01*
X123048825Y-138668921D01*
X123051042Y-138667889D01*
X123068010Y-138672484D01*
X123099701Y-138694655D01*
X123147352Y-138735447D01*
X123212198Y-138795905D01*
X123278397Y-138860227D01*
X123342214Y-138923612D01*
X123399329Y-138981451D01*
X123446305Y-139030175D01*
X123479703Y-139066210D01*
X123496085Y-139085984D01*
X123496694Y-139087002D01*
X123498505Y-139100572D01*
X123491683Y-139122733D01*
X123474540Y-139156478D01*
X123445393Y-139204800D01*
X123402555Y-139270692D01*
X123345448Y-139355517D01*
X123294766Y-139430177D01*
X123249461Y-139497140D01*
X123212150Y-139552516D01*
X123185452Y-139592420D01*
X123171985Y-139612962D01*
X123171137Y-139614356D01*
X123172781Y-139634038D01*
X123185245Y-139672293D01*
X123206048Y-139721889D01*
X123213462Y-139737728D01*
X123245814Y-139808290D01*
X123280328Y-139888353D01*
X123308365Y-139957629D01*
X123328568Y-140009045D01*
X123344615Y-140048119D01*
X123353888Y-140068541D01*
X123355041Y-140070114D01*
X123372096Y-140072721D01*
X123412298Y-140079863D01*
X123470302Y-140090523D01*
X123540763Y-140103685D01*
X123618335Y-140118333D01*
X123697672Y-140133449D01*
X123773431Y-140148018D01*
X123840264Y-140161022D01*
X123892828Y-140171445D01*
X123925776Y-140178270D01*
X123933857Y-140180199D01*
X123942205Y-140184962D01*
X123948506Y-140195718D01*
X123953045Y-140216098D01*
X123956104Y-140249734D01*
X123957967Y-140300255D01*
X123958918Y-140371292D01*
X123959240Y-140466476D01*
X123959257Y-140505492D01*
X123959257Y-140822799D01*
X123883057Y-140837839D01*
X123840663Y-140845995D01*
X123777400Y-140857899D01*
X123700962Y-140872116D01*
X123619043Y-140887210D01*
X123596400Y-140891355D01*
X123520806Y-140906053D01*
X123454953Y-140920505D01*
X123404366Y-140933375D01*
X123374574Y-140943322D01*
X123369612Y-140946287D01*
X123357426Y-140967283D01*
X123339953Y-141007967D01*
X123320577Y-141060322D01*
X123316734Y-141071600D01*
X123291339Y-141141523D01*
X123259817Y-141220418D01*
X123228969Y-141291266D01*
X123228817Y-141291595D01*
X123177447Y-141402733D01*
X123346399Y-141651253D01*
X123515352Y-141899772D01*
X123298429Y-142117058D01*
X123232819Y-142181726D01*
X123172979Y-142238733D01*
X123122267Y-142285033D01*
X123084046Y-142317584D01*
X123061675Y-142333343D01*
X123058466Y-142334343D01*
X123039626Y-142326469D01*
X123001180Y-142304578D01*
X122947330Y-142271267D01*
X122882276Y-142229131D01*
X122811940Y-142181943D01*
X122740555Y-142133810D01*
X122676908Y-142091928D01*
X122625041Y-142058871D01*
X122588995Y-142037218D01*
X122572867Y-142029543D01*
X122553189Y-142036037D01*
X122515875Y-142053150D01*
X122468621Y-142077326D01*
X122463612Y-142080013D01*
X122399977Y-142111927D01*
X122356341Y-142127579D01*
X122329202Y-142127745D01*
X122315057Y-142113204D01*
X122314975Y-142113000D01*
X122307905Y-142095779D01*
X122291042Y-142054899D01*
X122265695Y-141993525D01*
X122233171Y-141914819D01*
X122194778Y-141821947D01*
X122151822Y-141718072D01*
X122110222Y-141617502D01*
X122064504Y-141506516D01*
X122022526Y-141403703D01*
X121985548Y-141312215D01*
X121954827Y-141235201D01*
X121931622Y-141175815D01*
X121917190Y-141137209D01*
X121912743Y-141122800D01*
X121923896Y-141106272D01*
X121953069Y-141079930D01*
X121991971Y-141050887D01*
X122102757Y-140959039D01*
X122189351Y-140853759D01*
X122250716Y-140737266D01*
X122285815Y-140611776D01*
X122293608Y-140479507D01*
X122287943Y-140418457D01*
X122257078Y-140291795D01*
X122203920Y-140179941D01*
X122131767Y-140084001D01*
X122043917Y-140005076D01*
X121943665Y-139944270D01*
X121834310Y-139902687D01*
X121719147Y-139881428D01*
X121601475Y-139881599D01*
X121484590Y-139904301D01*
X121371789Y-139950638D01*
X121266369Y-140021713D01*
X121222368Y-140061911D01*
X121137979Y-140165129D01*
X121079222Y-140277925D01*
X121045704Y-140397010D01*
X121037035Y-140519095D01*
X121052823Y-140640893D01*
X121092678Y-140759116D01*
X121156207Y-140870475D01*
X121243021Y-140971684D01*
X121340029Y-141050887D01*
X121380437Y-141081162D01*
X121408982Y-141107219D01*
X121419257Y-141122825D01*
X121413877Y-141139843D01*
X121398575Y-141180500D01*
X121374612Y-141241642D01*
X121343244Y-141320119D01*
X121305732Y-141412780D01*
X121263333Y-141516472D01*
X121221663Y-141617526D01*
X121175690Y-141728607D01*
X121133107Y-141831541D01*
X121095221Y-141923165D01*
X121063340Y-142000316D01*
X121038771Y-142059831D01*
X121022820Y-142098544D01*
X121016910Y-142113000D01*
X121002948Y-142127685D01*
X120975940Y-142127642D01*
X120932413Y-142112099D01*
X120868890Y-142080284D01*
X120868388Y-142080013D01*
X120820560Y-142055323D01*
X120781897Y-142037338D01*
X120760095Y-142029614D01*
X120759133Y-142029543D01*
X120742721Y-142037378D01*
X120706487Y-142059165D01*
X120654474Y-142092328D01*
X120590725Y-142134291D01*
X120520060Y-142181943D01*
X120448116Y-142230191D01*
X120383274Y-142272151D01*
X120329735Y-142305227D01*
X120291697Y-142326821D01*
X120273533Y-142334343D01*
X120256808Y-142324457D01*
X120223180Y-142296826D01*
X120176010Y-142254495D01*
X120118658Y-142200505D01*
X120054484Y-142137899D01*
X120033497Y-142116983D01*
X119816499Y-141899623D01*
X119981668Y-141657220D01*
X120031864Y-141582781D01*
X120075919Y-141515972D01*
X120111362Y-141460665D01*
X120135719Y-141420729D01*
X120146522Y-141400036D01*
X120146838Y-141398563D01*
X120141143Y-141379058D01*
X120125826Y-141339822D01*
X120103537Y-141287430D01*
X120087893Y-141252355D01*
X120058641Y-141185201D01*
X120031094Y-141117358D01*
X120009737Y-141060034D01*
X120003935Y-141042572D01*
X119987452Y-140995938D01*
X119971340Y-140959905D01*
X119962490Y-140946287D01*
X119942960Y-140937952D01*
X119900334Y-140926137D01*
X119840145Y-140912181D01*
X119767922Y-140897422D01*
X119735600Y-140891355D01*
X119653522Y-140876273D01*
X119574795Y-140861669D01*
X119507109Y-140848980D01*
X119458160Y-140839642D01*
X119448943Y-140837839D01*
X119372743Y-140822799D01*
X119372743Y-140505492D01*
X119372914Y-140401154D01*
X119373616Y-140322213D01*
X119375134Y-140265038D01*
X119377749Y-140225999D01*
X119381746Y-140201465D01*
X119387409Y-140187805D01*
X119395020Y-140181389D01*
X119398143Y-140180199D01*
X119416978Y-140175980D01*
X119458588Y-140167562D01*
X119517630Y-140155961D01*
X119588757Y-140142195D01*
X119666625Y-140127280D01*
X119745887Y-140112232D01*
X119821198Y-140098069D01*
X119887213Y-140085806D01*
X119938587Y-140076461D01*
X119969975Y-140071050D01*
X119976959Y-140070114D01*
X119983285Y-140057596D01*
X119997290Y-140024246D01*
X120016355Y-139976377D01*
X120023634Y-139957629D01*
X120052996Y-139885195D01*
X120087571Y-139805170D01*
X120118537Y-139737728D01*
X120141323Y-139686159D01*
X120156482Y-139643785D01*
X120161542Y-139617834D01*
X120160736Y-139614356D01*
X120150041Y-139597936D01*
X120125620Y-139561417D01*
X120090095Y-139508687D01*
X120046087Y-139443635D01*
X119996217Y-139370151D01*
X119986356Y-139355645D01*
X119928492Y-139269704D01*
X119885956Y-139204261D01*
X119857054Y-139156304D01*
X119840090Y-139122820D01*
X119833367Y-139100795D01*
X119835190Y-139087217D01*
X119835236Y-139087131D01*
X119849586Y-139069297D01*
X119881323Y-139034817D01*
X119927010Y-138987268D01*
X119983204Y-138930222D01*
X120046468Y-138867255D01*
X120053602Y-138860227D01*
X120133330Y-138783020D01*
X120194857Y-138726330D01*
X120239421Y-138689110D01*
X120268257Y-138670315D01*
X120280958Y-138667889D01*
X120299494Y-138678471D01*
X120337961Y-138702916D01*
X120392386Y-138738612D01*
X120458798Y-138782947D01*
X120533225Y-138833311D01*
X120550601Y-138845160D01*
X120797297Y-139013626D01*
X120908706Y-138963062D01*
X120976457Y-138933595D01*
X121049183Y-138903959D01*
X121111703Y-138880330D01*
X121114457Y-138879358D01*
X121163360Y-138861457D01*
X121201057Y-138846320D01*
X121219425Y-138837210D01*
X121219456Y-138837184D01*
X121225285Y-138820717D01*
X121235192Y-138780219D01*
X121248195Y-138720242D01*
X121263309Y-138645340D01*
X121279552Y-138560064D01*
X121280881Y-138552875D01*
X121297175Y-138465014D01*
X121312133Y-138385260D01*
X121324791Y-138318681D01*
X121334186Y-138270347D01*
X121339354Y-138245325D01*
X121339444Y-138244943D01*
X121342589Y-138234299D01*
X121348704Y-138226262D01*
X121361453Y-138220467D01*
X121384500Y-138216547D01*
X121421509Y-138214135D01*
X121476144Y-138212865D01*
X121552067Y-138212371D01*
X121652944Y-138212286D01*
X121666000Y-138212286D01*
X121769910Y-138212348D01*
G37*
X121769910Y-138212348D02*
X121848454Y-138212778D01*
X121905298Y-138213942D01*
X121944105Y-138216207D01*
X121968538Y-138219940D01*
X121982262Y-138225506D01*
X121988940Y-138233273D01*
X121992236Y-138243605D01*
X121992556Y-138244943D01*
X121997562Y-138269079D01*
X122006829Y-138316701D01*
X122019392Y-138382741D01*
X122034287Y-138462128D01*
X122050551Y-138549796D01*
X122051119Y-138552875D01*
X122067410Y-138638789D01*
X122082652Y-138714696D01*
X122095861Y-138776045D01*
X122106054Y-138818282D01*
X122112248Y-138836855D01*
X122112543Y-138837184D01*
X122130788Y-138846253D01*
X122168405Y-138861367D01*
X122217271Y-138879262D01*
X122217543Y-138879358D01*
X122279093Y-138902493D01*
X122351657Y-138931965D01*
X122420057Y-138961597D01*
X122423294Y-138963062D01*
X122534702Y-139013626D01*
X122781399Y-138845160D01*
X122857077Y-138793803D01*
X122925631Y-138747889D01*
X122983088Y-138710030D01*
X123025476Y-138682837D01*
X123048825Y-138668921D01*
X123051042Y-138667889D01*
X123068010Y-138672484D01*
X123099701Y-138694655D01*
X123147352Y-138735447D01*
X123212198Y-138795905D01*
X123278397Y-138860227D01*
X123342214Y-138923612D01*
X123399329Y-138981451D01*
X123446305Y-139030175D01*
X123479703Y-139066210D01*
X123496085Y-139085984D01*
X123496694Y-139087002D01*
X123498505Y-139100572D01*
X123491683Y-139122733D01*
X123474540Y-139156478D01*
X123445393Y-139204800D01*
X123402555Y-139270692D01*
X123345448Y-139355517D01*
X123294766Y-139430177D01*
X123249461Y-139497140D01*
X123212150Y-139552516D01*
X123185452Y-139592420D01*
X123171985Y-139612962D01*
X123171137Y-139614356D01*
X123172781Y-139634038D01*
X123185245Y-139672293D01*
X123206048Y-139721889D01*
X123213462Y-139737728D01*
X123245814Y-139808290D01*
X123280328Y-139888353D01*
X123308365Y-139957629D01*
X123328568Y-140009045D01*
X123344615Y-140048119D01*
X123353888Y-140068541D01*
X123355041Y-140070114D01*
X123372096Y-140072721D01*
X123412298Y-140079863D01*
X123470302Y-140090523D01*
X123540763Y-140103685D01*
X123618335Y-140118333D01*
X123697672Y-140133449D01*
X123773431Y-140148018D01*
X123840264Y-140161022D01*
X123892828Y-140171445D01*
X123925776Y-140178270D01*
X123933857Y-140180199D01*
X123942205Y-140184962D01*
X123948506Y-140195718D01*
X123953045Y-140216098D01*
X123956104Y-140249734D01*
X123957967Y-140300255D01*
X123958918Y-140371292D01*
X123959240Y-140466476D01*
X123959257Y-140505492D01*
X123959257Y-140822799D01*
X123883057Y-140837839D01*
X123840663Y-140845995D01*
X123777400Y-140857899D01*
X123700962Y-140872116D01*
X123619043Y-140887210D01*
X123596400Y-140891355D01*
X123520806Y-140906053D01*
X123454953Y-140920505D01*
X123404366Y-140933375D01*
X123374574Y-140943322D01*
X123369612Y-140946287D01*
X123357426Y-140967283D01*
X123339953Y-141007967D01*
X123320577Y-141060322D01*
X123316734Y-141071600D01*
X123291339Y-141141523D01*
X123259817Y-141220418D01*
X123228969Y-141291266D01*
X123228817Y-141291595D01*
X123177447Y-141402733D01*
X123346399Y-141651253D01*
X123515352Y-141899772D01*
X123298429Y-142117058D01*
X123232819Y-142181726D01*
X123172979Y-142238733D01*
X123122267Y-142285033D01*
X123084046Y-142317584D01*
X123061675Y-142333343D01*
X123058466Y-142334343D01*
X123039626Y-142326469D01*
X123001180Y-142304578D01*
X122947330Y-142271267D01*
X122882276Y-142229131D01*
X122811940Y-142181943D01*
X122740555Y-142133810D01*
X122676908Y-142091928D01*
X122625041Y-142058871D01*
X122588995Y-142037218D01*
X122572867Y-142029543D01*
X122553189Y-142036037D01*
X122515875Y-142053150D01*
X122468621Y-142077326D01*
X122463612Y-142080013D01*
X122399977Y-142111927D01*
X122356341Y-142127579D01*
X122329202Y-142127745D01*
X122315057Y-142113204D01*
X122314975Y-142113000D01*
X122307905Y-142095779D01*
X122291042Y-142054899D01*
X122265695Y-141993525D01*
X122233171Y-141914819D01*
X122194778Y-141821947D01*
X122151822Y-141718072D01*
X122110222Y-141617502D01*
X122064504Y-141506516D01*
X122022526Y-141403703D01*
X121985548Y-141312215D01*
X121954827Y-141235201D01*
X121931622Y-141175815D01*
X121917190Y-141137209D01*
X121912743Y-141122800D01*
X121923896Y-141106272D01*
X121953069Y-141079930D01*
X121991971Y-141050887D01*
X122102757Y-140959039D01*
X122189351Y-140853759D01*
X122250716Y-140737266D01*
X122285815Y-140611776D01*
X122293608Y-140479507D01*
X122287943Y-140418457D01*
X122257078Y-140291795D01*
X122203920Y-140179941D01*
X122131767Y-140084001D01*
X122043917Y-140005076D01*
X121943665Y-139944270D01*
X121834310Y-139902687D01*
X121719147Y-139881428D01*
X121601475Y-139881599D01*
X121484590Y-139904301D01*
X121371789Y-139950638D01*
X121266369Y-140021713D01*
X121222368Y-140061911D01*
X121137979Y-140165129D01*
X121079222Y-140277925D01*
X121045704Y-140397010D01*
X121037035Y-140519095D01*
X121052823Y-140640893D01*
X121092678Y-140759116D01*
X121156207Y-140870475D01*
X121243021Y-140971684D01*
X121340029Y-141050887D01*
X121380437Y-141081162D01*
X121408982Y-141107219D01*
X121419257Y-141122825D01*
X121413877Y-141139843D01*
X121398575Y-141180500D01*
X121374612Y-141241642D01*
X121343244Y-141320119D01*
X121305732Y-141412780D01*
X121263333Y-141516472D01*
X121221663Y-141617526D01*
X121175690Y-141728607D01*
X121133107Y-141831541D01*
X121095221Y-141923165D01*
X121063340Y-142000316D01*
X121038771Y-142059831D01*
X121022820Y-142098544D01*
X121016910Y-142113000D01*
X121002948Y-142127685D01*
X120975940Y-142127642D01*
X120932413Y-142112099D01*
X120868890Y-142080284D01*
X120868388Y-142080013D01*
X120820560Y-142055323D01*
X120781897Y-142037338D01*
X120760095Y-142029614D01*
X120759133Y-142029543D01*
X120742721Y-142037378D01*
X120706487Y-142059165D01*
X120654474Y-142092328D01*
X120590725Y-142134291D01*
X120520060Y-142181943D01*
X120448116Y-142230191D01*
X120383274Y-142272151D01*
X120329735Y-142305227D01*
X120291697Y-142326821D01*
X120273533Y-142334343D01*
X120256808Y-142324457D01*
X120223180Y-142296826D01*
X120176010Y-142254495D01*
X120118658Y-142200505D01*
X120054484Y-142137899D01*
X120033497Y-142116983D01*
X119816499Y-141899623D01*
X119981668Y-141657220D01*
X120031864Y-141582781D01*
X120075919Y-141515972D01*
X120111362Y-141460665D01*
X120135719Y-141420729D01*
X120146522Y-141400036D01*
X120146838Y-141398563D01*
X120141143Y-141379058D01*
X120125826Y-141339822D01*
X120103537Y-141287430D01*
X120087893Y-141252355D01*
X120058641Y-141185201D01*
X120031094Y-141117358D01*
X120009737Y-141060034D01*
X120003935Y-141042572D01*
X119987452Y-140995938D01*
X119971340Y-140959905D01*
X119962490Y-140946287D01*
X119942960Y-140937952D01*
X119900334Y-140926137D01*
X119840145Y-140912181D01*
X119767922Y-140897422D01*
X119735600Y-140891355D01*
X119653522Y-140876273D01*
X119574795Y-140861669D01*
X119507109Y-140848980D01*
X119458160Y-140839642D01*
X119448943Y-140837839D01*
X119372743Y-140822799D01*
X119372743Y-140505492D01*
X119372914Y-140401154D01*
X119373616Y-140322213D01*
X119375134Y-140265038D01*
X119377749Y-140225999D01*
X119381746Y-140201465D01*
X119387409Y-140187805D01*
X119395020Y-140181389D01*
X119398143Y-140180199D01*
X119416978Y-140175980D01*
X119458588Y-140167562D01*
X119517630Y-140155961D01*
X119588757Y-140142195D01*
X119666625Y-140127280D01*
X119745887Y-140112232D01*
X119821198Y-140098069D01*
X119887213Y-140085806D01*
X119938587Y-140076461D01*
X119969975Y-140071050D01*
X119976959Y-140070114D01*
X119983285Y-140057596D01*
X119997290Y-140024246D01*
X120016355Y-139976377D01*
X120023634Y-139957629D01*
X120052996Y-139885195D01*
X120087571Y-139805170D01*
X120118537Y-139737728D01*
X120141323Y-139686159D01*
X120156482Y-139643785D01*
X120161542Y-139617834D01*
X120160736Y-139614356D01*
X120150041Y-139597936D01*
X120125620Y-139561417D01*
X120090095Y-139508687D01*
X120046087Y-139443635D01*
X119996217Y-139370151D01*
X119986356Y-139355645D01*
X119928492Y-139269704D01*
X119885956Y-139204261D01*
X119857054Y-139156304D01*
X119840090Y-139122820D01*
X119833367Y-139100795D01*
X119835190Y-139087217D01*
X119835236Y-139087131D01*
X119849586Y-139069297D01*
X119881323Y-139034817D01*
X119927010Y-138987268D01*
X119983204Y-138930222D01*
X120046468Y-138867255D01*
X120053602Y-138860227D01*
X120133330Y-138783020D01*
X120194857Y-138726330D01*
X120239421Y-138689110D01*
X120268257Y-138670315D01*
X120280958Y-138667889D01*
X120299494Y-138678471D01*
X120337961Y-138702916D01*
X120392386Y-138738612D01*
X120458798Y-138782947D01*
X120533225Y-138833311D01*
X120550601Y-138845160D01*
X120797297Y-139013626D01*
X120908706Y-138963062D01*
X120976457Y-138933595D01*
X121049183Y-138903959D01*
X121111703Y-138880330D01*
X121114457Y-138879358D01*
X121163360Y-138861457D01*
X121201057Y-138846320D01*
X121219425Y-138837210D01*
X121219456Y-138837184D01*
X121225285Y-138820717D01*
X121235192Y-138780219D01*
X121248195Y-138720242D01*
X121263309Y-138645340D01*
X121279552Y-138560064D01*
X121280881Y-138552875D01*
X121297175Y-138465014D01*
X121312133Y-138385260D01*
X121324791Y-138318681D01*
X121334186Y-138270347D01*
X121339354Y-138245325D01*
X121339444Y-138244943D01*
X121342589Y-138234299D01*
X121348704Y-138226262D01*
X121361453Y-138220467D01*
X121384500Y-138216547D01*
X121421509Y-138214135D01*
X121476144Y-138212865D01*
X121552067Y-138212371D01*
X121652944Y-138212286D01*
X121666000Y-138212286D01*
X121769910Y-138212348D01*
G36*
X122450726Y-143060086D02*
G01*
X122473135Y-143008600D01*
X122508124Y-142968443D01*
X122535375Y-142947861D01*
X122584907Y-142925625D01*
X122642316Y-142915304D01*
X122695682Y-142918067D01*
X122725543Y-142929212D01*
X122737261Y-142932383D01*
X122745037Y-142920557D01*
X122750465Y-142888866D01*
X122754571Y-142840593D01*
X122759067Y-142786829D01*
X122765313Y-142754482D01*
X122776676Y-142735985D01*
X122796528Y-142723770D01*
X122809000Y-142718362D01*
X122856171Y-142698601D01*
X122856117Y-143035358D01*
X122855933Y-143143837D01*
X122855219Y-143227287D01*
X122853675Y-143289704D01*
X122851001Y-143335085D01*
X122846894Y-143367429D01*
X122841055Y-143390733D01*
X122833182Y-143408995D01*
X122827221Y-143419418D01*
X122777855Y-143475945D01*
X122715264Y-143511377D01*
X122646013Y-143524090D01*
X122576668Y-143512463D01*
X122535375Y-143491568D01*
X122492025Y-143455422D01*
X122462481Y-143411276D01*
X122444655Y-143353462D01*
X122436463Y-143276313D01*
X122435302Y-143219714D01*
X122435458Y-143215647D01*
X122536857Y-143215647D01*
X122537476Y-143280550D01*
X122540314Y-143323514D01*
X122546840Y-143351622D01*
X122558523Y-143371953D01*
X122572483Y-143387288D01*
X122619365Y-143416890D01*
X122669701Y-143419419D01*
X122717276Y-143394705D01*
X122720979Y-143391356D01*
X122736783Y-143373935D01*
X122746693Y-143353209D01*
X122752058Y-143322362D01*
X122754228Y-143274577D01*
X122754571Y-143221748D01*
X122753827Y-143155381D01*
X122750748Y-143111106D01*
X122744061Y-143082009D01*
X122732496Y-143061173D01*
X122723013Y-143050107D01*
X122678960Y-143022198D01*
X122628224Y-143018843D01*
X122579796Y-143040159D01*
X122570450Y-143048073D01*
X122554540Y-143065647D01*
X122544610Y-143086587D01*
X122539278Y-143117782D01*
X122537163Y-143166122D01*
X122536857Y-143215647D01*
X122435458Y-143215647D01*
X122438810Y-143128568D01*
X122450726Y-143060086D01*
G37*
X122450726Y-143060086D02*
X122473135Y-143008600D01*
X122508124Y-142968443D01*
X122535375Y-142947861D01*
X122584907Y-142925625D01*
X122642316Y-142915304D01*
X122695682Y-142918067D01*
X122725543Y-142929212D01*
X122737261Y-142932383D01*
X122745037Y-142920557D01*
X122750465Y-142888866D01*
X122754571Y-142840593D01*
X122759067Y-142786829D01*
X122765313Y-142754482D01*
X122776676Y-142735985D01*
X122796528Y-142723770D01*
X122809000Y-142718362D01*
X122856171Y-142698601D01*
X122856117Y-143035358D01*
X122855933Y-143143837D01*
X122855219Y-143227287D01*
X122853675Y-143289704D01*
X122851001Y-143335085D01*
X122846894Y-143367429D01*
X122841055Y-143390733D01*
X122833182Y-143408995D01*
X122827221Y-143419418D01*
X122777855Y-143475945D01*
X122715264Y-143511377D01*
X122646013Y-143524090D01*
X122576668Y-143512463D01*
X122535375Y-143491568D01*
X122492025Y-143455422D01*
X122462481Y-143411276D01*
X122444655Y-143353462D01*
X122436463Y-143276313D01*
X122435302Y-143219714D01*
X122435458Y-143215647D01*
X122536857Y-143215647D01*
X122537476Y-143280550D01*
X122540314Y-143323514D01*
X122546840Y-143351622D01*
X122558523Y-143371953D01*
X122572483Y-143387288D01*
X122619365Y-143416890D01*
X122669701Y-143419419D01*
X122717276Y-143394705D01*
X122720979Y-143391356D01*
X122736783Y-143373935D01*
X122746693Y-143353209D01*
X122752058Y-143322362D01*
X122754228Y-143274577D01*
X122754571Y-143221748D01*
X122753827Y-143155381D01*
X122750748Y-143111106D01*
X122744061Y-143082009D01*
X122732496Y-143061173D01*
X122723013Y-143050107D01*
X122678960Y-143022198D01*
X122628224Y-143018843D01*
X122579796Y-143040159D01*
X122570450Y-143048073D01*
X122554540Y-143065647D01*
X122544610Y-143086587D01*
X122539278Y-143117782D01*
X122537163Y-143166122D01*
X122536857Y-143215647D01*
X122435458Y-143215647D01*
X122438810Y-143128568D01*
X122450726Y-143060086D01*
G36*
X121705744Y-142920968D02*
G01*
X121762616Y-142942087D01*
X121763267Y-142942493D01*
X121798440Y-142968380D01*
X121824407Y-142998633D01*
X121842670Y-143038058D01*
X121854732Y-143091462D01*
X121862096Y-143163651D01*
X121866264Y-143259432D01*
X121866629Y-143273078D01*
X121871876Y-143478842D01*
X121827716Y-143501678D01*
X121795763Y-143517110D01*
X121776470Y-143524423D01*
X121775578Y-143524514D01*
X121772239Y-143511022D01*
X121769587Y-143474626D01*
X121767956Y-143421452D01*
X121767600Y-143378393D01*
X121767592Y-143308641D01*
X121764403Y-143264837D01*
X121753288Y-143243944D01*
X121729501Y-143242925D01*
X121688296Y-143258741D01*
X121626086Y-143287815D01*
X121580341Y-143311963D01*
X121556813Y-143332913D01*
X121549896Y-143355747D01*
X121549886Y-143356877D01*
X121561299Y-143396212D01*
X121595092Y-143417462D01*
X121646809Y-143420539D01*
X121684061Y-143420006D01*
X121703703Y-143430735D01*
X121715952Y-143456505D01*
X121723002Y-143489337D01*
X121712842Y-143507966D01*
X121709017Y-143510632D01*
X121673001Y-143521340D01*
X121622566Y-143522856D01*
X121570626Y-143515759D01*
X121533822Y-143502788D01*
X121482938Y-143459585D01*
X121454014Y-143399446D01*
X121448286Y-143352462D01*
X121452657Y-143310082D01*
X121468475Y-143275488D01*
X121499797Y-143244763D01*
X121550678Y-143213990D01*
X121625176Y-143179252D01*
X121629714Y-143177288D01*
X121696821Y-143146287D01*
X121738232Y-143120862D01*
X121755981Y-143098014D01*
X121752107Y-143074745D01*
X121728643Y-143048056D01*
X121721627Y-143041914D01*
X121674630Y-143018100D01*
X121625933Y-143019103D01*
X121583522Y-143042451D01*
X121555384Y-143085675D01*
X121552769Y-143094160D01*
X121527308Y-143135308D01*
X121495001Y-143155128D01*
X121448286Y-143174770D01*
X121448286Y-143123950D01*
X121462496Y-143050082D01*
X121504675Y-142982327D01*
X121526624Y-142959661D01*
X121576517Y-142930569D01*
X121639967Y-142917400D01*
X121705744Y-142920968D01*
G37*
X121705744Y-142920968D02*
X121762616Y-142942087D01*
X121763267Y-142942493D01*
X121798440Y-142968380D01*
X121824407Y-142998633D01*
X121842670Y-143038058D01*
X121854732Y-143091462D01*
X121862096Y-143163651D01*
X121866264Y-143259432D01*
X121866629Y-143273078D01*
X121871876Y-143478842D01*
X121827716Y-143501678D01*
X121795763Y-143517110D01*
X121776470Y-143524423D01*
X121775578Y-143524514D01*
X121772239Y-143511022D01*
X121769587Y-143474626D01*
X121767956Y-143421452D01*
X121767600Y-143378393D01*
X121767592Y-143308641D01*
X121764403Y-143264837D01*
X121753288Y-143243944D01*
X121729501Y-143242925D01*
X121688296Y-143258741D01*
X121626086Y-143287815D01*
X121580341Y-143311963D01*
X121556813Y-143332913D01*
X121549896Y-143355747D01*
X121549886Y-143356877D01*
X121561299Y-143396212D01*
X121595092Y-143417462D01*
X121646809Y-143420539D01*
X121684061Y-143420006D01*
X121703703Y-143430735D01*
X121715952Y-143456505D01*
X121723002Y-143489337D01*
X121712842Y-143507966D01*
X121709017Y-143510632D01*
X121673001Y-143521340D01*
X121622566Y-143522856D01*
X121570626Y-143515759D01*
X121533822Y-143502788D01*
X121482938Y-143459585D01*
X121454014Y-143399446D01*
X121448286Y-143352462D01*
X121452657Y-143310082D01*
X121468475Y-143275488D01*
X121499797Y-143244763D01*
X121550678Y-143213990D01*
X121625176Y-143179252D01*
X121629714Y-143177288D01*
X121696821Y-143146287D01*
X121738232Y-143120862D01*
X121755981Y-143098014D01*
X121752107Y-143074745D01*
X121728643Y-143048056D01*
X121721627Y-143041914D01*
X121674630Y-143018100D01*
X121625933Y-143019103D01*
X121583522Y-143042451D01*
X121555384Y-143085675D01*
X121552769Y-143094160D01*
X121527308Y-143135308D01*
X121495001Y-143155128D01*
X121448286Y-143174770D01*
X121448286Y-143123950D01*
X121462496Y-143050082D01*
X121504675Y-142982327D01*
X121526624Y-142959661D01*
X121576517Y-142930569D01*
X121639967Y-142917400D01*
X121705744Y-142920968D01*
G36*
X124318600Y-142928752D02*
G01*
X124335948Y-142936334D01*
X124377356Y-142969128D01*
X124412765Y-143016547D01*
X124434664Y-143067151D01*
X124438229Y-143092098D01*
X124426279Y-143126927D01*
X124400067Y-143145357D01*
X124371964Y-143156516D01*
X124359095Y-143158572D01*
X124352829Y-143143649D01*
X124340456Y-143111175D01*
X124335028Y-143096502D01*
X124304590Y-143045744D01*
X124260520Y-143020427D01*
X124204010Y-143021206D01*
X124199825Y-143022203D01*
X124169655Y-143036507D01*
X124147476Y-143064393D01*
X124132327Y-143109287D01*
X124123250Y-143174615D01*
X124119286Y-143263804D01*
X124118914Y-143311261D01*
X124118730Y-143386071D01*
X124117522Y-143437069D01*
X124114309Y-143469471D01*
X124108109Y-143488495D01*
X124097940Y-143499356D01*
X124082819Y-143507272D01*
X124081946Y-143507670D01*
X124052828Y-143519981D01*
X124038403Y-143524514D01*
X124036186Y-143510809D01*
X124034289Y-143472925D01*
X124032847Y-143415715D01*
X124031998Y-143344027D01*
X124031829Y-143291565D01*
X124032692Y-143190047D01*
X124036070Y-143113032D01*
X124043142Y-143056023D01*
X124055088Y-143014526D01*
X124073090Y-142984043D01*
X124098327Y-142960080D01*
X124123247Y-142943355D01*
X124183171Y-142921097D01*
X124252911Y-142916076D01*
X124318600Y-142928752D01*
G37*
X124318600Y-142928752D02*
X124335948Y-142936334D01*
X124377356Y-142969128D01*
X124412765Y-143016547D01*
X124434664Y-143067151D01*
X124438229Y-143092098D01*
X124426279Y-143126927D01*
X124400067Y-143145357D01*
X124371964Y-143156516D01*
X124359095Y-143158572D01*
X124352829Y-143143649D01*
X124340456Y-143111175D01*
X124335028Y-143096502D01*
X124304590Y-143045744D01*
X124260520Y-143020427D01*
X124204010Y-143021206D01*
X124199825Y-143022203D01*
X124169655Y-143036507D01*
X124147476Y-143064393D01*
X124132327Y-143109287D01*
X124123250Y-143174615D01*
X124119286Y-143263804D01*
X124118914Y-143311261D01*
X124118730Y-143386071D01*
X124117522Y-143437069D01*
X124114309Y-143469471D01*
X124108109Y-143488495D01*
X124097940Y-143499356D01*
X124082819Y-143507272D01*
X124081946Y-143507670D01*
X124052828Y-143519981D01*
X124038403Y-143524514D01*
X124036186Y-143510809D01*
X124034289Y-143472925D01*
X124032847Y-143415715D01*
X124031998Y-143344027D01*
X124031829Y-143291565D01*
X124032692Y-143190047D01*
X124036070Y-143113032D01*
X124043142Y-143056023D01*
X124055088Y-143014526D01*
X124073090Y-142984043D01*
X124098327Y-142960080D01*
X124123247Y-142943355D01*
X124183171Y-142921097D01*
X124252911Y-142916076D01*
X124318600Y-142928752D01*
G36*
X118403096Y-143078159D02*
G01*
X118408068Y-143041949D01*
X118416713Y-143015299D01*
X118430005Y-142991722D01*
X118432943Y-142987338D01*
X118482313Y-142928249D01*
X118536109Y-142893947D01*
X118601602Y-142880331D01*
X118623842Y-142879665D01*
X118707115Y-142891962D01*
X118775145Y-142927733D01*
X118825351Y-142985301D01*
X118843185Y-143022312D01*
X118857063Y-143077882D01*
X118864167Y-143148096D01*
X118864840Y-143224727D01*
X118859427Y-143299552D01*
X118848270Y-143364342D01*
X118831714Y-143410873D01*
X118826626Y-143418887D01*
X118766355Y-143478707D01*
X118694769Y-143514535D01*
X118617092Y-143525020D01*
X118538548Y-143508810D01*
X118516689Y-143499092D01*
X118474122Y-143469143D01*
X118436763Y-143429433D01*
X118433232Y-143424397D01*
X118418881Y-143400124D01*
X118409394Y-143374178D01*
X118403790Y-143340022D01*
X118401086Y-143291119D01*
X118400299Y-143220935D01*
X118400286Y-143205200D01*
X118400322Y-143200192D01*
X118545429Y-143200192D01*
X118546273Y-143266430D01*
X118549596Y-143310386D01*
X118556583Y-143338779D01*
X118568416Y-143358325D01*
X118574457Y-143364857D01*
X118609186Y-143389680D01*
X118642903Y-143388548D01*
X118676995Y-143367016D01*
X118697329Y-143344029D01*
X118709371Y-143310478D01*
X118716134Y-143257569D01*
X118716598Y-143251399D01*
X118717752Y-143155513D01*
X118705688Y-143084299D01*
X118680570Y-143038194D01*
X118642560Y-143017635D01*
X118628992Y-143016514D01*
X118593364Y-143022152D01*
X118568994Y-143041686D01*
X118554093Y-143079042D01*
X118546875Y-143138150D01*
X118545429Y-143200192D01*
X118400322Y-143200192D01*
X118400826Y-143130413D01*
X118403096Y-143078159D01*
G37*
X118403096Y-143078159D02*
X118408068Y-143041949D01*
X118416713Y-143015299D01*
X118430005Y-142991722D01*
X118432943Y-142987338D01*
X118482313Y-142928249D01*
X118536109Y-142893947D01*
X118601602Y-142880331D01*
X118623842Y-142879665D01*
X118707115Y-142891962D01*
X118775145Y-142927733D01*
X118825351Y-142985301D01*
X118843185Y-143022312D01*
X118857063Y-143077882D01*
X118864167Y-143148096D01*
X118864840Y-143224727D01*
X118859427Y-143299552D01*
X118848270Y-143364342D01*
X118831714Y-143410873D01*
X118826626Y-143418887D01*
X118766355Y-143478707D01*
X118694769Y-143514535D01*
X118617092Y-143525020D01*
X118538548Y-143508810D01*
X118516689Y-143499092D01*
X118474122Y-143469143D01*
X118436763Y-143429433D01*
X118433232Y-143424397D01*
X118418881Y-143400124D01*
X118409394Y-143374178D01*
X118403790Y-143340022D01*
X118401086Y-143291119D01*
X118400299Y-143220935D01*
X118400286Y-143205200D01*
X118400322Y-143200192D01*
X118545429Y-143200192D01*
X118546273Y-143266430D01*
X118549596Y-143310386D01*
X118556583Y-143338779D01*
X118568416Y-143358325D01*
X118574457Y-143364857D01*
X118609186Y-143389680D01*
X118642903Y-143388548D01*
X118676995Y-143367016D01*
X118697329Y-143344029D01*
X118709371Y-143310478D01*
X118716134Y-143257569D01*
X118716598Y-143251399D01*
X118717752Y-143155513D01*
X118705688Y-143084299D01*
X118680570Y-143038194D01*
X118642560Y-143017635D01*
X118628992Y-143016514D01*
X118593364Y-143022152D01*
X118568994Y-143041686D01*
X118554093Y-143079042D01*
X118546875Y-143138150D01*
X118545429Y-143200192D01*
X118400322Y-143200192D01*
X118400826Y-143130413D01*
X118403096Y-143078159D01*
G36*
X121041886Y-142821289D02*
G01*
X121046139Y-142880613D01*
X121051025Y-142915572D01*
X121057795Y-142930820D01*
X121067702Y-142931015D01*
X121070914Y-142929195D01*
X121113644Y-142916015D01*
X121169227Y-142916785D01*
X121225737Y-142930333D01*
X121261082Y-142947861D01*
X121297321Y-142975861D01*
X121323813Y-143007549D01*
X121341999Y-143047813D01*
X121353322Y-143101543D01*
X121359222Y-143173626D01*
X121361143Y-143268951D01*
X121361177Y-143287237D01*
X121361200Y-143492646D01*
X121315491Y-143508580D01*
X121283027Y-143519420D01*
X121265215Y-143524468D01*
X121264691Y-143524514D01*
X121262937Y-143510828D01*
X121261444Y-143473076D01*
X121260326Y-143416224D01*
X121259697Y-143345234D01*
X121259600Y-143302073D01*
X121259398Y-143216973D01*
X121258358Y-143155981D01*
X121255831Y-143114177D01*
X121251164Y-143086642D01*
X121243707Y-143068456D01*
X121232811Y-143054698D01*
X121226007Y-143048073D01*
X121179272Y-143021375D01*
X121128272Y-143019375D01*
X121082001Y-143041955D01*
X121073444Y-143050107D01*
X121060893Y-143065436D01*
X121052188Y-143083618D01*
X121046631Y-143109909D01*
X121043526Y-143149562D01*
X121042176Y-143207832D01*
X121041886Y-143288173D01*
X121041886Y-143492646D01*
X120996177Y-143508580D01*
X120963713Y-143519420D01*
X120945901Y-143524468D01*
X120945377Y-143524514D01*
X120944037Y-143510623D01*
X120942828Y-143471439D01*
X120941801Y-143410700D01*
X120941002Y-143332141D01*
X120940481Y-143239498D01*
X120940286Y-143136509D01*
X120940286Y-142739342D01*
X120987457Y-142719444D01*
X121034629Y-142699547D01*
X121041886Y-142821289D01*
G37*
X121041886Y-142821289D02*
X121046139Y-142880613D01*
X121051025Y-142915572D01*
X121057795Y-142930820D01*
X121067702Y-142931015D01*
X121070914Y-142929195D01*
X121113644Y-142916015D01*
X121169227Y-142916785D01*
X121225737Y-142930333D01*
X121261082Y-142947861D01*
X121297321Y-142975861D01*
X121323813Y-143007549D01*
X121341999Y-143047813D01*
X121353322Y-143101543D01*
X121359222Y-143173626D01*
X121361143Y-143268951D01*
X121361177Y-143287237D01*
X121361200Y-143492646D01*
X121315491Y-143508580D01*
X121283027Y-143519420D01*
X121265215Y-143524468D01*
X121264691Y-143524514D01*
X121262937Y-143510828D01*
X121261444Y-143473076D01*
X121260326Y-143416224D01*
X121259697Y-143345234D01*
X121259600Y-143302073D01*
X121259398Y-143216973D01*
X121258358Y-143155981D01*
X121255831Y-143114177D01*
X121251164Y-143086642D01*
X121243707Y-143068456D01*
X121232811Y-143054698D01*
X121226007Y-143048073D01*
X121179272Y-143021375D01*
X121128272Y-143019375D01*
X121082001Y-143041955D01*
X121073444Y-143050107D01*
X121060893Y-143065436D01*
X121052188Y-143083618D01*
X121046631Y-143109909D01*
X121043526Y-143149562D01*
X121042176Y-143207832D01*
X121041886Y-143288173D01*
X121041886Y-143492646D01*
X120996177Y-143508580D01*
X120963713Y-143519420D01*
X120945901Y-143524468D01*
X120945377Y-143524514D01*
X120944037Y-143510623D01*
X120942828Y-143471439D01*
X120941801Y-143410700D01*
X120941002Y-143332141D01*
X120940481Y-143239498D01*
X120940286Y-143136509D01*
X120940286Y-142739342D01*
X120987457Y-142719444D01*
X121034629Y-142699547D01*
X121041886Y-142821289D01*
G36*
X123810876Y-142926335D02*
G01*
X123852667Y-142945344D01*
X123885469Y-142968378D01*
X123909503Y-142994133D01*
X123926097Y-143027358D01*
X123936577Y-143072800D01*
X123942271Y-143135207D01*
X123944507Y-143219327D01*
X123944743Y-143274721D01*
X123944743Y-143490826D01*
X123907774Y-143507670D01*
X123878656Y-143519981D01*
X123864231Y-143524514D01*
X123861472Y-143511025D01*
X123859282Y-143474653D01*
X123857942Y-143421542D01*
X123857657Y-143379372D01*
X123856434Y-143318447D01*
X123853136Y-143270115D01*
X123848321Y-143240518D01*
X123844496Y-143234229D01*
X123818783Y-143240652D01*
X123778418Y-143257125D01*
X123731679Y-143279458D01*
X123686845Y-143303457D01*
X123652193Y-143324930D01*
X123636002Y-143339685D01*
X123635938Y-143339845D01*
X123637330Y-143367152D01*
X123649818Y-143393219D01*
X123671743Y-143414392D01*
X123703743Y-143421474D01*
X123731092Y-143420649D01*
X123769826Y-143420042D01*
X123790158Y-143429116D01*
X123802369Y-143453092D01*
X123803909Y-143457613D01*
X123809203Y-143491806D01*
X123795047Y-143512568D01*
X123758148Y-143522462D01*
X123718289Y-143524292D01*
X123646562Y-143510727D01*
X123609432Y-143491355D01*
X123563576Y-143445845D01*
X123539256Y-143389983D01*
X123537073Y-143330957D01*
X123557629Y-143275953D01*
X123588549Y-143241486D01*
X123619420Y-143222189D01*
X123667942Y-143197759D01*
X123724485Y-143172985D01*
X123733910Y-143169199D01*
X123796019Y-143141791D01*
X123831822Y-143117634D01*
X123843337Y-143093619D01*
X123832580Y-143066635D01*
X123814114Y-143045543D01*
X123770469Y-143019572D01*
X123722446Y-143017624D01*
X123678406Y-143037637D01*
X123646709Y-143077551D01*
X123642549Y-143087848D01*
X123618327Y-143125724D01*
X123582965Y-143153842D01*
X123538343Y-143176917D01*
X123538343Y-143111485D01*
X123540969Y-143071506D01*
X123552230Y-143039997D01*
X123577199Y-143006378D01*
X123601169Y-142980484D01*
X123638441Y-142943817D01*
X123667401Y-142924121D01*
X123698505Y-142916220D01*
X123733713Y-142914914D01*
X123810876Y-142926335D01*
G37*
X123810876Y-142926335D02*
X123852667Y-142945344D01*
X123885469Y-142968378D01*
X123909503Y-142994133D01*
X123926097Y-143027358D01*
X123936577Y-143072800D01*
X123942271Y-143135207D01*
X123944507Y-143219327D01*
X123944743Y-143274721D01*
X123944743Y-143490826D01*
X123907774Y-143507670D01*
X123878656Y-143519981D01*
X123864231Y-143524514D01*
X123861472Y-143511025D01*
X123859282Y-143474653D01*
X123857942Y-143421542D01*
X123857657Y-143379372D01*
X123856434Y-143318447D01*
X123853136Y-143270115D01*
X123848321Y-143240518D01*
X123844496Y-143234229D01*
X123818783Y-143240652D01*
X123778418Y-143257125D01*
X123731679Y-143279458D01*
X123686845Y-143303457D01*
X123652193Y-143324930D01*
X123636002Y-143339685D01*
X123635938Y-143339845D01*
X123637330Y-143367152D01*
X123649818Y-143393219D01*
X123671743Y-143414392D01*
X123703743Y-143421474D01*
X123731092Y-143420649D01*
X123769826Y-143420042D01*
X123790158Y-143429116D01*
X123802369Y-143453092D01*
X123803909Y-143457613D01*
X123809203Y-143491806D01*
X123795047Y-143512568D01*
X123758148Y-143522462D01*
X123718289Y-143524292D01*
X123646562Y-143510727D01*
X123609432Y-143491355D01*
X123563576Y-143445845D01*
X123539256Y-143389983D01*
X123537073Y-143330957D01*
X123557629Y-143275953D01*
X123588549Y-143241486D01*
X123619420Y-143222189D01*
X123667942Y-143197759D01*
X123724485Y-143172985D01*
X123733910Y-143169199D01*
X123796019Y-143141791D01*
X123831822Y-143117634D01*
X123843337Y-143093619D01*
X123832580Y-143066635D01*
X123814114Y-143045543D01*
X123770469Y-143019572D01*
X123722446Y-143017624D01*
X123678406Y-143037637D01*
X123646709Y-143077551D01*
X123642549Y-143087848D01*
X123618327Y-143125724D01*
X123582965Y-143153842D01*
X123538343Y-143176917D01*
X123538343Y-143111485D01*
X123540969Y-143071506D01*
X123552230Y-143039997D01*
X123577199Y-143006378D01*
X123601169Y-142980484D01*
X123638441Y-142943817D01*
X123667401Y-142924121D01*
X123698505Y-142916220D01*
X123733713Y-142914914D01*
X123810876Y-142926335D01*
G36*
X119537550Y-143006212D02*
G01*
X119571456Y-142957302D01*
X119632653Y-142907878D01*
X119700063Y-142883359D01*
X119768880Y-142881797D01*
X119834303Y-142901239D01*
X119891527Y-142939735D01*
X119935749Y-142995335D01*
X119962167Y-143066086D01*
X119967510Y-143118162D01*
X119966903Y-143139893D01*
X119961822Y-143156531D01*
X119947855Y-143171437D01*
X119920589Y-143187973D01*
X119875612Y-143209498D01*
X119808511Y-143239374D01*
X119808171Y-143239524D01*
X119746407Y-143267813D01*
X119695759Y-143292933D01*
X119661404Y-143312179D01*
X119648518Y-143322848D01*
X119648514Y-143322934D01*
X119659872Y-143346166D01*
X119686431Y-143371774D01*
X119716923Y-143390221D01*
X119732370Y-143393886D01*
X119774515Y-143381212D01*
X119810808Y-143349471D01*
X119828517Y-143314572D01*
X119845552Y-143288845D01*
X119878922Y-143259546D01*
X119918149Y-143234235D01*
X119952756Y-143220471D01*
X119959993Y-143219714D01*
X119968139Y-143232160D01*
X119968630Y-143263972D01*
X119962643Y-143306866D01*
X119951357Y-143352558D01*
X119935950Y-143392761D01*
X119935171Y-143394322D01*
X119888804Y-143459062D01*
X119828711Y-143503097D01*
X119760465Y-143524711D01*
X119689638Y-143522185D01*
X119621804Y-143493804D01*
X119618788Y-143491808D01*
X119565427Y-143443448D01*
X119530340Y-143380352D01*
X119510922Y-143297387D01*
X119508316Y-143274078D01*
X119503701Y-143164055D01*
X119509233Y-143112748D01*
X119648514Y-143112748D01*
X119650324Y-143144753D01*
X119660222Y-143154093D01*
X119684898Y-143147105D01*
X119723795Y-143130587D01*
X119767275Y-143109881D01*
X119768356Y-143109333D01*
X119805209Y-143089949D01*
X119820000Y-143077013D01*
X119816353Y-143063451D01*
X119800995Y-143045632D01*
X119761923Y-143019845D01*
X119719846Y-143017950D01*
X119682103Y-143036717D01*
X119656034Y-143072915D01*
X119648514Y-143112748D01*
X119509233Y-143112748D01*
X119513194Y-143076027D01*
X119537550Y-143006212D01*
G37*
X119537550Y-143006212D02*
X119571456Y-142957302D01*
X119632653Y-142907878D01*
X119700063Y-142883359D01*
X119768880Y-142881797D01*
X119834303Y-142901239D01*
X119891527Y-142939735D01*
X119935749Y-142995335D01*
X119962167Y-143066086D01*
X119967510Y-143118162D01*
X119966903Y-143139893D01*
X119961822Y-143156531D01*
X119947855Y-143171437D01*
X119920589Y-143187973D01*
X119875612Y-143209498D01*
X119808511Y-143239374D01*
X119808171Y-143239524D01*
X119746407Y-143267813D01*
X119695759Y-143292933D01*
X119661404Y-143312179D01*
X119648518Y-143322848D01*
X119648514Y-143322934D01*
X119659872Y-143346166D01*
X119686431Y-143371774D01*
X119716923Y-143390221D01*
X119732370Y-143393886D01*
X119774515Y-143381212D01*
X119810808Y-143349471D01*
X119828517Y-143314572D01*
X119845552Y-143288845D01*
X119878922Y-143259546D01*
X119918149Y-143234235D01*
X119952756Y-143220471D01*
X119959993Y-143219714D01*
X119968139Y-143232160D01*
X119968630Y-143263972D01*
X119962643Y-143306866D01*
X119951357Y-143352558D01*
X119935950Y-143392761D01*
X119935171Y-143394322D01*
X119888804Y-143459062D01*
X119828711Y-143503097D01*
X119760465Y-143524711D01*
X119689638Y-143522185D01*
X119621804Y-143493804D01*
X119618788Y-143491808D01*
X119565427Y-143443448D01*
X119530340Y-143380352D01*
X119510922Y-143297387D01*
X119508316Y-143274078D01*
X119503701Y-143164055D01*
X119509233Y-143112748D01*
X119648514Y-143112748D01*
X119650324Y-143144753D01*
X119660222Y-143154093D01*
X119684898Y-143147105D01*
X119723795Y-143130587D01*
X119767275Y-143109881D01*
X119768356Y-143109333D01*
X119805209Y-143089949D01*
X119820000Y-143077013D01*
X119816353Y-143063451D01*
X119800995Y-143045632D01*
X119761923Y-143019845D01*
X119719846Y-143017950D01*
X119682103Y-143036717D01*
X119656034Y-143072915D01*
X119648514Y-143112748D01*
X119509233Y-143112748D01*
X119513194Y-143076027D01*
X119537550Y-143006212D01*
%LPC*%
D14*
X113284000Y-114046000D03*
D15*
X113284000Y-121666000D03*
D14*
X116332000Y-114046000D03*
D15*
X116332000Y-121666000D03*
D14*
X110236000Y-114046000D03*
D15*
X110236000Y-121666000D03*
D16*
X124196000Y-125994000D03*
D15*
X121656000Y-125994000D03*
X119116000Y-125994000D03*
X116576000Y-125994000D03*
X116576000Y-133614000D03*
X119116000Y-133614000D03*
X121656000Y-133614000D03*
X124196000Y-133614000D03*
D17*
X124206000Y-136398000D03*
X121706000Y-136398000D03*
D18*
X121666000Y-117856000D03*
D19*
X121666000Y-116586000D03*
X121666000Y-115316000D03*
X121666000Y-114046000D03*
D20*
X110744000Y-132500000D03*
D21*
X110744000Y-129960000D03*
X110744000Y-127420000D03*
X110744000Y-124880000D03*
D14*
X116586000Y-136652000D03*
D15*
X108966000Y-136652000D03*
D14*
X116586000Y-139700000D03*
D15*
X108966000Y-139700000D03*
D22*
X124094000Y-121666000D03*
D23*
X122794000Y-121666000D03*
D22*
X120756200Y-121666000D03*
D23*
X119456200Y-121666000D03*
M02*
